<?xml version="1.0" encoding="UTF-8" standalone="no"?>
<!-- Created with Inkscape (http://www.inkscape.org/) -->
<svg id="svg4874" xmlns:rdf="http://www.w3.org/1999/02/22-rdf-syntax-ns#" xmlns="http://www.w3.org/2000/svg" height="96" viewBox="0 0 96 96.000001" width="96" version="1.1" xmlns:cc="http://creativecommons.org/ns#" xmlns:dc="http://purl.org/dc/elements/1.1/">
 <metadata id="metadata4879">
  <rdf:RDF>
   <cc:Work rdf:about="">
    <dc:format>image/svg+xml</dc:format>
    <dc:type rdf:resource="http://purl.org/dc/dcmitype/StillImage"/>
    <dc:title/>
   </cc:Work>
  </rdf:RDF>
 </metadata>
 <g id="layer1" transform="translate(67.857 -78.505)">
  <g id="g4845" transform="matrix(0 -1 -1 0 373.51 516.51)">
   <g id="g4778" transform="matrix(-.99960 0 0 1 575.94 -611)">
    <g id="g4780" transform="matrix(-1 0 0 1 576 611)">
     <rect id="rect4782" style="color:#000000;fill:none" transform="scale(-1,1)" height="96" width="96.038" y="345.36" x="-438"/>
     <path id="path4849" style="color:#000000;fill:#808080" d="m430 411.93c0 11.675-9.3424 21.174-20.961 21.429-5.3915 0-9.5995-1.413-13.487-2.8571-16.066-6.7837-29.485-20-45.584-37.143 16.098-17.143 29.518-30.359 45.584-37.143 3.888-1.4441 8.096-2.8571 13.487-2.8571 11.618 0.25447 20.961 9.7538 20.961 21.429 0 7.9422-4.3266 14.87-10.748 18.571 6.4217 3.7014 10.748 10.629 10.748 18.571z"/>
    </g>
   </g>
  </g>
 </g>
</svg>
