<?xml version="1.0" encoding="utf-8"?>
<!-- Generator: Adobe Illustrator 22.0.0, SVG Export Plug-In . SVG Version: 6.00 Build 0)  -->
<svg version="1.1" xmlns="http://www.w3.org/2000/svg" xmlns:xlink="http://www.w3.org/1999/xlink" x="0px" y="0px"
	 viewBox="0 0 181.4 181.9" style="enable-background:new 0 0 181.4 181.9;" xml:space="preserve">
<style type="text/css">
	.st0{fill:url(#SVGID_1_);}
	.st1{fill:#F094BE;}
	.st2{fill:#4D3F92;}
	.st3{fill:#FFFFFF;}
</style>
<g id="Capa_1">
	<rect x="0" y="0" style="color:#FFFFFF" width="181.4" height="181.9" class="st3"/>
</g>
<g id="Capa_2">
	<g>
		<path class="st2" d="M151.6,95.1c1.5-0.3,2.8-1,3.8-2c4-5.3,0.8-11.8-4.5-12.6c-0.8,0-1.5-0.8-1.5-1.5c0-0.3,0-0.5,0-0.5
			c0.8-0.8,1.5-1.8,2.5-3.3c8.1-10.8,11.8-50.6,3.8-53.7c-9.8-3.3-29.7,6.3-38.3,17.4c-0.5-0.3-1-1-1-1.8c0.3-3-1.3-5.5-3.5-6.8
			c-4.5-2.3-8.8,0-10.6,3.3c-0.5,0.8-1.3,1.3-2,1c-0.8,0-1.5-0.8-1.5-1.5c-0.5-2.5-2-4.5-4.3-5.5c-4.8-2-9.8,0.8-10.6,5.3
			c-0.3,0.8-0.8,1.5-1.5,1.5c-0.8,0.3-1.5-0.3-2-1c-1.5-2.3-4-3.8-6.5-3.8c-4,0-7.6,3.3-7.8,7.3v0.3v0.3c0,0.8-0.5,1.5-1,1.8h-0.3
			c-8.3-10.8-28.5-20.7-38.5-17.4c-8.1,2.8-4.3,42.6,4,53.4c1.5,2,2.8,3.5,3.8,4.5c-0.3,0.8-1,1.5-1.8,1.5c-1.3,0-2.5,0.5-3.5,1.3
			c-5.3,5-2.3,12.1,3,13.4c0.8,0.3,1.5,1,1.5,1.8c0,0.8-0.5,1.8-1.3,2c-1,0.5-2,1-2.8,2c-4,5.8,0,12.3,5.5,12.3
			c0.8,0,1.5,0.5,1.8,1.3c0.3,0.8,0.3,1.5-0.5,2c-1.5,1.5-2.3,3.5-2,5.5c0.3,2.8,2,5.3,4.8,6.5c1.5,0.8,3,0.8,4.5,0.5
			c0.8-0.3,1.5,0,2,0.8c0.5,0.5,0.5,1.5,0.3,2c-0.8,1.5-1,3.3-0.5,5c0.8,2.8,2.8,4.8,5.5,5.5c2.5,0.5,4.3-0.3,5.5-0.8
			c0.5-0.3-3.3,9.1-6,15.4c-0.8,2,1.3,4.3,3.5,3.3c8.3-3.8,22.2-10.3,22.2-9.8c0.5,5.3,6.5,9.1,12.3,5.3c1.3-0.8,2-2.3,2.3-3.5
			c0.3-0.8,1-1.5,2-1.5c1,0,1.8,0.5,2,1.5c0.3,1.3,0.8,2.3,1.8,3c5.8,4.5,12.3,0.8,12.8-4.8c0-0.8,0.5-1.5,1.3-1.8
			c0.8-0.3,1.5,0,2,0.5c1.5,1.5,3.3,2.5,5.3,2.5l0,0c2.5,0,5-1.3,6.5-3.8c1-1.5,1.3-3,1-5c0-0.8,0.3-1.5,0.8-2c0.5-0.5,1.5-0.5,2,0
			c1.5,0.8,3.3,1.3,5,0.8c2.8-0.5,5-2.8,5.8-5.3c0.5-1.8,0.3-3.5-0.5-5.3c-0.3-0.8-0.3-1.5,0.3-2s1.3-0.8,2-0.8
			c1.8,0.3,3.3,0.3,4.8-0.5c2.3-1,3.8-3,4.3-5.5c0.5-2.5-0.3-4.8-2-6.5c-0.5-0.5-0.8-1.3-0.5-2s1-1.3,1.8-1.3c1.8,0,3.8-0.5,5-2
			c4.3-4.5,2.3-10.6-2.5-12.6c-0.8-0.3-1.3-1-1.3-2C150.1,95.8,150.8,95.1,151.6,95.1z"/>
		<path class="st3" d="M131.4,42.2c0.5,1.5,0.5,3,0,4.5c-0.3,0.8,0,1.5,0.5,2s1.3,0.8,2,0.5c1-0.5,2-0.5,3-0.5c2.3,0,4.3,1,5.8,3
			c1,1.3,1.8,3,1.5,4.8c0,1.5-0.5,2.8-1.3,4c-0.5,0.5-0.5,1.5,0,2c0.3,0.3,0.5,0.8,1,0.8c1-0.3,2-1,2.8-2c4.5-6.3,5.3-26.2,0.8-27.7
			c-4.5-1.5-12.3,1.5-17.9,6C130.7,40.1,131.2,40.9,131.4,42.2z"/>
		<path class="st3" d="M39,63.6c0.3-0.3,0.5-0.5,0.8-0.8c0.5-0.8,0.3-1.5,0-2C38.5,59,38.2,57,38.5,55c0.5-2.8,2.8-5,5.5-5.8
			c1.5-0.5,3-0.3,4.5,0.3c0.8,0.3,1.5,0,2-0.5c0.5-0.5,0.8-1.3,0.5-2c-0.5-1.5-0.5-3,0-4.5c0.3-1,0.8-2,1.5-2.8
			c-5.5-4.5-13.9-7.8-18.4-6.3S30.4,54.8,35,61.1C36,62.6,37.2,63.3,39,63.6z"/>
		<g>
			<circle class="st3" cx="60.9" cy="94.6" r="9.3"/>
			<path class="st3" d="M100.7,94.6c0,5.3-4.3,9.3-9.3,9.3c-5.3,0-9.3-4.3-9.3-9.3S100.7,89.3,100.7,94.6z"/>
			<circle class="st3" cx="121.6" cy="94.6" r="9.3"/>
		</g>
	</g>
</g>
</svg>
