<svg width="48" height="48" viewBox="0 0 48 48" fill="none" xmlns="http://www.w3.org/2000/svg">
<path fill-rule="evenodd" clip-rule="evenodd" d="M48.0001 24.5455C48.0001 22.8437 47.8442 21.2074 47.5548 19.6364H24.4898V28.9201H37.6698C37.1021 31.9201 35.3767 34.4619 32.783 36.1637V42.1856H40.6977C45.3285 38.0074 48.0001 31.8546 48.0001 24.5455Z" fill="#4285F4"/>
<path fill-rule="evenodd" clip-rule="evenodd" d="M24.4899 47.9999C31.1021 47.9999 36.6457 45.851 40.6977 42.1856L32.783 36.1637C30.59 37.6037 27.7849 38.4545 24.4899 38.4545C18.1114 38.4545 12.7125 34.2327 10.7867 28.5599H2.60484V34.7781C6.63454 42.6218 14.9166 47.9999 24.4899 47.9999Z" fill="#34A853"/>
<path fill-rule="evenodd" clip-rule="evenodd" d="M10.7867 28.5599C10.2969 27.1199 10.0186 25.5819 10.0186 24.0001C10.0186 22.4183 10.2969 20.8801 10.7867 19.4401V13.2219H2.60483C0.946199 16.4619 0 20.1273 0 24.0001C0 27.8728 0.94621 31.5381 2.60484 34.7781L10.7867 28.5599Z" fill="#FBBC05"/>
<path fill-rule="evenodd" clip-rule="evenodd" d="M24.4899 9.5454C28.0854 9.5454 31.3136 10.7563 33.8517 13.1345L40.8758 6.25085C36.6346 2.37812 31.091 -6.10352e-05 24.4899 -6.10352e-05C14.9166 -6.10352e-05 6.63452 5.37825 2.60483 13.2219L10.7867 19.4401C12.7125 13.7673 18.1114 9.5454 24.4899 9.5454Z" fill="#EA4335"/>
</svg>
