<svg width="97" height="97" viewBox="0 0 97 97" fill="none" xmlns="http://www.w3.org/2000/svg">
<path d="M71.9441 13.7644L96.886 48.1091C96.9531 48.2015 96.949 48.3277 96.8761 48.4156L87.8737 59.2707C87.7711 59.3944 87.8103 59.5815 87.9539 59.6536L93.8463 62.6141C94.011 62.6968 94.0326 62.9231 93.8866 63.0356L58.3607 90.3882C58.317 90.4219 58.2634 90.4401 58.2082 90.4401H44.2072C44.03 90.4401 43.909 90.2608 43.9754 90.0965L62.8627 43.3445C62.9146 43.216 62.8521 43.0699 62.7234 43.0186L36.4149 32.5355C36.2163 32.4564 36.2022 32.1806 36.3918 32.0817L71.6261 13.6897C71.736 13.6323 71.8713 13.6641 71.9441 13.7644Z" fill="white"/>
<path d="M48.4415 48.4923L36.1145 96.2033C36.0527 96.4426 35.7182 96.4567 35.6365 96.2235L24.301 63.8751C24.2697 63.7859 24.1908 63.7219 24.097 63.7098L6.19491 61.4036C6.11216 61.3929 6.04019 61.3417 6.00303 61.267L0.0814505 49.3666C0.032944 49.2692 0.0531086 49.1515 0.131305 49.0757L12.949 36.6561C13.0158 36.5914 13.1131 36.5691 13.2014 36.5983L48.2779 48.1923C48.4029 48.2337 48.4744 48.3648 48.4415 48.4923Z" fill="white"/>
<path d="M10.7145 15.1023L8.90488 32.3767C8.88496 32.5668 9.07717 32.7081 9.25268 32.6322L55.3852 12.6994C55.4546 12.6694 55.5067 12.6096 55.527 12.5368L56.9484 7.41574C56.9725 7.329 57.0413 7.2619 57.1287 7.24007L70.1057 3.9958C70.3789 3.9275 70.3482 3.52978 70.0677 3.50429L45.28 1.25085C45.0914 1.23371 44.953 1.42427 45.0275 1.59831L48.3112 9.26009C48.3908 9.44579 48.2286 9.6443 48.0308 9.60338L24.3614 4.70886C24.2905 4.69421 24.2167 4.71099 24.1592 4.75486L10.8116 14.9295C10.7568 14.9713 10.7217 15.0338 10.7145 15.1023Z" fill="white"/>
</svg>
