<?xml version="1.0" encoding="UTF-8" standalone="no"?>
<!-- Generator: Adobe Illustrator 22.0.0, SVG Export Plug-In . SVG Version: 6.00 Build 0)  -->

<svg
   version="1.1"
   x="0px"
   y="0px"
   viewBox="0 0 640 640"
   xml:space="preserve"
   id="svg24"
   sodipodi:docname="info-logo.svg"
   inkscape:version="1.2.1 (9c6d41e410, 2022-07-14, custom)"
   width="640"
   height="640"
   inkscape:export-filename="info-logo.png"
   inkscape:export-xdpi="96"
   inkscape:export-ydpi="96"
   xmlns:inkscape="http://www.inkscape.org/namespaces/inkscape"
   xmlns:sodipodi="http://sodipodi.sourceforge.net/DTD/sodipodi-0.dtd"
   xmlns:xlink="http://www.w3.org/1999/xlink"
   xmlns="http://www.w3.org/2000/svg"
   xmlns:svg="http://www.w3.org/2000/svg"><defs
   id="defs29" /><sodipodi:namedview
   id="namedview26"
   pagecolor="#505050"
   bordercolor="#eeeeee"
   borderopacity="1"
   inkscape:showpageshadow="0"
   inkscape:pageopacity="0"
   inkscape:pagecheckerboard="0"
   inkscape:deskcolor="#505050"
   showgrid="false"
   inkscape:zoom="1.4142136"
   inkscape:cx="235.113"
   inkscape:cy="375.4737"
   inkscape:window-width="1920"
   inkscape:window-height="1012"
   inkscape:window-x="1920"
   inkscape:window-y="0"
   inkscape:window-maximized="1"
   inkscape:current-layer="svg24" />
<style
   type="text/css"
   id="style2">
	.st0{fill:url(#SVGID_1_);}
	.st1{fill:#F094BE;}
	.st2{fill:#4D3F92;}
	.st3{fill:#FFFFFF;}
</style>


<text
   xml:space="preserve"
   style="font-size:26.6667px;line-height:1.25;font-family:'Noto Sans Linear B';-inkscape-font-specification:'Noto Sans Linear B';display:none;fill:#ff0000;fill-opacity:0.993491"
   x="94.643097"
   y="633.18518"
   id="text455"
   inkscape:label="Note: I do not know the original font used...."
   sodipodi:insensitive="true"><tspan
     sodipodi:role="line"
     id="tspan453"
     x="0"
     y="0"
     style="font-size:26.6667px;fill:#ff0000;fill-opacity:0.993491">Note: I do not know the original font used....</tspan></text><g
   id="Capa_2"
   transform="matrix(1.6168892,0,0,1.6168895,172.88889,94.00966)"
   style="image-rendering:auto">
	<g
   id="g21"
   transform="translate(9.4535881e-5,0.46581846)">
		<path
   class="st2"
   d="m 151.6,95.1 c 1.5,-0.3 2.8,-1 3.8,-2 4,-5.3 0.8,-11.8 -4.5,-12.6 -0.8,0 -1.5,-0.8 -1.5,-1.5 0,-0.3 0,-0.5 0,-0.5 0.8,-0.8 1.5,-1.8 2.5,-3.3 8.1,-10.8 11.8,-50.6 3.8,-53.7 -9.8,-3.3 -29.7,6.3 -38.3,17.4 -0.5,-0.3 -1,-1 -1,-1.8 0.3,-3 -1.3,-5.5 -3.5,-6.8 -4.5,-2.3 -8.8,0 -10.6,3.3 -0.5,0.8 -1.3,1.3 -2,1 -0.8,0 -1.5,-0.8 -1.5,-1.5 -0.5,-2.5 -2,-4.5 -4.3,-5.5 -4.8,-2 -9.8,0.8 -10.6,5.3 -0.3,0.8 -0.8,1.5 -1.5,1.5 -0.8,0.3 -1.5,-0.3 -2,-1 -1.5,-2.3 -4,-3.8 -6.5,-3.8 -4,0 -7.6,3.3 -7.8,7.3 v 0.3 0.3 c 0,0.8 -0.5,1.5 -1,1.8 H 64.8 C 56.5,28.5 36.3,18.6 26.3,21.9 c -8.1,2.8 -4.3,42.6 4,53.4 1.5,2 2.8,3.5 3.8,4.5 -0.3,0.8 -1,1.5 -1.8,1.5 -1.3,0 -2.5,0.5 -3.5,1.3 -5.3,5 -2.3,12.1 3,13.4 0.8,0.3 1.5,1 1.5,1.8 0,0.8 -0.5,1.8 -1.3,2 -1,0.5 -2,1 -2.8,2 -4,5.8 0,12.3 5.5,12.3 0.8,0 1.5,0.5 1.8,1.3 0.3,0.8 0.3,1.5 -0.5,2 -1.5,1.5 -2.3,3.5 -2,5.5 0.3,2.8 2,5.3 4.8,6.5 1.5,0.8 3,0.8 4.5,0.5 0.8,-0.3 1.5,0 2,0.8 0.5,0.5 0.5,1.5 0.3,2 -0.8,1.5 -1,3.3 -0.5,5 0.8,2.8 2.8,4.8 5.5,5.5 2.5,0.5 4.3,-0.3 5.5,-0.8 0.5,-0.3 -3.3,9.1 -6,15.4 -0.8,2 1.3,4.3 3.5,3.3 8.3,-3.8 22.2,-10.3 22.2,-9.8 0.5,5.3 6.5,9.1 12.3,5.3 1.3,-0.8 2,-2.3 2.3,-3.5 0.3,-0.8 1,-1.5 2,-1.5 1,0 1.8,0.5 2,1.5 0.3,1.3 0.8,2.3 1.8,3 5.8,4.5 12.3,0.8 12.8,-4.8 0,-0.8 0.5,-1.5 1.3,-1.8 0.8,-0.3 1.5,0 2,0.5 1.5,1.5 3.3,2.5 5.3,2.5 v 0 c 2.5,0 5,-1.3 6.5,-3.8 1,-1.5 1.3,-3 1,-5 0,-0.8 0.3,-1.5 0.8,-2 0.5,-0.5 1.5,-0.5 2,0 1.5,0.8 3.3,1.3 5,0.8 2.8,-0.5 5,-2.8 5.8,-5.3 0.5,-1.8 0.3,-3.5 -0.5,-5.3 -0.3,-0.8 -0.3,-1.5 0.3,-2 0.6,-0.5 1.3,-0.8 2,-0.8 1.8,0.3 3.3,0.3 4.8,-0.5 2.3,-1 3.8,-3 4.3,-5.5 0.5,-2.5 -0.3,-4.8 -2,-6.5 -0.5,-0.5 -0.8,-1.3 -0.5,-2 0.3,-0.7 1,-1.3 1.8,-1.3 1.8,0 3.8,-0.5 5,-2 4.3,-4.5 2.3,-10.6 -2.5,-12.6 -0.8,-0.3 -1.3,-1 -1.3,-2 0,-0.9 0.7,-1.6 1.5,-1.6 z"
   id="path7"
   style="stroke:#ffffff;stroke-width:4.32930058;stroke-linecap:round;stroke-linejoin:round;stroke-dasharray:none;stroke-opacity:1;paint-order:stroke markers fill" />
		<path
   class="st3"
   d="m 131.4,42.2 c 0.5,1.5 0.5,3 0,4.5 -0.3,0.8 0,1.5 0.5,2 0.5,0.5 1.3,0.8 2,0.5 1,-0.5 2,-0.5 3,-0.5 2.3,0 4.3,1 5.8,3 1,1.3 1.8,3 1.5,4.8 0,1.5 -0.5,2.8 -1.3,4 -0.5,0.5 -0.5,1.5 0,2 0.3,0.3 0.5,0.8 1,0.8 1,-0.3 2,-1 2.8,-2 4.5,-6.3 5.3,-26.2 0.8,-27.7 -4.5,-1.5 -12.3,1.5 -17.9,6 1.1,0.5 1.6,1.3 1.8,2.6 z"
   id="path9" />
		<path
   class="st3"
   d="m 39,63.6 c 0.3,-0.3 0.5,-0.5 0.8,-0.8 0.5,-0.8 0.3,-1.5 0,-2 C 38.5,59 38.2,57 38.5,55 39,52.2 41.3,50 44,49.2 c 1.5,-0.5 3,-0.3 4.5,0.3 0.8,0.3 1.5,0 2,-0.5 0.5,-0.5 0.8,-1.3 0.5,-2 -0.5,-1.5 -0.5,-3 0,-4.5 0.3,-1 0.8,-2 1.5,-2.8 -5.5,-4.5 -13.9,-7.8 -18.4,-6.3 -4.5,1.5 -3.7,21.4 0.9,27.7 1,1.5 2.2,2.2 4,2.5 z"
   id="path11" />
		<g
   id="g19">
			<circle
   class="st3"
   cx="60.900002"
   cy="94.599998"
   r="9.3000002"
   id="circle13" />
			<path
   class="st3"
   d="m 100.7,94.6 c 0,5.3 -4.3,9.3 -9.3,9.3 -5.3,0 -9.3,-4.3 -9.3,-9.3 0,-5 18.6,-5.3 18.6,0 z"
   id="path15" />
			<circle
   class="st3"
   cx="121.6"
   cy="94.599998"
   r="9.3000002"
   id="circle17" />
		</g>
	</g>
</g><g
   id="g2720"
   inkscape:label="fluffychat"
   style="display:inline;stroke:#ffffff;stroke-width:7.6066007;stroke-linecap:round;stroke-linejoin:round;stroke-dasharray:none;stroke-opacity:1;paint-order:stroke fill markers"
   transform="matrix(0.92025338,0,0,0.92025338,-6.3220161,-4.7055202)"><g
     id="g14535"
     inkscape:label="chat"
     style="fill:#00a1bc;fill-opacity:1;stroke:#ffffff;stroke-width:7.6066007;stroke-linecap:round;stroke-linejoin:round;stroke-dasharray:none;stroke-opacity:1;paint-order:stroke fill markers"><path
       style="color:#000000;fill:#00a1bc;fill-opacity:1;stroke:#ffffff;stroke-width:7.6066007;stroke-linecap:round;stroke-linejoin:round;stroke-dasharray:none;stroke-opacity:1;paint-order:stroke fill markers"
       d="m 562.92197,448.4866 c -2.60917,-0.30486 -5.17384,1.64339 -5.69858,4.21245 -0.55728,2.72842 -0.24323,7.91189 -0.24323,7.91189 -2.74579,-0.0686 -5.55869,-0.59559 -7.95219,1.32171 -2.65609,2.12765 -2.58626,7.00643 0,8.95134 2.34163,1.76095 7.95219,1.25707 7.95219,1.25707 0,10.01284 3.8e-4,19.77116 0,29.784 0.49843,4.92696 4.90461,8.87339 9.77862,9.22679 3.37489,0.31796 6.92487,0.1972 10.13895,-0.94458 2.75868,-1.13315 4.655,-4.36744 3.42462,-7.26639 -0.79803,-2.84864 -4.22476,-3.70476 -6.73165,-2.71773 -2.98388,1.72425 -4.84172,-1.67013 -4.47089,-4.25546 -0.0315,-8.02703 0.014,-16.05409 0.003,-24.08114 2.70412,-0.0577 5.42586,0.12654 8.11662,-0.11491 4.83581,-0.90643 5.26253,-8.45876 0.98226,-10.6606 -1.74161,-0.89591 -5.46982,-0.20326 -9.09888,-0.20326 0,0 0.006,-8.17372 -0.31554,-8.93716 -0.95528,-2.26675 -3.55257,-3.48402 -5.8856,-3.48402 z"
       id="path14479"
       sodipodi:nodetypes="sscssscccsscccscsss"
       inkscape:label="t" /><path
       style="color:#000000;fill:#00a1bc;fill-opacity:1;stroke:#ffffff;stroke-width:7.6066007;stroke-linecap:round;stroke-linejoin:round;stroke-dasharray:none;stroke-opacity:1;paint-order:stroke fill markers"
       d="m 533.83203,458.7646 c -3.15141,-0.34296 -5.3587,2.78921 -5.64507,5.62849 -4.36454,-3.26144 -9.61516,-5.8459 -15.20756,-5.3963 -6.1831,0.04 -12.19324,2.65617 -16.52963,7.04459 -4.78443,4.13385 -6.10787,10.65878 -6.45154,16.67045 -0.74696,9.79875 2.9723,20.42469 11.3567,26.07195 4.72285,3.21814 10.72707,3.94029 16.29823,3.34602 3.96818,-0.47405 7.23684,-2.99092 10.0626,-5.63903 0.94876,3.35182 4.62364,5.93313 8.09234,4.68427 2.67575,-0.73754 4.24888,-3.52866 3.90033,-6.20541 -0.023,-13.74703 0.0461,-27.49708 -0.0348,-41.24221 -0.22956,-2.88413 -2.96011,-5.18257 -5.84164,-4.96282 z m -5.64507,23.94723 c 1.07828,6.5283 -1.60114,14.12719 -7.86545,17.06103 -4.79574,2.30687 -11.28382,1.71783 -14.76373,-2.60852 -4.1706,-4.99711 -5.43623,-12.34122 -2.74467,-18.33861 1.20342,-3.17686 3.3771,-6.03449 6.51321,-7.48705 5.19868,-2.91069 11.95962,-0.98785 15.64553,3.45474 1.89114,2.17769 3.29829,4.97591 3.21511,7.91841 z"
       id="path12957"
       sodipodi:nodetypes="ccsssscccscccscc"
       inkscape:label="a" /><path
       style="color:#000000;fill:#00a1bc;fill-opacity:1;stroke:#ffffff;stroke-width:7.6066007;stroke-linecap:round;stroke-linejoin:round;stroke-dasharray:none;stroke-opacity:1;paint-order:stroke fill markers"
       d="m 443.06641,439.94141 c -3.26433,-0.0465 -6.38452,2.89404 -5.90305,6.25001 0.0229,19.9673 -0.0459,39.93753 0.0344,59.903 0.62565,4.36445 6.57701,6.42025 9.82803,3.46417 2.47654,-1.86092 1.63462,-5.09581 1.78481,-7.74763 0.014,-6.16519 -0.16754,-10.96992 0,-17.13031 0.10617,-3.90402 0.32092,-9.9351 3.79481,-12.41759 3.66729,-2.85819 10.09275,-3.39125 13.27607,-0.31533 3.28466,3.17383 3.05437,10.54267 3.05369,11.74336 -0.005,8.0496 -0.0355,16.10183 0.0353,24.14882 0.80701,3.40737 5.32389,3.39114 8.08366,2.86381 3.60962,-0.47168 4.05352,-4.29795 3.6902,-7.21157 -0.059,-9.29553 0.25875,-18.60594 -0.25343,-27.89111 -0.49072,-5.78736 -2.03801,-10.89373 -6.23092,-13.58338 -5.57775,-3.57799 -14.24081,-3.55982 -19.88013,0 l -5.56919,3.51556 c -0.0217,-6.95923 0.0434,-13.9211 -0.0327,-20.87868 -0.34574,-2.71871 -3.05656,-4.71379 -5.71157,-4.71313 z"
       id="path12939"
       sodipodi:nodetypes="sscssscssssscascccs"
       inkscape:label="h" /><path
       style="color:#000000;fill:#00a1bc;fill-opacity:1;stroke:#ffffff;stroke-width:7.6066007;stroke-linecap:round;stroke-linejoin:round;stroke-dasharray:none;stroke-opacity:1;paint-order:stroke fill markers"
       d="m 391.91477,465.80108 c -7.57016,7.75562 -8.50788,19.94372 -5.30926,29.86701 3.38934,9.70476 13.24407,16.98333 23.65486,16.44674 6.17898,0.0435 12.93496,-1.24727 17.5401,-5.62829 2.78827,-3.46147 -0.34158,-10.49924 -5.13073,-8.5498 -3.84026,1.83312 -7.88892,3.96797 -12.31147,3.2528 -7.29184,-0.63102 -13.62087,-6.9993 -13.71248,-14.4019 -0.47868,-6.96567 3.61497,-14.86735 10.88009,-16.32616 4.0948,-0.89565 8.1361,0.43964 11.84821,2.0877 2.74473,1.20129 6.92733,2.38997 8.54085,-1.1092 2.05726,-3.93759 -1.06922,-8.39249 -4.75218,-9.94292 -7.03297,-3.7132 -15.61905,-3.33367 -23.00158,-0.92478 -3.03694,1.2244 -5.80603,3.05639 -8.24641,5.2288 z"
       id="path12912"
       sodipodi:nodetypes="ssssscccssssssccccss"
       inkscape:label="c" /></g><g
     id="g14529"
     inkscape:label="fluffy"
     style="fill:#444444;fill-opacity:1;stroke:#ffffff;stroke-width:7.6066007;stroke-linecap:round;stroke-linejoin:round;stroke-dasharray:none;stroke-opacity:1;paint-order:stroke fill markers"><path
       style="color:#000000;fill:#444444;fill-opacity:1;stroke:#ffffff;stroke-width:7.6066007;stroke-linecap:round;stroke-linejoin:round;stroke-dasharray:none;stroke-opacity:1;paint-order:stroke fill markers"
       d="m 364.1013,507.69269 c -0.28866,4.09909 -1.36926,8.95002 -5.67816,10.59919 -4.72351,1.73746 -10.372,1.86184 -14.85523,-0.654 -3.7123,-2.44424 -9.3586,0.29378 -8.95093,4.93619 0.18108,4.54251 4.91635,6.57172 8.83075,6.98673 8.42045,1.69401 18.29318,1.4336 25.17485,-4.32187 4.05818,-3.36451 7.25406,-8.26315 6.89092,-13.72643 0.55108,-15.0706 0.12618,-30.15744 0.2469,-45.233 0,-5.07272 -4.90962,-8.01177 -8.99688,-5.70693 -3.44378,2.45795 -2.39927,9.5583 -2.66313,14.77473 -0.0893,6.25566 0.19851,12.54437 -0.16132,18.7791 -1.9182,7.73184 -13.50136,9.71442 -18.10525,3.34532 -2.59461,-4.37765 -1.10335,-9.66951 -1.51487,-14.47456 -0.1096,-6.36844 0.2575,-12.78073 -0.2057,-19.12097 -1.55752,-5.57454 -11.54277,-5.31263 -11.57028,0.97725 -0.0947,10.73576 -0.20144,21.49831 0.0772,32.23681 0.40229,5.90824 3.9844,11.55506 9.57033,13.81024 7.19201,3.59272 15.68253,1.22319 21.91078,-3.2078 z"
       id="path8185"
       sodipodi:nodetypes="sasssccccccszssssss"
       inkscape:label="y" /><use
       x="0"
       y="0"
       xlink:href="#path8140"
       id="use8146-8"
       transform="translate(160.70024)"
       inkscape:label="f"
       style="fill:#444444;fill-opacity:1;stroke:#ffffff;stroke-width:7.6066007;stroke-linecap:round;stroke-linejoin:round;stroke-dasharray:none;stroke-opacity:1;paint-order:stroke fill markers" /><use
       x="0"
       y="0"
       xlink:href="#path8140"
       id="use8146"
       transform="translate(120.79317)"
       inkscape:label="f"
       style="fill:#444444;fill-opacity:1;stroke:#ffffff;stroke-width:7.6066007;stroke-linecap:round;stroke-linejoin:round;stroke-dasharray:none;stroke-opacity:1;paint-order:stroke fill markers" /><path
       style="color:#000000;fill:#444444;fill-opacity:1;stroke:#ffffff;stroke-width:7.6066007;stroke-linecap:round;stroke-linejoin:round;stroke-dasharray:none;stroke-opacity:1;paint-order:stroke fill markers"
       d="m 203.09961,459.81323 c -3.4821,0.005 -6.38987,3.50283 -5.7894,6.9306 0.0673,9.26978 -0.15327,18.54633 0.13261,27.81164 0.35452,5.09017 2.57678,10.21523 6.82972,13.22644 5.55736,4.38774 13.10608,4.7518 19.86263,3.9702 6.13229,-0.79837 11.54541,-4.96558 14.38597,-10.38016 2.82972,-5.25148 2.04801,-11.37621 2.1897,-17.10493 -0.10216,-6.59361 0.13071,-13.20167 -0.0996,-19.78723 -0.72775,-3.82018 -5.84877,-6.11481 -8.99816,-3.58329 -2.51578,1.5391 -2.9212,4.6479 -2.62583,7.32275 -0.008,7.68886 0.16168,15.38634 -0.0559,23.06981 -0.48698,3.93482 -2.69157,8.39569 -6.95923,9.17239 -3.94192,0.90809 -9.00029,0.30019 -11.2182,-3.51487 -2.44119,-4.33438 -1.38965,-9.47747 -1.63329,-14.21621 -0.005,-5.96309 0.0606,-11.92636 -0.006,-17.88931 -0.48316,-2.81114 -3.21405,-4.945 -6.01521,-5.02783 z"
       id="path1096"
       inkscape:label="u"
       sodipodi:nodetypes="sssssssssssasss" /><path
       style="color:#000000;fill:#444444;fill-opacity:1;stroke:#ffffff;stroke-width:7.6066007;stroke-linecap:round;stroke-linejoin:round;stroke-dasharray:none;stroke-opacity:1;paint-order:stroke fill markers"
       d="m 178.07031,440.24903 c -2.94273,-0.099 -6.12137,2.26392 -5.66929,5.43981 0.006,20.3714 -0.0127,40.74317 0.01,61.11433 0.23114,3.95816 5.38988,5.36394 8.48062,3.72849 2.17789,-0.83721 3.06822,-3.17125 2.82068,-5.34227 0,-20.07299 0,-40.14599 0,-60.21898 0.0267,-2.89989 -3.02815,-4.71312 -5.64156,-4.72138 z"
       id="path1226"
       inkscape:label="l"
       sodipodi:nodetypes="sssssss" /><path
       style="color:#000000;fill:#444444;fill-opacity:1;stroke:#ffffff;stroke-width:7.6066007;stroke-linecap:round;stroke-linejoin:round;stroke-dasharray:none;stroke-opacity:1;paint-order:stroke fill markers"
       d="m 139.73461,448.98277 c -1.14826,3.54622 -0.82212,7.38974 -0.94471,11.07629 -3.09968,0.1617 -6.7129,-0.69772 -9.15473,1.75098 -2.7547,2.92023 -1.92459,9.01668 2.44338,9.87866 2.20538,0.45339 4.47409,0.19142 6.71135,0.26152 0.0152,11.5529 -0.0304,23.10713 0.0229,34.65919 -0.10894,3.56452 3.75176,4.97291 6.73777,4.56755 3.00221,0.16258 5.93165,-2.21911 5.51966,-5.39349 0,-11.27775 0,-22.5555 0,-33.83325 3.22434,-0.0869 6.4758,0.20412 9.67787,-0.21167 4.22512,-0.5039 5.63076,-6.354 2.95775,-9.24029 -2.71637,-2.28723 -6.44022,-1.38284 -9.70112,-1.5715 -0.97817,0 -1.95633,0 -2.9345,0 -0.005,-2.94202 -0.4927,-6.38548 1.50629,-8.82582 2.27205,-1.97081 5.68412,-1.89124 8.14223,-0.31788 3.12241,1.35659 5.95844,-2.03832 6.28128,-4.89774 0.55889,-3.56544 -2.59547,-6.6544 -6.01774,-6.93035 -7.34549,-1.08714 -15.56841,1.21331 -20.11043,7.37767 -0.40614,0.53074 -0.78524,1.08209 -1.13728,1.65013 z"
       id="path8140"
       inkscape:label="f"
       sodipodi:nodetypes="scszscszscszscsszcs" /></g></g></svg>
