<svg version="1.1" id="Layer_1" xmlns="http://www.w3.org/2000/svg" x="0" y="0" viewBox="0 0 281.2 281.2" style="enable-background:new 0 0 281.2 281.2" xml:space="preserve">
    <style>
        .st1{fill:#fff}.st2{fill:url(#SVGID_2_)}.st3{fill:#3f4347}.st4{fill:url(#SVGID_3_)}.st5{fill:url(#SVGID_4_)}.st6{fill:url(#SVGID_5_)}.st7{fill:url(#SVGID_6_)}.st8{fill:url(#SVGID_7_)}.st9{fill:url(#SVGID_8_)}.st10{fill:url(#SVGID_9_)}.st11{fill:url(#SVGID_10_)}.st12{fill:url(#SVGID_11_)}.st13{fill:url(#SVGID_12_)}.st14{fill:url(#SVGID_13_)}.st15{fill:url(#SVGID_14_)}.st16{fill:url(#SVGID_15_)}.st17{fill:url(#SVGID_16_)}.st18{fill:url(#SVGID_17_)}.st19{fill:url(#SVGID_18_)}.st20{fill:url(#SVGID_19_)}.st21{fill:url(#SVGID_20_)}.st22{fill:url(#SVGID_21_)}.st23{fill:url(#SVGID_22_)}.st24{fill:url(#SVGID_23_)}.st25{fill:url(#SVGID_24_)}.st26{fill:url(#SVGID_25_)}.st27{fill:url(#SVGID_26_)}.st28{fill:url(#SVGID_27_)}.st29{fill:url(#SVGID_28_)}.st30{fill:url(#SVGID_29_)}.st31{fill:url(#SVGID_30_)}.st32{fill:url(#SVGID_31_)}.st33{fill:url(#SVGID_32_)}.st34{fill:url(#SVGID_33_)}.st35{fill:url(#SVGID_34_)}.st36{fill:url(#SVGID_35_)}.st37{fill:url(#SVGID_36_)}.st38{fill:url(#SVGID_37_)}.st39{fill:url(#SVGID_38_)}.st40{fill:url(#SVGID_39_)}.st41{fill:#231f20}.st42{fill:url(#SVGID_40_)}.st43{fill:url(#SVGID_41_)}.st44{fill:url(#SVGID_42_)}.st45{fill:url(#SVGID_43_)}.st46{fill:url(#SVGID_44_)}.st47{fill:url(#SVGID_45_)}.st48{fill:url(#SVGID_46_)}.st49{fill:url(#SVGID_47_)}.st50{fill:url(#SVGID_48_)}.st51{fill:url(#SVGID_49_)}.st52{fill:url(#SVGID_50_)}.st53{fill:url(#SVGID_51_)}.st54{fill:url(#SVGID_52_)}.st55{fill:url(#SVGID_53_)}.st56{fill:url(#SVGID_54_)}.st57{fill:url(#SVGID_55_)}.st58{fill:url(#SVGID_56_)}.st59{fill:url(#SVGID_57_)}.st60{fill:url(#SVGID_58_)}
    </style>
    <linearGradient id="SVGID_1_" gradientUnits="userSpaceOnUse" x1="140.623" y1="73.114" x2="140.623" y2="207.52">
        <stop offset="0" style="stop-color:#d181ef"/>
        <stop offset="1" style="stop-color:#782ca7"/>
    </linearGradient>
    <path d="M235.4 78.6c-9.9-16.6-23.9-30.3-40.7-39.7-3.9-2.1-8-3.2-11.9-3.2-6.4 0-12.4 2.6-16.8 6.9-2.3 2.1-4.1 4.7-5.4 7.6-1.1 2.6-1.8 5.3-2 8.2 0 0 0-.1-.1-.1v79.1c0 5-1.9 9.5-5.1 12.9-1.5 1.7-3.4 3.1-5.5 4-2.1.9-4.3 1.5-6.7 1.6h-.7c-2.5 0-4.8-.5-6.9-1.4-3.2-1.4-5.9-3.6-7.9-6.5-1.9-2.8-3-6.3-3-10V58.4l-.1.1c-.2-2.9-.9-5.7-2-8.2-1.9-4.4-5.1-8.1-9-10.6-3.9-2.5-8.4-3.9-13.2-3.9-3.9 0-8.2 1-11.9 3.2-16.4 9.3-30.2 22.6-40.1 38.6-9.8 16-15.7 34.7-16.1 54.8-.1.9-.1 1.9-.1 2.7 0 20 5.4 38.9 14.9 55.2l6.9-21.8c-3.9-10.4-6.1-21.6-6.1-33.4v-2.3c.4-17.2 5.5-33.3 13.9-47C68.3 72 80.2 60.5 94.2 52.6c1.5-.8 2.8-1.1 4.2-1.1 2.1 0 4.4.9 5.9 2.4.9.8 1.5 1.6 1.9 2.7.4 1 .7 2.1.7 3.4v4c-8.2 3.9-15.7 9.1-22.1 15.4-14.2 14.2-23.1 34-23.1 55.8 0 11.6 2.5 22.6 7 32.4l-11.3 35c-.4 1.2-.6 2.5-.6 3.8 0 1.6.3 3.2.9 4.6.9 2.1 2.4 3.9 4.3 5.3 2 1.3 4.3 2.1 6.9 2.1.8 0 1.6-.1 2.5-.3l42-9c8.5 3.2 17.7 4.9 27.2 4.9 21.8 0 41.5-8.8 55.8-23.2 14.2-14.2 23.1-34 23.1-55.7 0-21.8-8.8-41.5-23.1-55.8-6.3-6.3-13.8-11.6-22.1-15.4V60c0-1.3.3-2.4.7-3.4.6-1.5 1.7-2.7 3.2-3.7 1.4-.9 3-1.4 4.6-1.4 1.4 0 2.7.3 4.1 1.1 14.4 8.2 26.5 19.9 35 34.1 8.5 14.2 13.3 30.7 13.3 48.5 0 26.1-10.6 49.8-27.7 66.8-17.2 17.2-40.8 27.7-66.9 27.7h-2.2c-9.2-.2-17.9-1.8-26.3-4.5l-26.2 5.7c3.3 1.8 6.5 3.5 10 5.1 13 5.7 27.1 9.2 42 9.5h2.7c30.5 0 58.2-12.4 78.1-32.3 20-19.9 32.3-47.5 32.3-78 0-20.7-5.7-40.1-15.6-56.6zm-50.2 12c11.5 11.4 18.5 27.1 18.5 44.6 0 17.4-7 33.1-18.5 44.6-11.4 11.4-27.1 18.4-44.6 18.4-8.3 0-16.3-1.6-23.6-4.5l-2.2-.9-40.3 8.6 11.2-35-1.5-2.8c-4.3-8.6-6.7-18.1-6.7-28.3 0-17.5 7-33.2 18.5-44.6 3.3-3.3 6.9-6.3 10.9-8.7v56.2c0 9.3 3.8 17.7 9.9 23.8 6.1 6.1 14.5 9.9 23.8 9.9h1.3c4.5-.2 8.9-1.3 12.8-3.2 5.9-2.7 10.8-7.1 14.2-12.5 3.4-5.4 5.4-11.8 5.4-18.6V81.9c3.9 2.4 7.6 5.4 10.9 8.7z" style="fill:url(#SVGID_1_)"/>
</svg>
