<?xml version="1.0" encoding="UTF-8" standalone="no"?>
<!-- Generator: Adobe Illustrator 22.0.0, SVG Export Plug-In . SVG Version: 6.00 Build 0)  -->

<svg
   version="1.1"
   x="0px"
   y="0px"
   viewBox="0 0 180.00001 180.00001"
   xml:space="preserve"
   id="svg5"
   sodipodi:docname="logo_status_bar.svg"
   inkscape:version="1.4.2 (ebf0e940d0, 2025-05-08)"
   width="180"
   height="180"
   inkscape:export-filename="logo_status_bar.png"
   inkscape:export-xdpi="96"
   inkscape:export-ydpi="96"
   xmlns:inkscape="http://www.inkscape.org/namespaces/inkscape"
   xmlns:sodipodi="http://sodipodi.sourceforge.net/DTD/sodipodi-0.dtd"
   xmlns="http://www.w3.org/2000/svg"
   xmlns:svg="http://www.w3.org/2000/svg"><defs
   id="defs5"><inkscape:path-effect
     effect="fillet_chamfer"
     id="path-effect5"
     is_visible="true"
     lpeversion="1"
     nodesatellites_param="F,0,0,1,0,0,0,1 @ F,0,0,1,0,0,0,1 @ F,0,0,1,0,0,0,1 @ F,0,0,1,0,0,0,1 @ F,0,0,1,0,0,0,1 @ F,0,0,1,0,0,0,1"
     radius="0"
     unit="px"
     method="auto"
     mode="F"
     chamfer_steps="1"
     flexible="false"
     use_knot_distance="true"
     apply_no_radius="true"
     apply_with_radius="true"
     only_selected="false"
     hide_knots="false" /><inkscape:path-effect
     effect="fillet_chamfer"
     id="path-effect4"
     is_visible="true"
     lpeversion="1"
     nodesatellites_param="F,0,0,1,0,0,0,1 @ F,0,0,1,0,10.875198,0,1 @ F,0,0,1,0,0,0,1 @ F,0,0,1,0,10.875198,0,1 @ F,0,0,1,0,0,0,1 @ F,0,0,1,0,16.130784,0,1 @ F,0,0,1,0,0,0,1 @ F,0,0,1,0,0,0,1 @ F,0,0,1,0,11.669794,0,1"
     radius="0"
     unit="px"
     method="auto"
     mode="F"
     chamfer_steps="1"
     flexible="false"
     use_knot_distance="true"
     apply_no_radius="true"
     apply_with_radius="true"
     only_selected="false"
     hide_knots="false" /><inkscape:path-effect
     effect="fillet_chamfer"
     id="path-effect3"
     is_visible="true"
     lpeversion="1"
     nodesatellites_param="F,0,0,1,0,0,0,1 @ F,0,0,1,0,0,0,1 @ F,0,0,1,0,0,0,1 @ F,0,0,1,0,1.5858367,0,1 @ F,0,0,1,0,0,0,1 @ F,0,0,1,0,3.3870358,0,1 @ F,0,1,1,0,3.3870358,0,1 @ F,0,0,1,0,0,0,1 @ F,0,0,1,0,0,0,1 @ F,0,0,1,0,0,0,1 @ F,0,0,1,0,0,0,1"
     radius="0"
     unit="px"
     method="auto"
     mode="F"
     chamfer_steps="1"
     flexible="false"
     use_knot_distance="true"
     apply_no_radius="true"
     apply_with_radius="true"
     only_selected="false"
     hide_knots="false" /><inkscape:path-effect
     effect="fillet_chamfer"
     id="path-effect2"
     is_visible="true"
     lpeversion="1"
     nodesatellites_param="F,0,0,1,0,0,0,1 @ F,0,0,1,0,0,0,1 @ F,0,0,1,0,0,0,1 @ F,0,0,1,0,0,0,1"
     radius="0"
     unit="px"
     method="auto"
     mode="F"
     chamfer_steps="1"
     flexible="false"
     use_knot_distance="true"
     apply_no_radius="true"
     apply_with_radius="true"
     only_selected="false"
     hide_knots="false" /><inkscape:path-effect
     effect="fillet_chamfer"
     id="path-effect1"
     is_visible="true"
     lpeversion="1"
     nodesatellites_param="F,0,0,1,0,0,0,1 @ F,0,0,1,0,0,0,1 @ F,0,0,1,0,0,0,1 @ F,0,0,1,0,0,0,1"
     radius="0"
     unit="px"
     method="auto"
     mode="F"
     chamfer_steps="1"
     flexible="false"
     use_knot_distance="true"
     apply_no_radius="true"
     apply_with_radius="true"
     only_selected="false"
     hide_knots="false" /><inkscape:path-effect
     effect="fillet_chamfer"
     id="path-effect4-3"
     is_visible="true"
     lpeversion="1"
     nodesatellites_param="F,0,0,1,0,0,0,1 @ F,0,0,1,0,10.875198,0,1 @ F,0,0,1,0,0,0,1 @ F,0,0,1,0,10.875198,0,1 @ F,0,0,1,0,0,0,1 @ F,0,0,1,0,16.130784,0,1 @ F,0,0,1,0,0,0,1 @ F,0,0,1,0,9.0892357,0,1 @ F,0,0,1,0,0,0,1 @ F,0,0,1,0,0,0,1 @ F,0,0,1,0,6.0957176,0,1"
     radius="0"
     unit="px"
     method="auto"
     mode="F"
     chamfer_steps="1"
     flexible="false"
     use_knot_distance="true"
     apply_no_radius="true"
     apply_with_radius="true"
     only_selected="false"
     hide_knots="false" /><inkscape:path-effect
     effect="fillet_chamfer"
     id="path-effect4-6"
     is_visible="true"
     lpeversion="1"
     nodesatellites_param="F,0,0,1,0,0,0,1 @ F,0,0,1,0,10.875198,0,1 @ F,0,0,1,0,0,0,1 @ F,0,0,1,0,10.875198,0,1 @ F,0,0,1,0,0,0,1 @ F,0,0,1,0,16.130784,0,1 @ F,0,0,1,0,0,0,1 @ F,0,0,1,0,9.0892357,0,1 @ F,0,0,1,0,0,0,1 @ F,0,0,1,0,0,0,1 @ F,0,0,1,0,6.0957176,0,1"
     radius="0"
     unit="px"
     method="auto"
     mode="F"
     chamfer_steps="1"
     flexible="false"
     use_knot_distance="true"
     apply_no_radius="true"
     apply_with_radius="true"
     only_selected="false"
     hide_knots="false" /><inkscape:path-effect
     effect="fillet_chamfer"
     id="path-effect4-36"
     is_visible="true"
     lpeversion="1"
     nodesatellites_param="F,0,0,1,0,0,0,1 @ F,0,0,1,0,10.875198,0,1 @ F,0,0,1,0,0,0,1 @ F,0,0,1,0,10.875198,0,1 @ F,0,0,1,0,0,0,1 @ F,0,0,1,0,16.130784,0,1 @ F,0,0,1,0,0,0,1 @ F,0,0,1,0,0,0,1 @ F,0,0,1,0,6.0957176,0,1"
     radius="0"
     unit="px"
     method="auto"
     mode="F"
     chamfer_steps="1"
     flexible="false"
     use_knot_distance="true"
     apply_no_radius="true"
     apply_with_radius="true"
     only_selected="false"
     hide_knots="false" /><inkscape:path-effect
     effect="fillet_chamfer"
     id="path-effect4-1"
     is_visible="true"
     lpeversion="1"
     nodesatellites_param="F,0,0,1,0,0,0,1 @ F,0,0,1,0,10.875198,0,1 @ F,0,0,1,0,0,0,1 @ F,0,0,1,0,10.875198,0,1 @ F,0,0,1,0,0,0,1 @ F,0,0,1,0,16.130784,0,1 @ F,0,0,1,0,0,0,1 @ F,0,0,1,0,0,0,1 @ F,0,0,1,0,11.669794,0,1"
     radius="0"
     unit="px"
     method="auto"
     mode="F"
     chamfer_steps="1"
     flexible="false"
     use_knot_distance="true"
     apply_no_radius="true"
     apply_with_radius="true"
     only_selected="false"
     hide_knots="false" /><inkscape:path-effect
     effect="fillet_chamfer"
     id="path-effect4-367"
     is_visible="true"
     lpeversion="1"
     nodesatellites_param="F,0,0,1,0,0,0,1 @ F,0,0,1,0,10.875198,0,1 @ F,0,0,1,0,0,0,1 @ F,0,0,1,0,10.875198,0,1 @ F,0,0,1,0,0,0,1 @ F,0,0,1,0,16.130784,0,1 @ F,0,0,1,0,0,0,1 @ F,0,0,1,0,0,0,1 @ F,0,0,1,0,11.669794,0,1"
     radius="0"
     unit="px"
     method="auto"
     mode="F"
     chamfer_steps="1"
     flexible="false"
     use_knot_distance="true"
     apply_no_radius="true"
     apply_with_radius="true"
     only_selected="false"
     hide_knots="false" /><inkscape:path-effect
     effect="fillet_chamfer"
     id="path-effect4-1-6"
     is_visible="true"
     lpeversion="1"
     nodesatellites_param="F,0,0,1,0,0,0,1 @ F,0,0,1,0,10.875198,0,1 @ F,0,0,1,0,0,0,1 @ F,0,0,1,0,10.875198,0,1 @ F,0,0,1,0,0,0,1 @ F,0,0,1,0,16.130784,0,1 @ F,0,0,1,0,0,0,1 @ F,0,0,1,0,0,0,1 @ F,0,0,1,0,11.669794,0,1"
     radius="0"
     unit="px"
     method="auto"
     mode="F"
     chamfer_steps="1"
     flexible="false"
     use_knot_distance="true"
     apply_no_radius="true"
     apply_with_radius="true"
     only_selected="false"
     hide_knots="false" /><inkscape:path-effect
     effect="fillet_chamfer"
     id="path-effect4-4"
     is_visible="true"
     lpeversion="1"
     nodesatellites_param="F,0,0,1,0,0,0,1 @ F,0,0,1,0,10.875198,0,1 @ F,0,0,1,0,0,0,1 @ F,0,0,1,0,10.875198,0,1 @ F,0,0,1,0,0,0,1 @ F,0,0,1,0,16.130784,0,1 @ F,0,0,1,0,0,0,1 @ F,0,0,1,0,0,0,1 @ F,0,0,1,0,11.669794,0,1"
     radius="0"
     unit="px"
     method="auto"
     mode="F"
     chamfer_steps="1"
     flexible="false"
     use_knot_distance="true"
     apply_no_radius="true"
     apply_with_radius="true"
     only_selected="false"
     hide_knots="false" /><inkscape:path-effect
     effect="fillet_chamfer"
     id="path-effect4-7"
     is_visible="true"
     lpeversion="1"
     nodesatellites_param="F,0,0,1,0,0,0,1 @ F,0,0,1,0,10.875198,0,1 @ F,0,0,1,0,0,0,1 @ F,0,0,1,0,10.875198,0,1 @ F,0,0,1,0,0,0,1 @ F,0,0,1,0,16.130784,0,1 @ F,0,0,1,0,0,0,1 @ F,0,0,1,0,0,0,1 @ F,0,0,1,0,11.669794,0,1"
     radius="0"
     unit="px"
     method="auto"
     mode="F"
     chamfer_steps="1"
     flexible="false"
     use_knot_distance="true"
     apply_no_radius="true"
     apply_with_radius="true"
     only_selected="false"
     hide_knots="false" /><inkscape:path-effect
     effect="fillet_chamfer"
     id="path-effect4-74"
     is_visible="true"
     lpeversion="1"
     nodesatellites_param="F,0,0,1,0,0,0,1 @ F,0,0,1,0,10.875198,0,1 @ F,0,0,1,0,0,0,1 @ F,0,0,1,0,10.875198,0,1 @ F,0,0,1,0,0,0,1 @ F,0,0,1,0,16.130784,0,1 @ F,0,0,1,0,0,0,1 @ F,0,0,1,0,0,0,1 @ F,0,0,1,0,11.669794,0,1"
     radius="0"
     unit="px"
     method="auto"
     mode="F"
     chamfer_steps="1"
     flexible="false"
     use_knot_distance="true"
     apply_no_radius="true"
     apply_with_radius="true"
     only_selected="false"
     hide_knots="false" /></defs><sodipodi:namedview
   id="namedview5"
   pagecolor="#ffa0a5"
   bordercolor="#000000"
   borderopacity="1"
   inkscape:showpageshadow="2"
   inkscape:pageopacity="0.0"
   inkscape:pagecheckerboard="0"
   inkscape:deskcolor="#d1d1d1"
   inkscape:zoom="1.5970696"
   inkscape:cx="305.55964"
   inkscape:cy="137.7523"
   inkscape:window-width="1908"
   inkscape:window-height="1037"
   inkscape:window-x="0"
   inkscape:window-y="0"
   inkscape:window-maximized="1"
   inkscape:current-layer="svg5"
   showguides="false" />
<style
   type="text/css"
   id="style1">
	.st0{fill:url(#SVGID_1_);}
	.st1{fill:#F094BE;}
	.st2{fill:#4D3F92;}
	.st3{fill:#FFFFFF;}
</style>


<path
   id="path6-3"
   style="baseline-shift:baseline;display:inline;overflow:visible;vector-effect:none;fill:#ffffff;enable-background:accumulate;stop-color:#000000;stop-opacity:1;opacity:1;fill-opacity:1"
   d="M 129.50391 45.341797 C 127.54144 45.249218 125.57244 45.27381 123.60742 45.416016 C 114.17533 46.098603 104.84511 49.501499 96.875 55.775391 C 94.891034 57.337206 93.058461 59.025494 91.380859 60.822266 C 91.465181 60.998537 91.546587 61.180703 91.625 61.367188 C 92.230645 62.807541 92.858387 64.238275 93.523438 65.654297 A 44.260869 44.260869 0 0 1 99.869141 59.542969 A 44.260869 44.260869 0 0 1 126.69727 50.0625 A 44.260869 44.260869 0 0 1 162.02344 66.943359 A 44.260869 44.260869 0 0 1 154.62305 129.09766 A 44.260869 44.260869 0 0 1 97.230469 126.84766 L 83.388672 128.84375 L 88.580078 115.85938 A 44.260869 44.260869 0 0 1 83.201172 98.685547 C 81.700046 99.508482 80.204863 100.23215 78.730469 100.85352 C 79.439552 106.0523 80.988433 111.19977 83.416016 116.0918 L 75.990234 134.66797 L 95.792969 131.8125 C 113.48065 146.63844 139.2804 147.29723 157.58008 132.89258 C 178.83352 116.16199 182.51746 85.234094 165.78711 63.980469 C 156.63756 52.357492 143.2412 45.98985 129.50391 45.341797 z M 129.09766 54.277344 C 127.49764 54.202524 125.89169 54.224087 124.28906 54.341797 C 116.59643 54.906803 108.97831 57.701951 102.44141 62.847656 C 99.835242 64.899274 97.544926 67.216049 95.583984 69.732422 C 99.401784 76.710015 104.60771 83.119638 113.35938 88.080078 C 118.95962 101.11766 92.11959 95.93154 88.992188 95.287109 C 88.946223 95.291464 88.903747 95.301056 88.865234 95.320312 C 88.808624 95.348619 88.865234 95.446476 88.865234 95.509766 C 88.738646 95.57306 88.610963 95.637882 88.484375 95.701172 C 88.361567 95.731872 88.194979 95.611662 88.105469 95.701172 C 88.015959 95.790683 88.162079 95.966855 88.105469 96.080078 C 88.067231 96.156553 87.751854 96.093809 87.494141 96.060547 C 87.392102 96.129777 87.289694 96.199344 87.1875 96.267578 C 87.478144 102.26786 89.124878 108.27626 92.220703 113.83398 L 93.263672 115.70508 L 90.134766 123.5332 L 98.478516 122.33008 L 100.05273 123.7832 C 114.54424 137.15581 136.51927 138.01678 152.01367 125.82031 C 169.44527 112.09825 172.43671 86.980576 158.71484 69.548828 C 151.21059 60.015923 140.29774 54.801085 129.09766 54.277344 z " /><path
   id="path52"
   style="fill:#ffffff;stroke:#ff0000;stroke-width:0;stroke-linecap:square"
   d="M 84.742188 44.353516 C 82.855377 44.370056 80.141113 45.116489 76.730469 46.953125 C 60.755552 55.555615 37.244311 66.511573 19.064453 74.576172 C 22.44953 76.5967 27.657938 76.503132 32.623047 73.900391 L 32.847656 73.783203 C 45.928374 67.511037 59.152498 61.539793 72.332031 55.478516 C 74.282504 54.534603 75.952139 54.316268 76.974609 55.095703 C 77.179861 55.058065 77.625847 55.231576 77.746094 55.111328 C 77.784754 55.072668 77.707434 54.985926 77.746094 54.947266 C 77.821916 54.871446 78.139251 54.996786 78.238281 54.947266 C 78.307444 54.912687 78.333184 54.817783 78.402344 54.783203 C 78.501377 54.733683 78.818711 54.859023 78.894531 54.783203 C 78.933191 54.744543 78.855871 54.657801 78.894531 54.619141 C 78.912123 54.601551 80.524896 54.619141 80.699219 54.619141 C 81.588867 54.619141 82.270509 54.455078 83.160156 54.455078 C 83.22664 54.455078 83.597418 54.497133 83.650391 54.457031 L 83.652344 54.455078 C 83.691004 54.416417 83.613684 54.329676 83.652344 54.291016 C 83.8063 54.13706 84.064341 54.414978 84.144531 54.455078 C 84.526139 54.645882 86.566431 54.253931 86.767578 54.455078 C 86.806238 54.493738 86.728918 54.580481 86.767578 54.619141 C 86.904264 54.755827 87.451205 54.482456 87.587891 54.619141 C 87.626551 54.657802 87.549231 54.744543 87.587891 54.783203 C 87.669902 54.865213 87.998068 54.701193 88.080078 54.783203 C 88.118738 54.821864 88.041418 54.908606 88.080078 54.947266 C 88.16209 55.029276 88.490256 54.865256 88.572266 54.947266 C 88.610926 54.985927 88.533606 55.072668 88.572266 55.111328 C 88.649587 55.188648 88.802591 55.062428 88.900391 55.111328 C 89.081713 55.20199 89.154685 55.244961 89.169922 55.263672 L 89.171875 55.265625 L 89.171875 55.267578 L 89.171875 55.269531 L 89.171875 55.271484 L 89.171875 55.273438 L 89.169922 55.273438 L 89.167969 55.275391 C 89.140206 55.283802 89.026633 55.261724 88.992188 55.292969 L 88.990234 55.294922 L 88.988281 55.296875 C 88.987792 55.297632 88.984793 55.30193 88.984375 55.302734 L 88.984375 55.304688 C 88.984109 55.305589 88.982609 55.309594 88.982422 55.310547 C 88.982317 55.311551 88.982442 55.315348 88.982422 55.316406 C 88.983911 55.340887 89.006124 55.381124 89.064453 55.439453 C 89.141774 55.516773 89.315258 55.362133 89.392578 55.439453 C 89.431238 55.478114 89.353918 55.564856 89.392578 55.603516 C 89.428523 55.639461 90.119911 56.049213 90.212891 56.095703 C 90.409719 56.194117 90.508251 56.489481 90.705078 56.587891 C 90.75398 56.612341 90.830481 56.549231 90.869141 56.587891 C 90.976674 56.695421 90.951023 57.161971 91.033203 57.244141 C 91.115215 57.326154 91.279318 57.326193 91.361328 57.408203 C 91.416002 57.462878 91.470721 57.845721 91.525391 57.900391 C 91.564052 57.939051 91.650793 57.861731 91.689453 57.900391 C 91.715317 57.935875 91.810707 58.185707 91.853516 58.228516 C 91.969983 58.344984 92.316563 58.527501 92.345703 58.556641 C 92.400377 58.611315 92.455086 58.994158 92.509766 59.048828 C 92.518654 59.057716 92.993053 59.368053 93.001953 59.376953 C 93.079273 59.454274 92.924633 59.627758 93.001953 59.705078 C 93.109345 59.81247 93.379167 59.807163 93.492188 60.033203 C 93.516638 60.082106 93.453528 60.158606 93.492188 60.197266 C 93.530848 60.235926 93.61759 60.158606 93.65625 60.197266 C 93.69491 60.235927 93.6318 60.312428 93.65625 60.361328 C 93.797001 60.642831 93.949324 60.922665 94.123047 61.1875 C 94.112304 61.144645 94.095691 61.099629 94.113281 61.064453 C 94.152953 60.98511 94.205317 60.930736 94.267578 60.894531 C 92.309182 56.833251 90.916101 52.665859 89.744141 48.533203 C 88.880777 45.488747 87.383022 44.601424 85.5 44.390625 C 85.264622 44.364275 85.01173 44.351155 84.742188 44.353516 z " /><path
   id="path52-5"
   style="fill:#ffffff;stroke:#ff0000;stroke-width:0;stroke-linecap:square"
   d="m 88.333984,51.669922 c -1.772388,0.954432 -3.549186,1.881783 -5.332031,2.787109 0.05163,-0.0011 0.105182,-0.002 0.158203,-0.002 0.06648,0 0.437262,0.04205 0.490235,0.002 l 0.002,-0.002 c 0.03866,-0.03866 -0.03866,-0.125402 0,-0.164062 0.153956,-0.153956 0.411997,0.123962 0.492187,0.164062 0.381608,0.190804 2.4219,-0.201147 2.623047,0 0.03866,0.03866 -0.03866,0.125403 0,0.164063 0.136686,0.136686 0.683627,-0.136685 0.820313,0 0.03866,0.03866 -0.03866,0.125402 0,0.164062 0.05561,0.05561 0.225073,-0.0023 0.353515,-0.01953 -1.452634,-0.581536 -2.310431,-1.533167 0.392578,-3.09375 z m -0.242187,3.152344 c -0.0038,0.03429 -0.0281,0.07745 -0.02148,0.107422 6.93e-4,0.0022 0.0028,0.0077 0.0039,0.0098 6.55e-4,9.87e-4 0.0031,0.0049 0.0039,0.0059 l 0.002,0.002 c 0.05172,0.05172 0.202163,0.0069 0.326172,-0.01367 -0.106603,-0.03506 -0.211595,-0.07289 -0.314453,-0.111328 z m 0.490234,0.166015 c -0.0048,0.03529 -0.02894,0.07999 -0.01953,0.109375 4.43e-4,10e-4 0.0034,0.0049 0.0039,0.0059 6.47e-4,9.65e-4 0.0032,0.0049 0.0039,0.0059 l 0.002,0.002 c 0.07732,0.07732 0.230325,-0.0489 0.328125,0 0.181322,0.09066 0.254294,0.133633 0.269531,0.152344 l 0.002,0.002 v 0.002 0.002 0.002 0.002 h -0.002 l -0.002,0.002 c -0.02776,0.0084 -0.141336,-0.01367 -0.175781,0.01758 l -0.002,0.002 -0.002,0.002 c -4.89e-4,7.57e-4 -0.0035,0.0051 -0.0039,0.0059 v 0.002 c -2.66e-4,9.01e-4 -0.0018,0.0049 -0.002,0.0059 -1.05e-4,10e-4 2e-5,0.0048 0,0.0059 0.0015,0.02448 0.0237,0.06472 0.08203,0.123047 0.07732,0.07732 0.250805,-0.07732 0.328125,0 0.03866,0.03866 -0.03866,0.125403 0,0.164063 0.03259,0.03259 0.603607,0.372883 0.779297,0.470703 0.319967,-0.14703 0.639067,-0.294276 0.958984,-0.441407 0.0071,-0.0022 0.01565,-0.0055 0.01953,-0.0078 l 0.002,-0.002 0.002,-0.002 v -0.002 l 0.002,-0.002 v -0.002 h -0.002 v -0.002 -0.002 h -0.002 l -0.002,-0.002 c -0.08554,-0.081 -1.378619,-0.254075 -2.56836,-0.621094 z M 66.441406,62.287109 C 57.311114,66.359933 47.46,71.173891 37.454133,75.612502 c 0.45937,1.565809 1.460095,1.759195 3.458745,1.803348 0.073,-0.07788 2.348322,-1.430956 2.389856,-1.472491 0.07732,-0.07732 0.250805,0.07732 0.328125,0 0.03866,-0.03866 -0.03866,-0.125402 0,-0.164062 0.161111,-0.161123 0.95804,-0.06984 1.146485,-0.164063 0.239216,-0.119607 0.262475,-0.262475 0.328125,-0.328125 0.153211,-0.15321 0.667101,-0.174914 0.820312,-0.328125 0.03866,-0.03866 -0.03866,-0.125402 0,-0.164062 0.10753,-0.107533 0.57407,-0.08189 0.65625,-0.164063 0.03866,-0.03866 -0.02445,-0.115162 0,-0.164062 0.0595,-0.118999 0.09189,-0.165125 0.115235,-0.177735 0.0022,-9.02e-4 0.0077,-0.0035 0.0098,-0.0039 0.001,-5.5e-5 0.0049,-6e-5 0.0059,0 9.7e-4,1.68e-4 0.0049,-2.66e-4 0.0059,0 0.03351,0.01248 0.06768,0.07944 0.191406,0.01758 0.181322,-0.09066 0.254295,-0.133632 0.269532,-0.152343 h 0.002 v -0.002 -0.002 h 0.002 v -0.002 -0.002 h -0.002 v -0.002 h -0.002 l -0.002,-0.002 h -0.002 c -0.03292,-0.0059 -0.14076,0.01242 -0.173828,-0.01758 l -0.002,-0.002 -0.002,-0.002 c -4.89e-4,-7.58e-4 -0.0035,-0.0051 -0.0039,-0.0059 v -0.002 c -2.67e-4,-9.02e-4 -0.0018,-0.0049 -0.002,-0.0059 -1.05e-4,-0.001 1.9e-5,-0.0048 0,-0.0059 0.0015,-0.02448 0.0237,-0.06472 0.08203,-0.123047 0.07732,-0.07732 0.250805,0.07732 0.328125,0 0.03866,-0.03866 -0.03866,-0.125402 0,-0.164062 0.09507,-0.09507 0.56118,-0.233055 0.65625,-0.328125 0.03866,-0.03866 -0.03866,-0.125403 0,-0.164063 0.07732,-0.07732 0.250805,0.07732 0.328125,0 0.03866,-0.03866 -0.03866,-0.125402 0,-0.164062 0.113644,-0.113643 0.706668,-0.05042 0.820312,-0.164063 0.03866,-0.03866 -0.03866,-0.125402 0,-0.164062 0.08201,-0.08201 0.410178,0.08201 0.492188,0 0.03866,-0.03866 -0.03866,-0.125403 0,-0.164063 0.07732,-0.07732 0.250805,0.07732 0.328125,0 0.03866,-0.03866 -0.03866,-0.125402 0,-0.164062 0.07732,-0.07732 0.230325,0.0489 0.328125,0 0.239216,-0.119607 0.262475,-0.262475 0.328125,-0.328125 0.05467,-0.05468 0.437517,-0.109393 0.492187,-0.164063 0.03866,-0.03866 -0.03866,-0.125402 0,-0.164062 0.07732,-0.07732 0.250805,0.07732 0.328125,0 0.0058,-0.0058 0.105663,-0.433788 0.164063,-0.492188 0.07582,-0.07582 0.393157,0.04952 0.492187,0 0.239216,-0.119607 0.262475,-0.262475 0.328125,-0.328125 0.07582,-0.07582 0.391205,0.04952 0.490235,0 0.12899,-0.0645 0.58084,-0.252715 0.65625,-0.328125 0.03866,-0.03866 -0.03866,-0.125402 0,-0.164062 0.146213,-0.146213 0.482053,-0.07696 0.65625,-0.164063 0.138316,-0.06916 0.189809,-0.258965 0.328125,-0.328125 0.174197,-0.08709 0.510037,-0.01785 0.65625,-0.164062 0.03866,-0.03866 -0.03866,-0.125403 0,-0.164063 0.07541,-0.07541 0.52726,-0.263635 0.65625,-0.328125 0.0978,-0.0489 0.250805,0.07732 0.328125,0 0.03866,-0.03866 -0.03866,-0.125402 0,-0.164062 0.07732,-0.07732 0.250805,0.07732 0.328125,0 0.03866,-0.03866 -0.03866,-0.125403 0,-0.164063 0.06503,-0.06503 0.87225,-0.378109 0.984375,-0.490234 0.03866,-0.03866 -0.03866,-0.125403 0,-0.164062 0.03866,-0.03866 0.125402,0.03866 0.164062,0 0.03866,-0.03866 -0.03866,-0.125403 0,-0.164063 0.03866,-0.03866 0.125403,0.03866 0.164063,0 0.03866,-0.03866 -0.03866,-0.125403 0,-0.164063 0.03866,-0.03866 0.115162,0.02445 0.164062,0 0.196828,-0.09841 0.29536,-0.393777 0.492188,-0.492187 0.09685,-0.04842 0.60184,-0.273715 0.65625,-0.328125 0.08201,-0.08201 0.08205,-0.246115 0.164062,-0.328125 0.08201,-0.08201 0.246115,-0.08205 0.328125,-0.164063 0.03866,-0.03866 -0.03866,-0.125402 0,-0.164062 0.07732,-0.07732 0.250805,0.07732 0.328125,0 0.08201,-0.08201 0.08205,-0.246115 0.164063,-0.328125 0.06873,-0.06873 0.392777,-0.114362 0.492187,-0.164063 0.173756,-0.08688 0.152416,-0.241245 0.326172,-0.328124 0.0489,-0.02445 0.125402,0.03866 0.164063,0 0.03866,-0.03866 -0.03866,-0.125403 0,-0.164063 0.08665,-0.08665 0.733662,-0.405537 0.820312,-0.492187 0.03866,-0.03866 -0.03866,-0.125403 0,-0.164063 0.185812,-0.185812 0.962626,-0.306376 1.148438,-0.492187 0.0089,-0.0089 0.319225,-0.483288 0.328124,-0.492188 0.16071,-0.160709 0.910234,-0.373086 1.148438,-0.492188 0.303526,-0.151763 0.735483,-0.531804 0.984375,-0.65625 0.0489,-0.02445 0.125403,0.03866 0.164063,0 0.03866,-0.03866 -0.03866,-0.125402 0,-0.164062 0.09507,-0.09507 0.561179,-0.233055 0.65625,-0.328125 0.01138,-0.01138 0.01315,-0.02474 0.01172,-0.04102 z"
   sodipodi:nodetypes="ccscsscssssccccccsccccccsscccccccccccccccssscccccccccccccccccsssssssssccccscccccccccccccccccccsssssssssssssssssssssssssssssssssssssssssssssssssssssssssssscsscs" /><path
   d="m 55.902344,76.734375 -0.253907,0.125 a 3.6249704,5.137994 60.927865 0 0 -0.425781,0.230469 z"
   style="baseline-shift:baseline;display:inline;overflow:visible;opacity:1;vector-effect:none;fill:#ff0000;stroke-linecap:round;enable-background:accumulate;stop-color:#000000;stop-opacity:1"
   id="path50" /><path
   d="m 59.814453,74.794922 -0.04297,-0.08984 -3.86914,2.029297 z"
   style="baseline-shift:baseline;display:inline;overflow:visible;opacity:1;vector-effect:none;fill:#ff0000;stroke-linecap:square;enable-background:accumulate;stop-color:#000000;stop-opacity:1"
   id="path49" /><path
   d="m 35.529297,80.515625 a 13.585303,19.255662 60.927865 0 1 -2.416016,-3.068359 13.585303,19.255662 60.927865 0 1 -3.25,1.410156 3.6249704,5.137994 60.927865 0 0 0.105469,0.339844 3.6249704,5.137994 60.927865 0 0 5.560547,1.318359 z"
   style="baseline-shift:baseline;display:inline;overflow:visible;opacity:1;vector-effect:none;fill:#ffffff;stroke-linecap:round;enable-background:accumulate;stop-color:#000000;stop-opacity:1;fill-opacity:1"
   id="path45" /><path
   id="path40"
   style="baseline-shift:baseline;display:inline;overflow:visible;opacity:1;vector-effect:none;fill:#ffffff;stroke-linecap:square;enable-background:accumulate;stop-color:#000000;stop-opacity:1;fill-opacity:1"
   d="M 87.521484 36.28125 C 83.064514 36.28585 78.160593 37.945496 73.376953 40.521484 C 56.456201 49.633307 28.701463 62.55098 10.492188 70.486328 L 5.3046875 72.748047 L 7.0800781 76.347656 C 10.702001 83.693951 21.141815 85.985521 31.552734 82.273438 C 31.860196 82.613566 32.186635 82.93635 32.53125 83.242188 C 32.623007 83.104103 32.798041 82.838677 32.804688 82.832031 C 32.882008 82.754711 33.055492 82.909351 33.132812 82.832031 C 33.171472 82.793371 33.094152 82.706629 33.132812 82.667969 C 33.248477 82.552305 33.949506 82.259621 34.117188 82.175781 C 34.29851 82.085119 34.371482 82.044102 34.386719 82.025391 L 34.386719 82.023438 L 34.388672 82.021484 L 34.388672 82.019531 L 34.388672 82.017578 L 34.388672 82.015625 L 34.386719 82.013672 L 34.384766 82.011719 C 34.357003 82.003307 34.241476 82.025386 34.207031 81.994141 L 34.205078 81.992188 L 34.205078 81.990234 C 34.204589 81.989477 34.201589 81.985179 34.201172 81.984375 L 34.199219 81.982422 C 34.198952 81.98152 34.199405 81.977515 34.199219 81.976562 C 34.199114 81.975558 34.197285 81.971761 34.197266 81.970703 C 34.198755 81.946222 34.222921 81.905985 34.28125 81.847656 C 34.363261 81.765643 34.527365 81.765604 34.609375 81.683594 C 34.691388 81.601582 34.691428 81.437479 34.773438 81.355469 C 34.812098 81.316809 34.89884 81.394129 34.9375 81.355469 C 34.97616 81.316808 34.89884 81.230066 34.9375 81.191406 C 35.014821 81.114086 35.188305 81.268726 35.265625 81.191406 C 35.304285 81.152745 35.226965 81.066004 35.265625 81.027344 C 35.304286 80.988684 35.391027 81.066004 35.429688 81.027344 C 35.468347 80.988684 35.391027 80.901941 35.429688 80.863281 C 35.468348 80.824621 35.55509 80.901941 35.59375 80.863281 C 35.657403 80.799627 35.678906 80.737588 35.705078 80.664062 A 13.585303 19.255662 60.927865 0 1 35.529297 80.515625 A 3.6249704 5.137994 60.927865 0 1 29.96875 79.197266 A 3.6249704 5.137994 60.927865 0 1 29.863281 78.857422 A 13.585303 19.255662 60.927865 0 1 10.054688 74.193359 C 28.801299 66.02385 57.108818 52.862002 74.773438 43.349609 C 78.954206 41.098266 82.841298 39.872021 86.078125 39.861328 C 90.239759 39.847578 93.32602 41.844499 94.578125 46.259766 C 95.437664 49.290736 96.386595 52.296769 97.566406 55.240234 C 98.912569 54.218376 100.29657 53.276196 101.71094 52.414062 C 100.74345 49.8914 99.933616 47.29816 99.181641 44.646484 C 97.863563 39.998584 94.337153 36.935254 89.402344 36.382812 C 88.785493 36.313764 88.158194 36.280588 87.521484 36.28125 z " /><path
   id="path162"
   style="fill:#ffffff;stroke:#ff0000;stroke-width:0;stroke-linecap:square;fill-opacity:1"
   d="M 83.707031 59.259766 C 81.197487 59.285426 77.442308 60.7066 73.355469 63.597656 C 57.900679 74.530477 33.995478 89.426903 16.632812 99.75 C 18.000325 100.57503 19.693384 101.07499 21.757812 101.11328 C 25.209309 101.17728 29.407778 99.945923 33.273438 97.275391 L 35.71875 95.585938 L 35.757812 95.646484 L 73.445312 71.46875 A 1.794575 1.794575 0 0 1 75.923828 72.011719 A 1.794575 1.794575 0 0 1 75.382812 74.490234 L 37.755859 98.630859 C 39.23204 100.4553 41.616789 101.48101 44.759766 101.53906 C 46.006936 101.56208 47.352645 101.41579 48.744141 101.09375 L 82.748047 78.9375 A 1.75 1.75 0 0 1 85.167969 79.447266 A 1.75 1.75 0 0 1 84.658203 81.869141 L 59.988281 97.945312 L 60.349609 98.498047 C 60.369809 98.528887 60.390739 98.561387 60.412109 98.591797 C 60.561305 98.8041 60.740809 99.004122 60.947266 99.193359 C 61.050493 99.287979 61.159856 99.380655 61.277344 99.46875 C 62.804687 100.61399 65.53427 101.18708 69.427734 100.63281 C 74.305507 99.938438 80.489452 97.471525 86.414062 93.316406 L 86.414062 93.318359 C 86.560152 93.215868 86.714221 93.104837 86.875 92.992188 L 87.916016 92.263672 L 89.158203 92.535156 C 89.158203 92.535156 96.609643 94.127759 102.99219 94.076172 C 106.18347 94.050372 109.0528 93.454628 110.14258 92.748047 C 110.68747 92.394756 110.79507 92.208232 110.87695 91.859375 C 110.93635 91.606518 110.73763 90.835199 110.52539 90.085938 C 98.542194 82.870524 92.955628 72.766934 88.777344 62.830078 C 87.567159 59.951997 86.216446 59.234108 83.707031 59.259766 z " /><path
   id="path160"
   style="baseline-shift:baseline;display:inline;overflow:visible;opacity:1;vector-effect:none;fill:#ffffff;stroke-linecap:square;enable-background:accumulate;stop-color:#000000;stop-opacity:1;fill-opacity:1"
   d="m 83.603516,52.169922 c -4.557221,0.0466 -9.282505,2.173334 -14.109375,5.58789 C 52.906439,69.492064 25.822165,86.361058 7.8847656,96.935547 l -2.7089844,1.595703 1.7226563,2.63086 c 2.7297187,4.16978 7.5341645,6.20725 12.5761715,6.30078 4.279259,0.0794 8.836075,-1.21946 13.142579,-3.67773 2.789197,2.66018 6.61778,4.04267 10.652343,4.11718 4.323946,0.0799 8.929824,-1.24957 13.275391,-3.75976 3.275055,2.74516 8.093008,3.48834 13.197266,2.76172 6.086837,-0.8665 12.954314,-3.68929 19.578124,-8.220706 1.698088,0.353373 7.727978,1.553456 14.341798,1.499996 3.8035,-0.0307 7.55645,-0.359146 10.61133,-2.33984 1.52744,-0.990347 2.87146,-2.595384 3.33789,-4.582031 0.46642,-1.986648 0.10099,-4.10392 -0.83008,-6.271485 l -0.39844,-0.927734 -0.8789,-0.498047 C 103.71951,78.885017 98.739773,69.761501 94.441406,59.539062 92.461615,54.830697 88.160867,52.123319 83.603516,52.169922 Z m 0.203125,3.818359 c 3.477766,-0.03556 6.247183,1.642314 7.818359,5.378907 4.257847,10.126077 9.57178,19.81913 21.73438,26.71289 2.10516,4.900894 -0.37304,7.225686 -4.45313,8.185547 -0.58287,0.137123 -1.19836,0.247132 -1.83789,0.332031 -7.524962,0.998686 -18.371094,-1.373047 -18.371094,-1.373047 -0.153287,0.107552 -0.306682,0.215997 -0.460938,0.324219 -4.432794,3.10886 -9.001181,5.351072 -13.238281,6.677732 -1.412364,0.44222 -2.788038,0.78252 -4.109375,1.01953 -5.959884,1.06889 -10.8185,0.0322 -12.984375,-3.275387 -8.69122,6.004127 -19.049756,5.812627 -23.136719,-0.427734 -8.691836,6.004041 -20.664914,6.692191 -24.751024,0.450842 17.50399,-10.318982 45.448846,-27.594169 61.72368,-39.107092 4.402105,-3.114078 8.588641,-4.862878 12.066407,-4.898438 z"
   sodipodi:nodetypes="sscccscccsccsscccsssscscccsccccss" /></svg>
