<svg id="Layer_1" data-name="Layer 1" xmlns="http://www.w3.org/2000/svg" xmlns:xlink="http://www.w3.org/1999/xlink"
     viewBox="300 550 900 350">
    <defs>
        <style>
            .cls-1{fill:url(#linear-gradient);}.cls-2{fill:url(#linear-gradient-2);}.cls-3{fill:url(#linear-gradient-3);}.cls-4{font-size:300px;fill:#101010;font-family:Montserrat-Bold,
            Montserrat;font-weight:700;}.cls-5{letter-spacing:-0.01em;}.cls-6{fill:url(#linear-gradient-4);}
        </style>
        <linearGradient id="linear-gradient" x1="1130.37" y1="651.74" x2="1198.95" y2="583.16"
                        gradientUnits="userSpaceOnUse">
            <stop offset="0" stop-color="#7fbf42"/>
            <stop offset="0" stop-color="#6c3"/>
            <stop offset="0.55" stop-color="#079147"/>
            <stop offset="1" stop-color="#1a5221"/>
        </linearGradient>
        <linearGradient id="linear-gradient-2" x1="1139.88" y1="660.07" x2="1212.8" y2="587.15"
                        xlink:href="#linear-gradient"/>
        <linearGradient id="linear-gradient-3" x1="1136" y1="663.96" x2="1194.22" y2="605.73"
                        xlink:href="#linear-gradient"/>
        <linearGradient id="linear-gradient-4" x1="1187.11" y1="686.24" x2="1105.52" y2="827.56"
                        gradientUnits="userSpaceOnUse">
            <stop offset="0" stop-color="#7fbf42"/>
            <stop offset="0" stop-color="#6c3"/>
            <stop offset="0.56" stop-color="#079147"/>
            <stop offset="0.68" stop-color="#0b833f"/>
            <stop offset="0.92" stop-color="#166029"/>
            <stop offset="1" stop-color="#1a5221"/>
        </linearGradient>
    </defs>
    <path class="cls-1"
          d="M1183.68,621.89c1.13-15.25-4.88-29.71-4.88-29.71s-1.16,9.39-30.17,21.72c-30.89,13.12-11.46,42.65-11.46,42.65s-2.25-26.21,21.32-37.14c22.13-10.26,20.16-14.49,20.16-14.49s3.19,3.61-17.55,16.67c-.79.49-1.54,1-2.26,1.52a36.27,36.27,0,0,1,14.1-2.81A36.71,36.71,0,0,1,1183.68,621.89Z"/>
    <path class="cls-2"
          d="M1143.55,656.55c30.32-2.57,39-19,40.13-34.66a36.71,36.71,0,0,0-10.74-1.59,36.27,36.27,0,0,0-14.1,2.81A36.92,36.92,0,0,0,1143.55,656.55Z"/>
    <path class="cls-3"
          d="M1143.55,656.55c30.32-2.57,39-19,40.13-34.66a36.71,36.71,0,0,0-10.74-1.59,36.27,36.27,0,0,0-14.1,2.81A36.92,36.92,0,0,0,1143.55,656.55Z"/>
    <text class="cls-4" transform="translate(316.18 837.6)">St
        <tspan class="cls-5" x="321.9" y="0">a</tspan>
        <tspan x="503.99" y="0">w</tspan>
    </text>
    <path class="cls-6" d="M1122.91,676.2h46.8V837.6h-46.8Z"/>
</svg>