<?xml version="1.0" encoding="UTF-8"?>
<!DOCTYPE svg PUBLIC "-//W3C//DTD SVG 1.1//EN" "http://www.w3.org/Graphics/SVG/1.1/DTD/svg11.dtd">
<svg xmlns="http://www.w3.org/2000/svg" version="1.1" width="8334px" height="8334px" style="shape-rendering:geometricPrecision; text-rendering:geometricPrecision; image-rendering:optimizeQuality; fill-rule:evenodd; clip-rule:evenodd" xmlns:xlink="http://www.w3.org/1999/xlink">
<g><path style="opacity:0.999" fill="#dddf5d" d="M 2899.5,2875.5 C 2980.35,2875.82 3039.52,2911.49 3077,2982.5C 3087.55,3005.69 3093.21,3030.02 3094,3055.5C 3094.67,3195.17 3094.67,3334.83 3094,3474.5C 3093.77,3484.16 3092.6,3493.66 3090.5,3503C 3152.31,3513.78 3213.64,3527.12 3274.5,3543C 3327.71,3557.07 3379.04,3576.07 3428.5,3600C 3459.03,3615.19 3486.2,3635.03 3510,3659.5C 3523,3674.48 3532.66,3691.48 3539,3710.5C 3549.52,3742.6 3557.86,3775.27 3564,3808.5C 3597.19,3993.31 3608.19,4179.31 3597,4366.5C 3591.39,4453.68 3581.39,4540.34 3567,4626.5C 3559.88,4670.65 3548.55,4713.65 3533,4755.5C 3523.36,4775.6 3510.19,4793.1 3493.5,4808C 3461.35,4833.75 3426.02,4854.42 3387.5,4870C 3344.76,4887.14 3301.09,4901.47 3256.5,4913C 3309.19,5076.08 3361.69,5239.24 3414,5402.5C 3415.82,5431.71 3402.98,5451.21 3375.5,5461C 3359,5464.77 3343.67,5462.1 3329.5,5453C 3140.79,5296.62 2951.79,5140.62 2762.5,4985C 2678.45,4990.63 2594.28,4994.46 2510,4996.5C 2346.54,4993.26 2183.7,4981.43 2021.5,4961C 1916.14,4948.2 1812.48,4927.2 1710.5,4898C 1659.29,4883.16 1610.62,4862.49 1564.5,4836C 1539.75,4821.02 1518.25,4802.18 1500,4779.5C 1488.97,4762.11 1480.64,4743.44 1475,4723.5C 1458.85,4664.39 1447.18,4604.39 1440,4543.5C 1423.86,4423.02 1416.52,4302.02 1418,4180.5C 1421.7,4053.2 1434.7,3926.87 1457,3801.5C 1463.02,3768.44 1471.69,3736.11 1483,3704.5C 1487.86,3691.11 1494.52,3678.78 1503,3667.5C 1526.44,3640.72 1553.94,3619.22 1585.5,3603C 1624.65,3582.95 1665.32,3566.62 1707.5,3554C 1798.66,3527.4 1891.33,3507.9 1985.5,3495.5C 1984.34,3488.89 1983.51,3482.22 1983,3475.5C 1982.33,3372.83 1982.33,3270.17 1983,3167.5C 1986.92,3106.32 2013.75,3058.15 2063.5,3023C 2085.75,3008.25 2110.09,2998.58 2136.5,2994C 2390.92,2954.04 2645.25,2914.54 2899.5,2875.5 Z"/></g>
<g><path style="opacity:0.991" fill="#dde05d" d="M 4975.5,2993.5 C 5003.99,3027.51 5031.66,3062.35 5058.5,3098C 5000.7,3134.74 4942.7,3171.24 4884.5,3207.5C 4865.15,3182.81 4846.15,3157.81 4827.5,3132.5C 4876.85,3086.14 4926.19,3039.81 4975.5,2993.5 Z"/></g>
<g><path style="opacity:1" fill="#1f1f1f" d="M 2807.5,3498.5 C 2807.5,3497.5 2807.5,3496.5 2807.5,3495.5C 2628.17,3495.5 2448.83,3495.5 2269.5,3495.5C 2269.5,3502.5 2269.5,3509.5 2269.5,3516.5C 2267.54,3700.21 2265.71,3883.88 2264,4067.5C 2256.09,4142.38 2219.59,4198.55 2154.5,4236C 2079.39,4274.23 2004.39,4273.89 1929.5,4235C 1860.52,4194.22 1824.52,4133.72 1821.5,4053.5C 1824.75,3972.44 1861.42,3911.6 1931.5,3871C 1986.84,3842.26 2044.84,3835.59 2105.5,3851C 2113.02,3853.01 2120.35,3855.51 2127.5,3858.5C 2127.56,3859.04 2127.89,3859.38 2128.5,3859.5C 2129.49,3855.22 2129.83,3850.88 2129.5,3846.5C 2132.15,3629.17 2133.99,3411.84 2135,3194.5C 2140.37,3173.79 2153.54,3161.29 2174.5,3157C 2409.82,3118.67 2645.16,3080.33 2880.5,3042C 2904.84,3038.43 2923,3047.27 2935,3068.5C 2936,3072.17 2937,3075.83 2938,3079.5C 2937.91,3116.83 2937.91,3154.17 2938,3191.5C 2942.72,3431.67 2947.55,3671.84 2952.5,3912C 2949.66,4001.03 2908.66,4065.7 2829.5,4106C 2760.86,4135.5 2692.86,4134.17 2625.5,4102C 2552.24,4062.01 2513.57,4000.18 2509.5,3916.5C 2513.57,3832.82 2552.24,3770.98 2625.5,3731C 2673.39,3707.05 2723.72,3700.05 2776.5,3710C 2788.17,3713.17 2799.84,3716.34 2811.5,3719.5C 2810.45,3645.83 2809.11,3572.16 2807.5,3498.5 Z"/></g>
<g><path style="opacity:0.996" fill="#dde05d" d="M 6522.5,3239.5 C 6648.38,3234.71 6752.22,3279.71 6834,3374.5C 6912.93,3476.16 6935.93,3589.49 6903,3714.5C 6872.22,3812.27 6812.39,3886.44 6723.5,3937C 6633.03,3984.08 6538.7,3993.75 6440.5,3966C 6330.87,3930.71 6252.37,3860.54 6205,3755.5C 6160.99,3645.05 6166.33,3537.05 6221,3431.5C 6288.74,3316.68 6389.24,3252.68 6522.5,3239.5 Z M 6534.5,3382.5 C 6615.93,3381.31 6681.43,3412.64 6731,3476.5C 6779.92,3548.77 6787.25,3625.11 6753,3705.5C 6714.54,3781.85 6652.7,3825.35 6567.5,3836C 6470.38,3840.43 6396.88,3801.26 6347,3718.5C 6317.77,3663.74 6311.43,3606.41 6328,3546.5C 6357.48,3459.02 6417.32,3405.52 6507.5,3386C 6516.64,3384.73 6525.64,3383.57 6534.5,3382.5 Z"/></g>
<g><path style="opacity:0.996" fill="#dde05d" d="M 3944.5,3248.5 C 4047.83,3248.33 4151.17,3248.5 4254.5,3249C 4356.33,3259.96 4432.83,3309.46 4484,3397.5C 4531.83,3491.16 4531.17,3584.49 4482,3677.5C 4457.88,3718.79 4425.71,3752.46 4385.5,3778.5C 4411.83,3840.5 4438.17,3902.5 4464.5,3964.5C 4413.17,3965.83 4361.83,3965.83 4310.5,3964.5C 4290.24,3916.81 4269.57,3869.31 4248.5,3822C 4195.5,3821.76 4142.5,3821.93 4089.5,3822.5C 4089.5,3870.17 4089.5,3917.83 4089.5,3965.5C 4041.17,3965.5 3992.83,3965.5 3944.5,3965.5C 3944.5,3726.5 3944.5,3487.5 3944.5,3248.5 Z M 4089.5,3392.5 C 4140.17,3392.33 4190.83,3392.5 4241.5,3393C 4305.42,3400.69 4347.92,3434.86 4369,3495.5C 4383.49,3555.7 4367.65,3606.2 4321.5,3647C 4298.93,3664.78 4273.26,3675.11 4244.5,3678C 4192.83,3678.5 4141.17,3678.67 4089.5,3678.5C 4089.5,3583.17 4089.5,3487.83 4089.5,3392.5 Z"/></g>
<g><path style="opacity:0.995" fill="#dde05d" d="M 4860.5,3248.5 C 4955.34,3243.82 5034.84,3276.15 5099,3345.5C 5143.22,3397.13 5166.89,3457.13 5170,3525.5C 5170.5,3672.17 5170.67,3818.83 5170.5,3965.5C 5122.17,3965.5 5073.83,3965.5 5025.5,3965.5C 5025.5,3917.83 5025.5,3870.17 5025.5,3822.5C 4930.17,3822.5 4834.83,3822.5 4739.5,3822.5C 4739.5,3870.17 4739.5,3917.83 4739.5,3965.5C 4691.5,3965.5 4643.5,3965.5 4595.5,3965.5C 4595.33,3819.5 4595.5,3673.5 4596,3527.5C 4598.88,3454.43 4624.88,3391.1 4674,3337.5C 4725.13,3284.94 4787.29,3255.28 4860.5,3248.5 Z M 4873.5,3392.5 C 4933.64,3391.81 4978.81,3417.14 5009,3468.5C 5017.76,3485.12 5023.1,3502.79 5025,3521.5C 5025.5,3573.83 5025.67,3626.17 5025.5,3678.5C 4930.17,3678.5 4834.83,3678.5 4739.5,3678.5C 4739.33,3628.83 4739.5,3579.17 4740,3529.5C 4745.58,3467.48 4777.08,3424.65 4834.5,3401C 4847.34,3396.8 4860.34,3393.97 4873.5,3392.5 Z"/></g>
<g><path style="opacity:0.998" fill="#dde05d" d="M 5285.5,3248.5 C 5365.83,3248.33 5446.17,3248.5 5526.5,3249C 5644.61,3259.94 5736.77,3314.11 5803,3411.5C 5856.32,3496.42 5872.66,3588.09 5852,3686.5C 5827.7,3784.34 5773.2,3860.17 5688.5,3914C 5639.25,3943.64 5585.92,3960.64 5528.5,3965C 5447.5,3965.5 5366.5,3965.67 5285.5,3965.5C 5285.5,3726.5 5285.5,3487.5 5285.5,3248.5 Z M 5430.5,3392.5 C 5458.17,3392.33 5485.84,3392.5 5513.5,3393C 5586.22,3399.09 5642.72,3432.26 5683,3492.5C 5719.5,3553.45 5725.83,3617.45 5702,3684.5C 5673.23,3753.27 5622.73,3797.1 5550.5,3816C 5539.29,3818.51 5527.96,3820.17 5516.5,3821C 5487.84,3821.5 5459.17,3821.67 5430.5,3821.5C 5430.5,3678.5 5430.5,3535.5 5430.5,3392.5 Z"/></g>
<g><path style="opacity:1" fill="#dde05d" d="M 5946.5,3248.5 C 5994.5,3248.5 6042.5,3248.5 6090.5,3248.5C 6090.5,3487.5 6090.5,3726.5 6090.5,3965.5C 6042.5,3965.5 5994.5,3965.5 5946.5,3965.5C 5946.5,3726.5 5946.5,3487.5 5946.5,3248.5 Z"/></g>
<g><path style="opacity:1" fill="#7e7f3e" d="M 2807.5,3498.5 C 2628.71,3496.5 2449.71,3495.84 2270.5,3496.5C 2270.82,3503.35 2270.49,3510.02 2269.5,3516.5C 2269.5,3509.5 2269.5,3502.5 2269.5,3495.5C 2448.83,3495.5 2628.17,3495.5 2807.5,3495.5C 2807.5,3496.5 2807.5,3497.5 2807.5,3498.5 Z"/></g>
<g><path style="opacity:1" fill="#fdfdfd" d="M 2796.5,3805.5 C 2826.52,3803.72 2846.02,3817.05 2855,3845.5C 2857.21,3871.93 2846.04,3890.09 2821.5,3900C 2798.96,3905.96 2779.79,3900.46 2764,3883.5C 2747.18,3856.93 2751.01,3833.77 2775.5,3814C 2782.31,3810.46 2789.31,3807.62 2796.5,3805.5 Z"/></g>
<g><path style="opacity:1" fill="#78793d" d="M 2129.5,3846.5 C 2129.83,3850.88 2129.49,3855.22 2128.5,3859.5C 2127.89,3859.38 2127.56,3859.04 2127.5,3858.5C 2128.17,3854.5 2128.83,3850.5 2129.5,3846.5 Z"/></g>
<g><path style="opacity:1" fill="#fdfdfd" d="M 2112.5,3942.5 C 2133.31,3941.99 2149.47,3950.32 2161,3967.5C 2173.86,3998.26 2165.36,4021.1 2135.5,4036C 2104.97,4044.98 2082.47,4035.48 2068,4007.5C 2060.96,3979.26 2070.46,3958.76 2096.5,3946C 2101.9,3944.5 2107.23,3943.34 2112.5,3942.5 Z"/></g>
<g><path style="opacity:1" fill="#1f1f1f" d="M 2872.5,4245.5 C 2923.75,4246.6 2955.59,4271.93 2968,4321.5C 2968.67,4431.17 2968.67,4540.83 2968,4650.5C 2965.11,4678.04 2951.28,4697.88 2926.5,4710C 2908.94,4717.18 2890.61,4721.18 2871.5,4722C 2567.83,4722.11 2264.16,4721.11 1960.5,4719C 1914.11,4693.35 1897.94,4654.85 1912,4603.5C 1920.55,4581.96 1935.05,4565.79 1955.5,4555C 2241.88,4456.87 2528.55,4359.54 2815.5,4263C 2825.92,4259.19 2836.26,4255.19 2846.5,4251C 2855.11,4248.28 2863.78,4246.44 2872.5,4245.5 Z"/></g>
<g><path style="opacity:1" fill="#1f1f1f" d="M 3089.5,4303.5 C 3114.85,4303.75 3130.68,4316.08 3137,4340.5C 3137.67,4436.5 3137.67,4532.5 3137,4628.5C 3131.23,4651.78 3116.39,4663.78 3092.5,4664.5C 3071.64,4663.82 3057.14,4653.82 3049,4634.5C 3047.86,4629.92 3047.19,4625.25 3047,4620.5C 3046.02,4526.81 3046.35,4433.14 3048,4339.5C 3054.03,4318.3 3067.86,4306.3 3089.5,4303.5 Z"/></g>
<g><path style="opacity:1" fill="#1f1f1f" d="M 3228.5,4303.5 C 3252.66,4303.83 3268.49,4315.5 3276,4338.5C 3276.67,4434.83 3276.67,4531.17 3276,4627.5C 3270.31,4651.18 3255.31,4663.51 3231,4664.5C 3211.53,4664.04 3197.53,4655.04 3189,4637.5C 3187.19,4633.02 3186.19,4628.36 3186,4623.5C 3185.02,4528.14 3185.35,4432.81 3187,4337.5C 3193.8,4317.52 3207.64,4306.19 3228.5,4303.5 Z"/></g>
<g><path style="opacity:0.997" fill="#dde05d" d="M 5582.5,4306.5 C 5647.89,4301.96 5705.22,4320.96 5754.5,4363.5C 5810.15,4315.35 5874.49,4297.52 5947.5,4310C 6028.34,4327.85 6084.51,4375.02 6116,4451.5C 6123.99,4472.8 6128.66,4494.8 6130,4517.5C 6130.5,4701.83 6130.67,4886.17 6130.5,5070.5C 6080.17,5070.5 6029.83,5070.5 5979.5,5070.5C 5979.67,4888.83 5979.5,4707.17 5979,4525.5C 5971.53,4483.87 5946.7,4461.2 5904.5,4457.5C 5869.13,4459.72 5845.3,4477.38 5833,4510.5C 5831.49,4515.39 5830.49,4520.39 5830,4525.5C 5829.5,4707.17 5829.33,4888.83 5829.5,5070.5C 5779.17,5070.5 5728.83,5070.5 5678.5,5070.5C 5678.99,4887.15 5678.49,4703.82 5677,4520.5C 5668.07,4481.41 5643.57,4460.41 5603.5,4457.5C 5563.87,4460.3 5539.37,4480.97 5530,4519.5C 5528.51,4703.15 5528.01,4886.81 5528.5,5070.5C 5478.17,5070.5 5427.83,5070.5 5377.5,5070.5C 5377.33,4884.5 5377.5,4698.5 5378,4512.5C 5388.7,4423.22 5434.86,4360.06 5516.5,4323C 5537.83,4314.33 5559.83,4308.83 5582.5,4306.5 Z"/></g>
<g><path style="opacity:0.996" fill="#dde05d" d="M 3948.5,4316.5 C 3998.83,4316.5 4049.17,4316.5 4099.5,4316.5C 4099.5,4416.83 4099.5,4517.17 4099.5,4617.5C 4199.5,4617.5 4299.5,4617.5 4399.5,4617.5C 4399.5,4517.17 4399.5,4416.83 4399.5,4316.5C 4450.17,4316.5 4500.83,4316.5 4551.5,4316.5C 4551.5,4567.83 4551.5,4819.17 4551.5,5070.5C 4500.83,5070.5 4450.17,5070.5 4399.5,5070.5C 4399.5,4970.17 4399.5,4869.83 4399.5,4769.5C 4299.5,4769.5 4199.5,4769.5 4099.5,4769.5C 4099.5,4869.83 4099.5,4970.17 4099.5,5070.5C 4049.17,5070.5 3998.83,5070.5 3948.5,5070.5C 3948.5,4819.17 3948.5,4567.83 3948.5,4316.5 Z"/></g>
<g><path style="opacity:0.995" fill="#dde05d" d="M 4725.5,4316.5 C 4897.83,4316.5 5070.17,4316.5 5242.5,4316.5C 5242.5,4367.17 5242.5,4417.83 5242.5,4468.5C 5120.83,4468.5 4999.17,4468.5 4877.5,4468.5C 4877.5,4518.17 4877.5,4567.83 4877.5,4617.5C 4959.83,4617.5 5042.17,4617.5 5124.5,4617.5C 5124.5,4668.17 5124.5,4718.83 5124.5,4769.5C 5042.17,4769.5 4959.83,4769.5 4877.5,4769.5C 4877.5,4819.17 4877.5,4868.83 4877.5,4918.5C 4999.17,4918.5 5120.83,4918.5 5242.5,4918.5C 5242.5,4969.17 5242.5,5019.83 5242.5,5070.5C 5070.17,5070.5 4897.83,5070.5 4725.5,5070.5C 4725.5,4819.17 4725.5,4567.83 4725.5,4316.5 Z"/></g>
<g><path style="opacity:0.997" fill="#dde05d" d="M 6299.5,4316.5 C 6405.17,4316.33 6510.83,4316.5 6616.5,4317C 6726.44,4326.19 6809.28,4378.02 6865,4472.5C 6904.37,4546.81 6912.7,4624.48 6890,4705.5C 6859.59,4797.91 6799.42,4862.75 6709.5,4900C 6681.77,4910.55 6653.11,4916.88 6623.5,4919C 6565.83,4919.5 6508.17,4919.67 6450.5,4919.5C 6450.5,4969.83 6450.5,5020.17 6450.5,5070.5C 6400.17,5070.5 6349.83,5070.5 6299.5,5070.5C 6299.5,4819.17 6299.5,4567.83 6299.5,4316.5 Z M 6450.5,4468.5 C 6505.5,4468.33 6560.5,4468.5 6615.5,4469C 6680.89,4478.73 6724.05,4514.89 6745,4577.5C 6759.22,4636.12 6745.06,4686.62 6702.5,4729C 6677.39,4751.22 6648.05,4764.22 6614.5,4768C 6559.83,4768.5 6505.17,4768.67 6450.5,4768.5C 6450.5,4668.5 6450.5,4568.5 6450.5,4468.5 Z"/></g>
<g><path style="opacity:1" fill="#fefefe" d="M 2107.5,4629.5 C 2079.83,4628.83 2052.17,4628.17 2024.5,4627.5C 2304.36,4532.38 2584.36,4437.54 2864.5,4343C 2868.54,4341.26 2872.54,4339.43 2876.5,4337.5C 2877.5,4435.16 2877.83,4532.83 2877.5,4630.5C 2826.51,4631.15 2775.51,4631.48 2724.5,4631.5C 2518.83,4630.81 2313.17,4630.14 2107.5,4629.5 Z"/></g>
<g><path style="opacity:1" fill="#8e8e8e" d="M 2024.5,4627.5 C 2052.17,4628.17 2079.83,4628.83 2107.5,4629.5C 2078.83,4629.67 2050.16,4629.5 2021.5,4629C 2022.24,4627.96 2023.24,4627.46 2024.5,4627.5 Z"/></g>
</svg>
