<?xml version="1.0" encoding="UTF-8"?>
<svg version="1.1" xmlns="http://www.w3.org/2000/svg" width="567" height="567">
<path d="M0 0 C11.89243821 10.07695451 22.86268809 21.09368767 31 34.4375 C31.6084375 35.37335938 32.216875 36.30921875 32.84375 37.2734375 C40.23832142 49.11123824 45.29931697 62.76291479 48 76.4375 C48.20367187 77.35402344 48.40734375 78.27054687 48.6171875 79.21484375 C51.84253755 96.0264286 50.90216048 113.84498003 47 130.4375 C46.77521973 131.40888916 46.77521973 131.40888916 46.54589844 132.39990234 C42.2172565 150.80352334 34.60097391 165.92230945 24 181.4375 C23.29746094 182.50613281 22.59492188 183.57476562 21.87109375 184.67578125 C20.08415907 187.31328192 18.27744934 189.22512064 16 191.4375 C14.95184463 192.64020911 13.91103979 193.84933866 12.875 195.0625 C-3.50584924 213.79831276 -23.49791319 227.99425362 -46 238.4375 C-47.093125 238.95957031 -48.18625 239.48164063 -49.3125 240.01953125 C-64.61023302 246.98808992 -81.39071498 251.89599302 -98 254.4375 C-98.64582031 254.53901367 -99.29164063 254.64052734 -99.95703125 254.74511719 C-124.09845647 258.40325858 -151.06792247 258.35959971 -174.5 250.890625 C-182.00054765 249.53115074 -189.6922571 253.09138808 -196.6875 255.4375 C-197.88415283 255.83831787 -199.08080566 256.23913574 -200.3137207 256.65209961 C-210.87510051 260.26473911 -220.97366115 264.54905805 -231 269.4375 C-231.7331543 269.79231445 -232.46630859 270.14712891 -233.22167969 270.51269531 C-240.86176897 274.22477099 -248.3836687 278.10179567 -255.765625 282.30859375 C-257.85905776 283.36628967 -259.7086926 283.98028958 -262 284.4375 C-260.99415279 281.08467596 -259.84810978 278.15466994 -258.1875 275.0625 C-250.39051881 259.72940317 -246.76553379 240.47680045 -246 223.4375 C-245.86722656 222.50679687 -245.73445313 221.57609375 -245.59765625 220.6171875 C-245.13973626 216.11326208 -245.14385916 213.54138238 -247.984375 209.87890625 C-249.72195618 208.19134635 -251.49836191 206.54297483 -253.30859375 204.93359375 C-257.24007471 201.2874162 -260.30956683 197.07003394 -263 192.4375 C-263 191.7775 -263 191.1175 -263 190.4375 C-263.66 190.4375 -264.32 190.4375 -265 190.4375 C-282.33118858 158.90908504 -289.53007489 126.25240087 -279.5234375 90.96484375 C-276.18843907 80.08062161 -271.75893144 70.24549458 -266 60.4375 C-265.35804688 59.28636719 -264.71609375 58.13523437 -264.0546875 56.94921875 C-262.00306023 53.36197804 -259.71801525 49.98293588 -257.3125 46.625 C-256.88259766 46.02260498 -256.45269531 45.42020996 -256.00976562 44.79956055 C-252.57096236 40.05987765 -248.82778388 35.69202037 -244.8125 31.42578125 C-242.84389679 29.36650012 -242.84389679 29.36650012 -241 26.4375 C-240.34 26.4375 -239.68 26.4375 -239 26.4375 C-239 25.7775 -239 25.1175 -239 24.4375 C-238.34 24.4375 -237.68 24.4375 -237 24.4375 C-237 23.7775 -237 23.1175 -237 22.4375 C-233.53181884 19.20826833 -229.73669607 16.34938469 -226 13.4375 C-225.17508057 12.79361328 -225.17508057 12.79361328 -224.33349609 12.13671875 C-214.4158091 4.4375 -214.4158091 4.4375 -212 4.4375 C-212 3.7775 -212 3.1175 -212 2.4375 C-208.7110068 0.53700117 -205.41831842 -1.35700767 -202.125 -3.25 C-201.2071875 -3.78044922 -200.289375 -4.31089844 -199.34375 -4.85742188 C-179.23316939 -16.39976216 -157.17666067 -25.68859408 -134 -28.5625 C-132.14761719 -28.81966797 -132.14761719 -28.81966797 -130.2578125 -29.08203125 C-126.5074651 -29.59816817 -122.75676237 -30.09535818 -119 -30.5625 C-118.30076416 -30.65225098 -117.60152832 -30.74200195 -116.88110352 -30.83447266 C-76.88973621 -35.68853692 -32.27243077 -24.3957697 0 0 Z " fill="#1673BA" transform="translate(398,89.5625)"/>
<path d="M0 0 C1.23359253 -0.00571014 2.46718506 -0.01142029 3.73815918 -0.01730347 C5.11291494 -0.01854892 6.48767081 -0.019674 7.86242676 -0.02069092 C9.30460742 -0.02531841 10.74678685 -0.03034298 12.18896484 -0.03573608 C16.11501201 -0.0488753 20.04104205 -0.05530888 23.96710777 -0.05974674 C26.42188624 -0.06267714 28.87666004 -0.06678206 31.33143616 -0.07125092 C39.01692416 -0.08493453 46.70240148 -0.09459497 54.38790083 -0.09845281 C63.24892752 -0.10292528 72.10979933 -0.12043168 80.97077894 -0.1494534 C87.82442522 -0.17111771 94.6780281 -0.18115974 101.53170824 -0.18249393 C105.62218711 -0.18353926 109.71252056 -0.18938798 113.80296326 -0.20731354 C117.65746103 -0.2238748 121.51170538 -0.22591098 125.3662262 -0.21717453 C126.77463462 -0.21640824 128.18305711 -0.22069257 129.59143066 -0.23063278 C138.84359029 -0.29205792 147.59766183 -0.1790951 155.33312988 5.39044189 C157.81175179 9.02575403 157.7878466 10.79256654 157.20812988 15.14044189 C155.68119141 22.51839238 152.01276581 27.47820428 147.20812988 33.14044189 C146.56617676 33.97446533 145.92422363 34.80848877 145.26281738 35.66778564 C132.1228845 51.48067065 111.07918398 63.31500837 94.56408691 75.41387939 C90.54553459 78.35887442 86.53257256 81.31145134 82.52062988 84.26544189 C81.72898437 84.84825928 80.93733887 85.43107666 80.1217041 86.03155518 C75.13174227 89.70983454 70.16221581 93.41401595 65.20812988 97.14044189 C57.07579084 103.25752579 48.88308253 109.29119365 40.6842041 115.31866455 C38.12932328 117.19842403 35.57663054 119.08112015 33.02453613 120.96466064 C32.17609131 121.59066162 31.32764648 122.2166626 30.45349121 122.8616333 C28.83979282 124.05236936 27.2263325 125.24342817 25.61315918 126.43487549 C24.5077478 127.25012695 24.5077478 127.25012695 23.38000488 128.08184814 C22.74159668 128.55308105 22.10318848 129.02431396 21.44543457 129.50982666 C19.49409423 130.93202244 17.53368811 132.33969508 15.56829834 133.74235535 C14.93879902 134.19170409 14.3092997 134.64105284 13.66072464 135.10401821 C13.18136837 135.44603803 12.7020121 135.78805784 12.20812988 136.14044189 C13.15981064 136.14264174 13.15981064 136.14264174 14.13071728 136.14488602 C29.57124375 136.18194414 45.01150706 136.24094535 60.45184612 136.32434464 C67.91870673 136.36414736 75.38546175 136.39653351 82.85241699 136.41143799 C89.36093263 136.42444821 95.86921609 136.45139644 102.37760097 136.49505496 C105.82353091 136.51768437 109.26917433 136.53335172 112.71518517 136.53232574 C116.56292644 136.53144139 120.41008209 136.56167598 124.25769043 136.59454346 C125.39920563 136.58951309 126.54072083 136.58448273 127.71682739 136.57929993 C135.47650805 136.68209563 135.47650805 136.68209563 139.45503235 139.17456055 C140.03355453 139.82330139 140.61207672 140.47204224 141.20812988 141.14044189 C140.78213182 145.49170782 137.93628403 147.61328155 134.83312988 150.32794189 C134.29510742 150.80843994 133.75708496 151.28893799 133.20275879 151.78399658 C103.22725288 178.36058049 103.22725288 178.36058049 87.84585571 178.40786743 C86.5870459 178.4163974 85.32823608 178.42492737 84.03128052 178.43371582 C82.64898669 178.4330169 81.26669296 178.4320939 79.88439941 178.43096924 C78.41867736 178.4369581 76.95295845 178.44376447 75.48724365 178.45132446 C71.51609711 178.46895431 67.54503682 178.47367854 63.57385492 178.47495604 C61.09025207 178.47637979 58.60667101 178.48065361 56.12307358 178.48595047 C47.45137902 178.50444008 38.77974585 178.51262234 30.10803223 178.51104736 C22.03614547 178.50984593 13.96452609 178.53095121 5.89270699 178.56253469 C-1.04762171 178.58871915 -7.98786319 178.59941377 -14.9282409 178.59813654 C-19.06893392 178.59762759 -23.20938917 178.60327389 -27.35003281 178.62449265 C-31.24568835 178.64391206 -35.14088015 178.64397458 -39.03655243 178.62945938 C-40.46192989 178.62737482 -41.88733666 178.63205119 -43.31266403 178.6441803 C-58.97117748 178.76874431 -58.97117748 178.76874431 -65.33622551 172.65772057 C-69.43398427 168.0110013 -70.27760486 163.95899188 -70.19030762 157.95294189 C-68.59468724 146.68973923 -59.11054206 137.39208799 -50.47937012 130.75372314 C-45.64366934 127.13114094 -40.72374059 123.63030565 -35.79187012 120.14044189 C-34.50711863 119.21981784 -33.22318367 118.29805255 -31.94030762 117.37481689 C-29.11501951 115.34432477 -26.28143992 113.32588458 -23.44372559 111.31280518 C-20.63965644 109.32268693 -17.84049435 107.32570697 -15.04187012 105.32794189 C-14.47210449 104.92140381 -13.90233887 104.51486572 -13.31530762 104.0960083 C-8.52249089 100.67200098 -3.75060167 97.21943412 1.02062988 93.76544189 C7.58229827 89.01664649 14.18095948 84.32431645 20.80627441 79.66485596 C26.79849772 75.44435508 32.74290704 71.15972276 38.67980957 66.86187744 C44.26795983 62.81673297 49.87263665 58.79585283 55.49021912 54.79170227 C59.20504727 52.14321303 62.91773613 49.49173559 66.63000488 46.83966064 C67.26728516 46.38442017 67.90456543 45.92917969 68.56115723 45.46014404 C70.11016776 44.35360416 71.65915166 43.24702701 73.20812988 42.14044189 C71.97673279 42.13457565 70.74533569 42.12870941 69.47662354 42.12266541 C57.88141788 42.06549436 46.28640079 41.99276216 34.69138718 41.90472698 C28.73002214 41.85996727 22.76872634 41.82072342 16.80725098 41.79400635 C11.05590993 41.76802939 5.30483451 41.72766661 -0.44634247 41.67725563 C-2.64237926 41.66054896 -4.83846203 41.64905842 -7.03455353 41.64282799 C-10.10661274 41.63322833 -13.17798653 41.60521822 -16.24987793 41.57281494 C-17.16121994 41.57425003 -18.07256195 41.57568512 -19.01152039 41.5771637 C-22.58959568 41.52366049 -25.11890938 41.47906573 -28.34527588 39.85560608 C-30.43504899 37.37785254 -30.51475228 35.01700782 -30.36608887 31.85919189 C-28.34341372 22.28244424 -20.59878461 9.61518189 -12.79968262 3.60528564 C-10.91687012 2.51544189 -10.91687012 2.51544189 -7.79187012 1.14044189 C-5.09963007 -0.20567813 -3.0157239 0.00833272 0 0 Z " fill="#FAFAFB" transform="translate(231.7918701171875,108.85955810546875)"/>
<path d="M0 0 C0.70253906 0.00386719 1.40507812 0.00773437 2.12890625 0.01171875 C2.83144531 0.00785156 3.53398437 0.00398438 4.2578125 0 C9.50229247 0.01010497 9.50229247 0.01010497 10.62890625 1.13671875 C10.72383347 3.47925657 10.75450416 5.79217979 10.74243164 8.13500977 C10.74257767 8.86667358 10.74272369 9.5983374 10.74287415 10.35217285 C10.74217492 12.78168659 10.7343821 15.21112458 10.7265625 17.640625 C10.72469835 19.32071389 10.72327444 21.00080332 10.72227478 22.68089294 C10.71844932 27.11145518 10.70861881 31.54198485 10.6975708 35.97253418 C10.68735728 40.49014851 10.68277729 45.00776809 10.67773438 49.52539062 C10.66699656 58.39584998 10.64939954 67.26627656 10.62890625 76.13671875 C5.67890625 76.13671875 0.72890625 76.13671875 -4.37109375 76.13671875 C-4.70109375 74.48671875 -5.03109375 72.83671875 -5.37109375 71.13671875 C-6.42296875 71.92046875 -7.47484375 72.70421875 -8.55859375 73.51171875 C-14.85844418 78.20572495 -20.67558825 78.95275222 -28.37109375 78.13671875 C-36.51277997 76.16333472 -42.31126372 72.13050663 -46.6875 64.98828125 C-50.47872428 57.03595715 -50.95883469 47.63893619 -48.5234375 39.19921875 C-45.42633739 32.31210799 -40.47359773 27.45095176 -33.93359375 23.76171875 C-26.28591126 21.89643034 -18.94262202 21.60140398 -11.37109375 24.13671875 C-9.68146575 25.44083254 -8.01180419 26.77157231 -6.37109375 28.13671875 C-6.37633057 27.32404541 -6.38156738 26.51137207 -6.38696289 25.67407227 C-6.40766369 22.01579553 -6.42073178 18.35753108 -6.43359375 14.69921875 C-6.44197266 13.41982422 -6.45035156 12.14042969 -6.45898438 10.82226562 C-6.46220703 9.60732422 -6.46542969 8.39238281 -6.46875 7.140625 C-6.47398682 6.01470947 -6.47922363 4.88879395 -6.48461914 3.72875977 C-6.28061727 -0.9290636 -4.13992807 0.00797674 0 0 Z M-30.37109375 39.13671875 C-33.58058142 43.92337733 -33.88170153 49.14265198 -33.0625 54.73046875 C-31.87083552 58.87773044 -29.93567706 61.68839326 -26.37109375 64.13671875 C-21.74922393 65.75563141 -18.21450595 65.38559448 -13.55859375 64.01171875 C-10.10880562 61.98243162 -8.53799014 60.47966574 -6.37109375 57.13671875 C-5.77793711 53.73236704 -5.77793711 53.73236704 -5.93359375 50.13671875 C-5.93488281 48.94046875 -5.93617188 47.74421875 -5.9375 46.51171875 C-6.40046888 42.90806911 -7.19929464 41.01693805 -9.37109375 38.13671875 C-16.14561561 33.56785517 -24.29345724 33.45998175 -30.37109375 39.13671875 Z " fill="#1A2B60" transform="translate(244.37109375,397.86328125)"/>
<path d="M0 0 C18.15 0 36.3 0 55 0 C56.29376578 2.58753156 56.16832397 4.54958985 56.1875 7.4375 C56.20167969 8.40558594 56.21585938 9.37367188 56.23046875 10.37109375 C56 13 56 13 54 16 C53.34 16 52.68 16 52 16 C51.79375 16.680625 51.5875 17.36125 51.375 18.0625 C49.9421906 21.12350189 48.12778156 23.29603136 45.890625 25.8046875 C43.57077558 28.49839695 41.40700786 31.30099241 39.25 34.125 C38.6144519 34.95668701 38.6144519 34.95668701 37.96606445 35.80517578 C37.08911049 36.95379037 36.21257002 38.10272077 35.33642578 39.25195312 C33.99954747 41.00059191 32.65544407 42.74340817 31.30859375 44.484375 C30.8693457 45.05269043 30.43009766 45.62100586 29.97753906 46.20654297 C28.76006157 47.78115334 27.54215377 49.35543099 26.32421875 50.9296875 C23.8189981 54.23910503 21.41254988 57.62243017 19 61 C31.21 61 43.42 61 56 61 C56 65.29 56 69.58 56 74 C36.53 74 17.06 74 -3 74 C-3 59.38845554 -3 59.38845554 1.4375 54.8125 C2.26121094 53.93207031 3.08492188 53.05164063 3.93359375 52.14453125 C4.61550781 51.43683594 5.29742187 50.72914063 6 50 C6.33 49.34 6.66 48.68 7 48 C7.66 48 8.32 48 9 48 C9.20625 47.319375 9.4125 46.63875 9.625 45.9375 C11.06712798 42.85659022 12.91015447 40.66780877 15.1640625 38.14453125 C18.14913166 34.65771642 20.82983464 30.94641137 23.55859375 27.2578125 C26.65148322 23.13066078 29.83362864 19.07104889 33 15 C22.11 14.67 11.22 14.34 0 14 C0 9.38 0 4.76 0 0 Z " fill="#16275B" transform="translate(82,400)"/>
<path d="M0 0 C4.95 0 9.9 0 15 0 C15.64794329 3.88765976 16.14904951 7.30657434 16.31640625 11.1796875 C16.35830078 12.1078125 16.40019531 13.0359375 16.44335938 13.9921875 C16.48267578 14.94351562 16.52199219 15.89484375 16.5625 16.875 C16.60568359 17.84953125 16.64886719 18.8240625 16.69335938 19.828125 C16.79882274 22.21862802 16.90094175 24.60922444 17 27 C18.47146484 26.02933594 18.47146484 26.02933594 19.97265625 25.0390625 C24.14328821 22.66693037 27.70053476 22.3045126 32.4375 22.375 C33.56019287 22.38430542 33.56019287 22.38430542 34.70556641 22.39379883 C40.0509817 22.60100809 43.64703105 23.56420073 47.62109375 27.3515625 C52.94294776 33.71366559 53.15085488 39.50606445 53.09765625 47.58203125 C53.0962413 48.39621017 53.09482635 49.2103891 53.09336853 50.04924011 C53.08779317 52.63703156 53.07524524 55.22473492 53.0625 57.8125 C53.05748181 59.57226437 53.05291946 61.33203011 53.04882812 63.09179688 C53.03868481 67.39459209 53.0191047 71.697198 53 76 C47.72 76 42.44 76 37 76 C36.93941406 73.50824219 36.87882812 71.01648438 36.81640625 68.44921875 C36.75460159 66.0365093 36.69122022 63.62384608 36.62768555 61.21118164 C36.58436833 59.53414013 36.54269093 57.85705542 36.50268555 56.17993164 C36.44490515 53.76956159 36.3812332 51.3594083 36.31640625 48.94921875 C36.29969376 48.19912033 36.28298126 47.44902191 36.26576233 46.67619324 C36.17655767 43.54322008 35.99763547 40.9929064 35 38 C31.29927143 35.7571342 28.20132156 35.90309258 24.0625 36.3203125 C20.97264739 37.33855938 19.29276516 38.67731105 17 41 C16.49477529 43.79426061 16.30070567 46.00078648 16.328125 48.79296875 C16.30900055 49.91291985 16.30900055 49.91291985 16.28948975 51.05549622 C16.25322686 53.43321902 16.25048093 55.80952509 16.25 58.1875 C16.22840941 60.57565894 16.20000259 62.96360256 16.16766357 65.35163879 C16.149854 66.83617496 16.13961284 68.3208242 16.13751221 69.8054657 C16.10851609 74.89148391 16.10851609 74.89148391 15 76 C12.48863896 76.09975032 10.01096585 76.13882183 7.5 76.125 C6.79746094 76.12886719 6.09492188 76.13273437 5.37109375 76.13671875 C0.12661378 76.12661378 0.12661378 76.12661378 -1 75 C-1.10159331 73.14026746 -1.13083382 71.27656684 -1.1328125 69.4140625 C-1.13474609 68.19267578 -1.13667969 66.97128906 -1.13867188 65.71289062 C-1.13453918 64.35025906 -1.129969 62.98762877 -1.125 61.625 C-1.12411377 60.93913818 -1.12322754 60.25327637 -1.12231445 59.54663086 C-1.09268572 39.69310141 -0.52965693 19.84523095 0 0 Z " fill="#1A91D8" transform="translate(332,398)"/>
<path d="M0 0 C0.1799928 5.21979128 -0.02905192 9.07262981 -2 14 C-3.4589426 13.52269162 -4.91713496 13.04308958 -6.375 12.5625 C-7.18710937 12.29566406 -7.99921875 12.02882813 -8.8359375 11.75390625 C-11 11 -11 11 -13 10 C-25.25715302 8.96968832 -25.25715302 8.96968832 -36 14 C-42.3634978 20.72099768 -44.35370386 27.0038488 -44.203125 36.1640625 C-43.90940786 40.26480569 -43.04225986 44.02638429 -42 48 C-41.34 48 -40.68 48 -40 48 C-37.375 50.375 -37.375 50.375 -35 53 C-35 53.66 -35 54.32 -35 55 C-34.236875 55.144375 -33.47375 55.28875 -32.6875 55.4375 C-30 56 -30 56 -27 57 C-20.01424165 57.55290629 -13.87254468 57.07210956 -7.25390625 54.75390625 C-5 54 -5 54 0 53 C0 57.62 0 62.24 0 67 C-11.70621868 72.85310934 -24.11321922 73.91934417 -36.875 70.4375 C-46.08924356 67.21534121 -53.02553452 61.39740957 -58 53 C-62.96644511 42.30753582 -64.02323125 29.48123931 -60.0390625 18.2734375 C-55.53383454 8.41613422 -48.31684638 0.92673855 -38.1875 -3.125 C-26.0552357 -6.45542549 -11.05001426 -6.57027875 0 0 Z " fill="#198DD5" transform="translate(324,404)"/>
<path d="M0 0 C1.22493164 -0.03673828 1.22493164 -0.03673828 2.47460938 -0.07421875 C8.36654168 -0.10238735 12.76250033 1.08088257 17.6875 4.375 C24.55234088 11.42537712 25.78870503 19.08470133 25.8203125 28.51953125 C25.6875 30.375 25.6875 30.375 24.6875 31.375 C22.0212397 31.46355161 19.38102886 31.49024673 16.71484375 31.47265625 C15.91720108 31.4712413 15.11955841 31.46982635 14.29774475 31.46836853 C11.74012565 31.46275316 9.18259282 31.45019812 6.625 31.4375 C4.89518355 31.43248698 3.16536574 31.42792373 1.43554688 31.42382812 C-2.81383553 31.41277875 -7.06315312 31.39550386 -11.3125 31.375 C-10.54471287 32.68196771 -9.76669614 33.98292981 -8.984375 35.28125 C-8.5522168 36.00634766 -8.12005859 36.73144531 -7.67480469 37.47851562 C-6.34956836 39.61266409 -6.34956836 39.61266409 -3.5625 40.875 C3.75598751 42.00092116 9.4974974 41.44014375 16.5234375 39.03125 C18.6875 38.375 18.6875 38.375 21.6875 38.375 C22.79089665 42.7885866 22.72455271 46.85456956 22.6875 51.375 C10.38181296 54.7949428 -0.07609559 57.64852504 -12.3125 52.375 C-12.9415625 52.10816406 -13.570625 51.84132813 -14.21875 51.56640625 C-19.84985363 48.78790117 -23.70501734 44.20526969 -26.12890625 38.4296875 C-28.73112286 29.44021192 -28.07340776 19.48779214 -23.625 11.25 C-16.83823384 2.81239883 -10.71077935 0.01667047 0 0 Z M-8.3125 13.375 C-10.1880742 16.29210042 -10.1880742 16.29210042 -11.3125 19.375 C-10.9825 20.035 -10.6525 20.695 -10.3125 21.375 C-0.4125 20.88 -0.4125 20.88 9.6875 20.375 C8.69852423 14.74977423 8.69852423 14.74977423 4.6875 11.375 C-0.04087134 10.67095942 -4.20233766 10.76342564 -8.3125 13.375 Z " fill="#16285D" transform="translate(166.3125,420.625)"/>
<path d="M0 0 C0.84272461 -0.02191406 1.68544922 -0.04382813 2.55371094 -0.06640625 C9.26589864 -0.04534015 14.6996979 1.48331202 19.65234375 6.18359375 C20.01457031 6.74175781 20.37679687 7.29992187 20.75 7.875 C21.13027344 8.43058594 21.51054687 8.98617188 21.90234375 9.55859375 C24.26460971 14.43520288 23.94507079 19.71923151 23.91015625 25.01953125 C23.9087413 25.83371017 23.90732635 26.6478891 23.90586853 27.48674011 C23.90029317 30.07453156 23.88774524 32.66223492 23.875 35.25 C23.86998181 37.00976437 23.86541946 38.76953011 23.86132812 40.52929688 C23.85033181 44.83206494 23.83308421 49.13476756 23.8125 53.4375 C21.52140403 53.51825665 19.22950733 53.57657731 16.9375 53.625 C15.02324219 53.67720703 15.02324219 53.67720703 13.0703125 53.73046875 C11.99523437 53.63378906 10.92015625 53.53710938 9.8125 53.4375 C9.1525 52.4475 8.4925 51.4575 7.8125 50.4375 C7.0390625 51.118125 7.0390625 51.118125 6.25 51.8125 C1.22244236 55.16420509 -4.24966335 56.04134779 -10.1875 55.4375 C-16.04895824 53.62089539 -20.90929472 51.93125777 -24.3515625 46.65234375 C-25.46442074 43.70378944 -25.52612082 41.14679875 -25.5625 38 C-25.60503906 36.33130859 -25.60503906 36.33130859 -25.6484375 34.62890625 C-25.09520126 30.79844853 -23.90653346 29.14137156 -21.1875 26.4375 C-20.5275 26.4375 -19.8675 26.4375 -19.1875 26.4375 C-19.1875 25.7775 -19.1875 25.1175 -19.1875 24.4375 C-10.08031619 20.11544666 -2.02250914 19.99325868 7.8125 20.4375 C6.81783135 16.16854291 6.81783135 16.16854291 3.94921875 13.08203125 C-2.36015409 11.17883835 -8.14584632 12.42111167 -14.14453125 14.78125 C-16.1875 15.4375 -16.1875 15.4375 -20.1875 15.4375 C-20.5175 11.4775 -20.8475 7.5175 -21.1875 3.4375 C-14.04547135 0.91678401 -7.51607864 0.0885873 0 0 Z M-10.1875 34.4375 C-10.66808418 38.67474501 -10.66808418 38.67474501 -8.75 42.3125 C-4.86874647 44.01646497 -1.35411551 44.07509597 2.8125 43.4375 C6.0196208 42.22225509 6.0196208 42.22225509 7.8125 39.4375 C8.21104677 36.39071482 8.10603436 33.49025729 7.8125 30.4375 C5.91739301 30.35589252 4.02125496 30.29803541 2.125 30.25 C1.06925781 30.21519531 0.01351563 30.18039062 -1.07421875 30.14453125 C-4.85033227 30.49987443 -7.48800942 31.73800942 -10.1875 34.4375 Z " fill="#1985D1" transform="translate(416.1875,420.5625)"/>
<path d="M0 0 C2.77364592 2.77364592 3.18209779 5.28083602 3.3125 9.0625 C3.15469593 18.79901132 -1.92269703 25.82405416 -8 33 C-9.11375 34.485 -9.11375 34.485 -10.25 36 C-13.75448309 40.13755101 -18.13965115 43.356198 -22.37402344 46.70654297 C-24.0541707 48.04309254 -25.71949063 49.39648809 -27.3828125 50.75390625 C-35.11541854 57.04009504 -43.02928774 63.03475299 -51.07421875 68.9152832 C-55.76322442 72.34388034 -60.41115926 75.81349086 -65 79.375 C-69.5504558 82.8990372 -74.15365869 86.32720584 -78.8203125 89.6953125 C-82.89655418 92.64983657 -86.94842952 95.63677273 -91 98.625 C-92.20825439 99.51578247 -92.20825439 99.51578247 -93.44091797 100.42456055 C-96.82898995 102.92277186 -100.21648283 105.42176668 -103.60351562 107.92138672 C-105.32406995 109.19111962 -107.04477092 110.46065384 -108.765625 111.72998047 C-110.37534482 112.91733866 -111.98474049 114.10513647 -113.59375 115.29345703 C-117.0164816 117.81787118 -120.44770494 120.32409208 -123.921875 122.77734375 C-126.93473613 124.82852017 -126.93473613 124.82852017 -129 127 C-131.475 128.98 -131.475 128.98 -134 131 C-98.36 131.33 -62.72 131.66 -26 132 C-26.33 132.66 -26.66 133.32 -27 134 C-68.25 133.67 -109.5 133.34 -152 133 C-146.38095238 127.38095238 -146.38095238 127.38095238 -143.27734375 125.1953125 C-142.58431152 124.70216553 -141.8912793 124.20901855 -141.17724609 123.70092773 C-140.43812988 123.18087158 -139.69901367 122.66081543 -138.9375 122.125 C-132.18552068 117.31218247 -125.50011949 112.42360586 -118.875 107.4375 C-118.03388672 106.80481201 -117.19277344 106.17212402 -116.32617188 105.52026367 C-113.88330695 103.68124502 -111.44158746 101.84071416 -109 100 C-95.83982647 90.09144709 -82.59742091 80.2978231 -69.30859375 70.5625 C-60.79747341 64.3203016 -52.33697815 58.01684901 -43.9375 51.625 C-43.0933252 50.98320801 -42.24915039 50.34141602 -41.37939453 49.68017578 C-35.51714887 45.20462335 -29.74525346 40.62441956 -24 36 C-23.12674072 35.31784424 -22.25348145 34.63568848 -21.35375977 33.93286133 C-11.86527756 26.14110595 -7.26509961 15.89193634 -6 4 C-4.02 3.34 -2.04 2.68 0 2 C0 1.34 0 0.68 0 0 Z " fill="#0A1D5D" transform="translate(395,113)"/>
<path d="M0 0 C0 4.95 0 9.9 0 15 C5.28 15 10.56 15 16 15 C16 18.96 16 22.92 16 27 C10.72 27 5.44 27 0 27 C0.11383747 30.75064517 0.2405944 34.50008375 0.375 38.25 C0.4059375 39.31347656 0.436875 40.37695312 0.46875 41.47265625 C0.50742187 42.49746094 0.54609375 43.52226562 0.5859375 44.578125 C0.63306885 45.99206543 0.63306885 45.99206543 0.68115234 47.43457031 C1.01498513 50.12056949 1.43630371 51.78997591 3 54 C7.71078313 54.94215663 12.19392906 55.12015177 17 55 C17 58.63 17 62.26 17 66 C8.70958705 69.06107555 2.55069526 70.04290442 -5.91796875 66.984375 C-10.33698026 64.89508625 -13.25398783 61.49581243 -15 57 C-15.22705078 53.79199219 -15.22705078 53.79199219 -15.1953125 50.046875 C-15.1924826 49.38665344 -15.18965271 48.72643188 -15.18673706 48.04620361 C-15.17558415 45.94728103 -15.15048946 43.84879258 -15.125 41.75 C-15.11496384 40.32292285 -15.1058391 38.89583898 -15.09765625 37.46875 C-15.07566111 33.97902672 -15.04116536 30.48955577 -15 27 C-17.97 27 -20.94 27 -24 27 C-24 23.04 -24 19.08 -24 15 C-21.03 15 -18.06 15 -15 15 C-15 10.71 -15 6.42 -15 2 C-9.4531674 0.44299436 -6.02793513 0 0 0 Z " fill="#1790D8" transform="translate(465,407)"/>
<path d="M0 0 C1.12973236 -0.00708481 2.25946472 -0.01416962 3.4234314 -0.02146912 C4.66908875 -0.0189917 5.91474609 -0.01651428 7.19815063 -0.01396179 C8.50565277 -0.01907272 9.81315491 -0.02418365 11.16027832 -0.02944946 C14.75592051 -0.04287621 18.3514578 -0.0434132 21.94712019 -0.04088616 C24.95334521 -0.03981716 27.95954894 -0.04469892 30.96576941 -0.04949158 C38.06863656 -0.06060323 45.17145086 -0.06101739 52.27432251 -0.05497742 C59.58029591 -0.04895946 66.88607566 -0.06118906 74.19201601 -0.08254749 C80.47500688 -0.10023423 86.75793656 -0.10615306 93.04095137 -0.10290974 C96.78831396 -0.10110516 100.53553899 -0.10364825 104.28287888 -0.11762428 C107.81730401 -0.13031049 111.35143162 -0.12815807 114.88585281 -0.11521339 C116.78244063 -0.11176316 118.67903798 -0.1229508 120.57559204 -0.13478088 C131.15019049 -0.0707239 140.761672 1.11779813 149.34902954 7.66304016 C150.67715454 9.26069641 150.67715454 9.26069641 150.67715454 13.26069641 C147.55215454 14.57319641 147.55215454 14.57319641 143.67715454 15.26069641 C140.73965454 13.01069641 140.73965454 13.01069641 139.2466507 11.5670681 C134.1083062 7.29016194 125.71128923 7.95657429 119.40567017 7.94184875 C118.40963776 7.93180313 117.41360535 7.92175751 116.38739014 7.91140747 C113.11940041 7.88069914 109.85149215 7.86357468 106.58340454 7.84663391 C104.30796616 7.82791234 102.03253464 7.80833819 99.7571106 7.78794861 C93.786286 7.73672605 87.81543892 7.69704745 81.84451294 7.6598053 C75.74439985 7.6197037 69.6443795 7.56863946 63.54434204 7.51850891 C51.58867811 7.42186655 39.6329617 7.3374244 27.67715454 7.26069641 C27.67715454 6.93069641 27.67715454 6.60069641 27.67715454 6.26069641 C15.46715454 6.26069641 3.25715454 6.26069641 -9.32284546 6.26069641 C-6.63036787 0.87574123 -5.80867135 0.01210012 0 0 Z " fill="#0D62B3" transform="translate(244.32284545898438,101.73930358886719)"/>
<path d="M0 0 C4.95 0 9.9 0 15 0 C15.70761045 4.2456627 16.12026633 7.63046179 16.09765625 11.8359375 C16.09443359 12.89941406 16.09121094 13.96289062 16.08789062 15.05859375 C16.07951172 16.15300781 16.07113281 17.24742187 16.0625 18.375 C16.05798828 19.49261719 16.05347656 20.61023438 16.04882812 21.76171875 C16.03709244 24.50786804 16.02067363 27.25390586 16 30 C15.01 30 14.02 30 13 30 C13 20.76 13 11.52 13 2 C9.37 2 5.74 2 2 2 C2.02320313 3.49273437 2.04640625 4.98546875 2.0703125 6.5234375 C2.08906746 8.47395335 2.10726795 10.42447458 2.125 12.375 C2.14175781 13.35984375 2.15851563 14.3446875 2.17578125 15.359375 C2.18222656 16.30039062 2.18867188 17.24140625 2.1953125 18.2109375 C2.20578613 19.08024902 2.21625977 19.94956055 2.22705078 20.84521484 C2 23 2 23 0 25 C0 16.75 0 8.5 0 0 Z " fill="#31BDEA" transform="translate(332,398)"/>
<path d="M0 0 C0.66 0 1.32 0 2 0 C-1.57447848 20.06724759 -9.53438284 36.21934978 -21 53 C-21.69867188 54.10730469 -22.39734375 55.21460938 -23.1171875 56.35546875 C-23.73851562 57.22816406 -24.35984375 58.10085938 -25 59 C-25.66 59 -26.32 59 -27 59 C-26.67 57.68 -26.34 56.36 -26 55 C-25.34 55 -24.68 55 -24 55 C-23.67 53.68 -23.34 52.36 -23 51 C-22.34 51 -21.68 51 -21 51 C-20.87625 50.4225 -20.7525 49.845 -20.625 49.25 C-19.99351176 46.97664233 -19.11141809 45.0746471 -18 43 C-17.34 43 -16.68 43 -16 43 C-15.83177734 41.92685547 -15.83177734 41.92685547 -15.66015625 40.83203125 C-14.95543995 37.80884002 -13.86712202 35.43677312 -12.4375 32.6875 C-11.98246094 31.80449219 -11.52742188 30.92148438 -11.05859375 30.01171875 C-10.70925781 29.34785156 -10.35992187 28.68398437 -10 28 C-9.34 28 -8.68 28 -8 28 C-8.12375 27.01 -8.12375 27.01 -8.25 26 C-8.00187571 23.02250849 -7.5184695 21.85687208 -6.125 19.3125 C-3.6554827 14.73250869 -2.79498064 10.10461256 -2 5 C-1.34 5 -0.68 5 0 5 C0 3.35 0 1.7 0 0 Z " fill="#3CBBEF" transform="translate(443,218)"/>
<path d="M0 0 C0 0.99 0 1.98 0 3 C-0.66 3.33 -1.32 3.66 -2 4 C-1.01 4.66 -0.02 5.32 1 6 C0.25951416 6.22139648 -0.48097168 6.44279297 -1.24389648 6.67089844 C-4.64362963 7.69116343 -8.04054936 8.72051039 -11.4375 9.75 C-13.18450195 10.27207031 -13.18450195 10.27207031 -14.96679688 10.8046875 C-20.97100174 12.63131884 -26.69154802 14.56442697 -32.31274414 17.37207031 C-32.86953857 17.57928711 -33.42633301 17.78650391 -34 18 C-34.66 17.67 -35.32 17.34 -36 17 C-28.64554405 12.20957813 -21.12070896 8.81651452 -12.9375 5.6875 C-10.69580949 4.81848019 -8.4548784 3.94749793 -6.21484375 3.07421875 C-5.23636475 2.69869873 -4.25788574 2.32317871 -3.24975586 1.9362793 C-1.06957054 1.19661778 -1.06957054 1.19661778 0 0 Z " fill="#0E5AAC" transform="translate(210,329)"/>
<path d="M0 0 C28.05 0 56.1 0 85 0 C80.96080655 4.03919345 77.60212178 6.84168113 73 10 C72.01 9.505 72.01 9.505 71 9 C72.28716647 7.99421411 73.57988658 6.99553202 74.875 6 C75.59429687 5.443125 76.31359375 4.88625 77.0546875 4.3125 C79 3 79 3 81 3 C81 2.34 81 1.68 81 1 C54.27 1 27.54 1 0 1 C0 0.67 0 0.34 0 0 Z " fill="#00459F" transform="translate(219,151)"/>
<path d="M0 0 C0.33 0 0.66 0 1 0 C1.22484149 4.83409211 0.4147889 9.06346959 -0.875 13.6875 C-1.04902344 14.35072266 -1.22304687 15.01394531 -1.40234375 15.69726562 C-2.27378053 18.90221646 -3.13978614 21.20967921 -5 24 C-6.08708409 27.33344144 -7.03781164 30.69498844 -8 34.06640625 C-9 37 -9 37 -11 39 C-11.99 39 -12.98 39 -14 39 C-12.99415279 35.64717596 -11.84810978 32.71716994 -10.1875 29.625 C-7.13200554 23.70782975 -5.47528291 17.22254475 -3.56835938 10.86767578 C-2.45787346 7.21852749 -1.22542278 3.61177239 0 0 Z " fill="#405992" transform="translate(150,335)"/>
<path d="M0 0 C0.66 0 1.32 0 2 0 C2.02689216 1.47906892 2.04634621 2.95827483 2.0625 4.4375 C2.07410156 5.26121094 2.08570313 6.08492188 2.09765625 6.93359375 C2 9 2 9 1 10 C-1.73701178 10.16010481 -4.4516759 10.25946828 -7.19140625 10.31640625 C-8.01124496 10.33718735 -8.83108368 10.35796844 -9.67576599 10.37937927 C-12.30458901 10.44496494 -14.93351504 10.50380126 -17.5625 10.5625 C-19.34050561 10.60567667 -21.11850065 10.64929067 -22.89648438 10.69335938 C-27.26421634 10.80065543 -31.63205227 10.90189704 -36 11 C-36 10.01 -36 9.02 -36 8 C-24.12 8 -12.24 8 0 8 C0 5.36 0 2.72 0 0 Z " fill="#666C89" transform="translate(190,442)"/>
<path d="M0 0 C-2.90469871 1.93646581 -4.29934888 2.40877313 -7.625 3 C-10.99853588 3.62363764 -14.3451572 4.28854412 -17.6875 5.0625 C-20.31720532 5.66120699 -22.81288265 6.10161033 -25.5 6.4375 C-29.87068867 7.13993211 -33.83032589 8.55127725 -38 10 C-44.64032073 12.17983963 -44.64032073 12.17983963 -47 11 C-38.97235194 6.98617597 -30.68855801 4.98979343 -22 3 C-20.08767578 2.54560547 -20.08767578 2.54560547 -18.13671875 2.08203125 C-11.96039403 0.66897307 -6.33790216 -0.38027413 0 0 Z " fill="#43C7F0" transform="translate(276,60)"/>
<path d="M0 0 C0.33 0 0.66 0 1 0 C2.98 9.24 4.96 18.48 7 28 C6.34 28 5.68 28 5 28 C4.59007812 27.10796875 4.18015625 26.2159375 3.7578125 25.296875 C3.21898438 24.12640625 2.68015625 22.9559375 2.125 21.75 C1.32449219 20.00976562 1.32449219 20.00976562 0.5078125 18.234375 C-0.35875207 16.37552665 -1.25232772 14.52769426 -2.21875 12.71875 C-3.2399685 10.47206931 -2.81200241 9.27360673 -2 7 C-1.67 7.33 -1.34 7.66 -1 8 C-0.67 5.36 -0.34 2.72 0 0 Z " fill="#31BBEB" transform="translate(124,245)"/>
<path d="M0 0 C-0.33 0.66 -0.66 1.32 -1 2 C-4.0257831 2.60967271 -7.05469312 2.95979927 -10.1171875 3.33984375 C-12.97337903 3.81113953 -12.97337903 3.81113953 -14.9453125 5.31640625 C-16.24234213 6.98431763 -16.24234213 6.98431763 -15.6875 9.1875 C-15.460625 9.785625 -15.23375 10.38375 -15 11 C-13.700625 10.835 -12.40125 10.67 -11.0625 10.5 C-6.34580713 9.9684362 -1.74361065 9.92470459 3 10 C3 10.33 3 10.66 3 11 C0.79204578 11.48091058 -1.416381 11.95965179 -3.625 12.4375 C-4.85476563 12.70433594 -6.08453125 12.97117187 -7.3515625 13.24609375 C-10.56017072 13.90911451 -13.76447568 14.48729384 -17 15 C-17.33 11.04 -17.66 7.08 -18 3 C-6.42857143 -0.42857143 -6.42857143 -0.42857143 0 0 Z " fill="#37B1E5" transform="translate(413,421)"/>
<path d="M0 0 C0.33 0 0.66 0 1 0 C1 5.61 1 11.22 1 17 C-1.26875 17.061875 -3.5375 17.12375 -5.875 17.1875 C-7.78925781 17.23970703 -7.78925781 17.23970703 -9.7421875 17.29296875 C-10.81726563 17.19628906 -11.89234375 17.09960938 -13 17 C-13.66 16.01 -14.32 15.02 -15 14 C-15.99 14.495 -15.99 14.495 -17 15 C-16.67 13.68 -16.34 12.36 -16 11 C-14.68 10.67 -13.36 10.34 -12 10 C-11.67 11.65 -11.34 13.3 -11 15 C-7.37 15.33 -3.74 15.66 0 16 C0 10.72 0 5.44 0 0 Z " fill="#3D82C6" transform="translate(439,457)"/>
<path d="M0 0 C0.33 0 0.66 0 1 0 C1 4.95 1 9.9 1 15 C-4.28 15 -9.56 15 -15 15 C-15 10.71 -15 6.42 -15 2 C-14.67 2 -14.34 2 -14 2 C-13.67 5.63 -13.34 9.26 -13 13 C-8.71 13 -4.42 13 0 13 C0 8.71 0 4.42 0 0 Z " fill="#2674C4" transform="translate(384,459)"/>
<path d="M0 0 C2.92413854 2.41559271 3.54584692 4.2703766 4 8 C4.07649781 9.61961498 4.10811681 11.24189445 4.09765625 12.86328125 C4.09282227 14.19262695 4.09282227 14.19262695 4.08789062 15.54882812 C4.07951172 16.46083984 4.07113281 17.37285156 4.0625 18.3125 C4.05798828 19.24384766 4.05347656 20.17519531 4.04882812 21.13476562 C4.03709234 23.42324373 4.02067363 25.71158808 4 28 C3.67 28 3.34 28 3 28 C2.86722656 26.73285156 2.73445313 25.46570313 2.59765625 24.16015625 C2.41928506 22.46093601 2.24089884 20.76171734 2.0625 19.0625 C1.97548828 18.23169922 1.88847656 17.40089844 1.79882812 16.54492188 C1.21918883 11.02761456 0.61752271 5.51319826 0 0 Z " fill="#31A0DB" transform="translate(436,429)"/>
<path d="M0 0 C0.33 0 0.66 0 1 0 C1.22598065 4.85105133 0.41116498 9.10703564 -0.875 13.75 C-1.04902344 14.42160156 -1.22304687 15.09320313 -1.40234375 15.78515625 C-2.74388307 20.74388307 -2.74388307 20.74388307 -5 23 C-5.2160149 17.63446869 -4.51823672 13.2225971 -3.0625 8.125 C-2.88009766 7.44953125 -2.69769531 6.7740625 -2.50976562 6.078125 C-1.1487409 1.1487409 -1.1487409 1.1487409 0 0 Z " fill="#2B4A88" transform="translate(150,335)"/>
<path d="M0 0 C0.515625 0.391875 1.03125 0.78375 1.5625 1.1875 C-2.20541334 3.16806983 -6.12393055 4.77165516 -10.0625 6.375 C-10.743125 6.66052734 -11.42375 6.94605469 -12.125 7.24023438 C-13.87243313 7.94991324 -15.65353137 8.57543582 -17.4375 9.1875 C-18.0975 8.8575 -18.7575 8.5275 -19.4375 8.1875 C-4.08075843 -1.36025281 -4.08075843 -1.36025281 0 0 Z " fill="#0D4A9A" transform="translate(193.4375,337.8125)"/>
<path d="M0 0 C15.74487472 0.77904328 15.74487472 0.77904328 23 3 C23 3.66 23 4.32 23 5 C21.3745692 4.85904936 19.74965949 4.71207913 18.125 4.5625 C17.22007812 4.48128906 16.31515625 4.40007813 15.3828125 4.31640625 C13 4 13 4 11 3 C8.99006088 3.06380759 6.97955929 3.130271 4.97265625 3.2578125 C2.42921925 2.92540291 1.61054845 1.92861915 0 0 Z " fill="#30A0E3" transform="translate(311,59)"/>
<path d="M0 0 C6.93 0 13.86 0 21 0 C20.67 0.66 20.34 1.32 20 2 C15.60336124 3.40389804 11.21680753 2.91464455 6.6875 2.5625 C5.57665039 2.48418945 5.57665039 2.48418945 4.44335938 2.40429688 C2.62847291 2.27549848 0.81416675 2.13856738 -1 2 C-0.67 1.34 -0.34 0.68 0 0 Z " fill="#42B1E8" transform="translate(288,58)"/>
<path d="M0 0 C0.33 0 0.66 0 1 0 C1 4.62 1 9.24 1 14 C-1.31 14.33 -3.62 14.66 -6 15 C-6.33 16.65 -6.66 18.3 -7 20 C-7.66 20 -8.32 20 -9 20 C-9 17.69 -9 15.38 -9 13 C-6.03 13 -3.06 13 0 13 C0 8.71 0 4.42 0 0 Z " fill="#38B5E5" transform="translate(450,409)"/>
<path d="M0 0 C2.33203125 1.0234375 2.33203125 1.0234375 4 2 C3.05898438 2.03738281 2.11796875 2.07476562 1.1484375 2.11328125 C-0.71941406 2.21189453 -0.71941406 2.21189453 -2.625 2.3125 C-4.46964844 2.39951172 -4.46964844 2.39951172 -6.3515625 2.48828125 C-10.153073 3.02146955 -12.6588169 4.1726374 -16 6 C-16.66 6 -17.32 6 -18 6 C-18 5.34 -18 4.68 -18 4 C-12.13944525 -0.1675056 -7.14243052 -0.94065701 0 0 Z " fill="#33B1E7" transform="translate(306,411)"/>
<path d="M0 0 C2.08351615 3.58727128 2.80141379 7.20694042 3.625 11.25 C3.88539063 12.51328125 4.14578125 13.7765625 4.4140625 15.078125 C4.60742188 16.04234375 4.80078125 17.0065625 5 18 C4.34 18 3.68 18 3 18 C-0.4508751 11.69840199 -1.51376936 7.06425703 0 0 Z " fill="#27A1E1" transform="translate(126,255)"/>
<path d="M0 0 C0.99 0.33 1.98 0.66 3 1 C1.3832351 3.5056873 -0.24275978 6.00442611 -1.875 8.5 C-2.33519531 9.21542969 -2.79539062 9.93085938 -3.26953125 10.66796875 C-3.71425781 11.34472656 -4.15898437 12.02148438 -4.6171875 12.71875 C-5.02565918 13.34716797 -5.43413086 13.97558594 -5.85498047 14.62304688 C-6.23283691 15.07744141 -6.61069336 15.53183594 -7 16 C-7.66 16 -8.32 16 -9 16 C-8.67 14.68 -8.34 13.36 -8 12 C-7.34 12 -6.68 12 -6 12 C-5.67 10.68 -5.34 9.36 -5 8 C-4.34 8 -3.68 8 -3 8 C-2.87625 7.4225 -2.7525 6.845 -2.625 6.25 C-1.99351176 3.97664233 -1.11141809 2.0746471 0 0 Z " fill="#36BFF1" transform="translate(425,261)"/>
<path d="M0 0 C0.66 0 1.32 0 2 0 C1.54851905 2.251385 1.08855496 4.50106998 0.625 6.75 C0.36976563 8.00296875 0.11453125 9.2559375 -0.1484375 10.546875 C-0.8430125 13.36340848 -1.55680083 15.51518752 -3 18 C-3.66 17.34 -4.32 16.68 -5 16 C-4.690625 15.113125 -4.38125 14.22625 -4.0625 13.3125 C-3.1709329 10.53290845 -2.50622993 7.86863625 -2 5 C-1.34 5 -0.68 5 0 5 C0 3.35 0 1.7 0 0 Z " fill="#2EA5E6" transform="translate(443,218)"/>
<path d="M0 0 C-2.94531629 1.96354419 -4.48434845 2.44929706 -7.875 3.0625 C-8.71804688 3.21847656 -9.56109375 3.37445313 -10.4296875 3.53515625 C-11.27789062 3.68855469 -12.12609375 3.84195313 -13 4 C-14.66728549 4.33022413 -16.33414194 4.66264882 -18 5 C-18 4.01 -18 3.02 -18 2 C-11.88019467 0.59545452 -6.28260706 -0.23268915 0 0 Z " fill="#34BAEE" transform="translate(276,60)"/>
<path d="M0 0 C0.33 0.99 0.66 1.98 1 3 C0.04422943 4.36538653 -0.96352976 5.69481525 -2 7 C-3.51750288 10.28792291 -4.38890347 13.43527023 -5 17 C-5.66 16.67 -6.32 16.34 -7 16 C-5.76648984 9.72031193 -3.6516245 5.24049929 0 0 Z " fill="#40B4E6" transform="translate(270,412)"/>
<path d="M0 0 C3.3 0 6.6 0 10 0 C10.33 0.66 10.66 1.32 11 2 C6.66726186 2.92844389 3.33273814 2.92844389 -1 2 C-0.67 1.34 -0.34 0.68 0 0 Z " fill="#3EC9F1" transform="translate(297,399)"/>
<path d="M0 0 C1.2684375 0.495 1.2684375 0.495 2.5625 1 C2.5625 1.33 2.5625 1.66 2.5625 2 C0.43777424 2.05386629 -1.68733652 2.09273071 -3.8125 2.125 C-5.58753906 2.15980469 -5.58753906 2.15980469 -7.3984375 2.1953125 C-10.4375 2 -10.4375 2 -12.4375 0 C-8.41501725 -2.01124138 -4.18016888 -1.21604913 0 0 Z " fill="#32B7EB" transform="translate(266.4375,344)"/>
<path d="M0 0 C0 3.63 0 7.26 0 11 C-0.99 10.67 -1.98 10.34 -3 10 C-3.33 7.03 -3.66 4.06 -4 1 C-2 0 -2 0 0 0 Z " fill="#2175C3" transform="translate(482,462)"/>
<path d="M0 0 C3.63 0 7.26 0 11 0 C11 0.66 11 1.32 11 2 C7.52674819 3.1577506 4.63932552 3.06866652 1 3 C0.67 2.01 0.34 1.02 0 0 Z " fill="#317BC6" transform="translate(465,473)"/>
<path d="M0 0 C-8.261959 5.55580866 -8.261959 5.55580866 -13 6 C-5.74729569 -1.78994167 -5.74729569 -1.78994167 0 0 Z " fill="#37BDE8" transform="translate(287,403)"/>
<path d="M0 0 C0.99 0.33 1.98 0.66 3 1 C2.40975852 2.65087847 1.80233994 4.29562407 1.1875 5.9375 C0.85105469 6.85402344 0.51460938 7.77054688 0.16796875 8.71484375 C-1 11 -1 11 -4 12 C-4 11.34 -4 10.68 -4 10 C-3.34 10 -2.68 10 -2 10 C-2.04125 9.278125 -2.0825 8.55625 -2.125 7.8125 C-1.99078695 4.79270631 -1.24829381 2.73064271 0 0 Z " fill="#30ADED" transform="translate(437,236)"/>
<path d="M0 0 C5.21979128 -0.1799928 9.07262981 0.02905192 14 2 C14 2.66 14 3.32 14 4 C9.03083364 3.48594831 4.70973649 2.76615118 0 1 C0 0.67 0 0.34 0 0 Z " fill="#4987C9" transform="translate(284,472)"/>
<path d="M0 0 C0.99 0.33 1.98 0.66 3 1 C1.42353449 2.32074115 -0.16145531 3.63131224 -1.75 4.9375 C-2.63171875 5.66839844 -3.5134375 6.39929688 -4.421875 7.15234375 C-6.76330955 8.83037185 -8.19661127 9.58735166 -11 10 C-7.80185964 6.52773333 -5.35633032 4.69412846 -1 3 C-0.67 2.01 -0.34 1.02 0 0 Z " fill="#0C398D" transform="translate(301,151)"/>
<path d="M0 0 C3.96 0.33 7.92 0.66 12 1 C11.67 2.32 11.34 3.64 11 5 C9.53932801 4.54917531 8.08151968 4.08906463 6.625 3.625 C5.81289063 3.36976563 5.00078125 3.11453125 4.1640625 2.8515625 C2 2 2 2 0 0 Z " fill="#45BAE9" transform="translate(311,413)"/>
<path d="M0 0 C0.66 0.33 1.32 0.66 2 1 C-0.64 3.64 -3.28 6.28 -6 9 C-6.66 8.67 -7.32 8.34 -8 8 C-5.58443874 4.80800833 -3.31996462 2.25283313 0 0 Z " fill="#D4EEF9" transform="translate(221,111)"/>
<path d="M0 0 C0.33 0 0.66 0 1 0 C0.67 3.3 0.34 6.6 0 10 C-0.99 10 -1.98 10 -3 10 C-2.01 6.7 -1.02 3.4 0 0 Z " fill="#4B6194" transform="translate(144,354)"/>
<path d="M0 0 C-3.66291938 2.47785723 -6.6109185 3.48964169 -11 4 C-7.84441727 0.34616736 -4.73375145 -1.57791715 0 0 Z " fill="#41D2F1" transform="translate(220,76)"/>
<path d="M0 0 C-1.90401138 1.90401138 -3.33425686 2.93520439 -6.046875 3.19921875 C-8.03233273 3.1886578 -10.0169914 3.09915043 -12 3 C-7.85930434 0.85826087 -4.68855996 -0.12671784 0 0 Z " fill="#1C65B6" transform="translate(310,473)"/>
<path d="M0 0 C5.53846154 -0.36923077 5.53846154 -0.36923077 7.875 1.5 C8.24625 1.995 8.6175 2.49 9 3 C2.84765625 2.4140625 2.84765625 2.4140625 1 2 C0.67 1.34 0.34 0.68 0 0 Z " fill="#31B6E9" transform="translate(367,421)"/>
<path d="M0 0 C3.125 0.375 3.125 0.375 6 1 C5.67 1.99 5.34 2.98 5 4 C2.69 3.34 0.38 2.68 -2 2 C-1.34 1.34 -0.68 0.68 0 0 Z " fill="#3294D9" transform="translate(228,339)"/>
<path d="M0 0 C-5.625 3 -5.625 3 -9 3 C-8.67 2.01 -8.34 1.02 -8 0 C-4.71303767 -0.79953138 -3.28976808 -1.09658936 0 0 Z " fill="#5A6FA3" transform="translate(159,363)"/>
<path d="M0 0 C0 0.66 0 1.32 0 2 C2.31 2 4.62 2 7 2 C7 2.33 7 2.66 7 3 C5.58376784 3.05447047 4.16691809 3.09300508 2.75 3.125 C1.96109375 3.14820313 1.1721875 3.17140625 0.359375 3.1953125 C-2.20731941 2.9828378 -3.7916067 2.28654105 -6 1 C-3.92446352 0.4465236 -2.15634036 0 0 0 Z " fill="#31A1E3" transform="translate(241,341)"/>
<path d="M0 0 C0.33 0 0.66 0 1 0 C1.125 5.75 1.125 5.75 0 8 C-0.66 8 -1.32 8 -2 8 C-1.125 1.125 -1.125 1.125 0 0 Z " fill="#3C5D9D" transform="translate(150,335)"/>
<path d="M0 0 C0.66 0 1.32 0 2 0 C1.38461538 6.52307692 1.38461538 6.52307692 -0.5625 8.9375 C-1.036875 9.288125 -1.51125 9.63875 -2 10 C-2 8.35 -2 6.7 -2 5 C-1.34 5 -0.68 5 0 5 C0 3.35 0 1.7 0 0 Z " fill="#1A9AE5" transform="translate(443,218)"/>
<path d="M0 0 C0.66 0.33 1.32 0.66 2 1 C0.02 1.99 0.02 1.99 -2 3 C-2 2.34 -2 1.68 -2 1 C-1.34 0.67 -0.68 0.34 0 0 Z M-4 3 C-3.34 3.33 -2.68 3.66 -2 4 C-3.485 5.485 -3.485 5.485 -5 7 C-5.99 6.67 -6.98 6.34 -8 6 C-6.68 5.01 -5.36 4.02 -4 3 Z " fill="#56DFF2" transform="translate(188,91)"/>
<path d="" fill="#6097CE" transform="translate(0,0)"/>
<path d="" fill="#5090D3" transform="translate(0,0)"/>
<path d="" fill="#6F7592" transform="translate(0,0)"/>
<path d="" fill="#9199B2" transform="translate(0,0)"/>
<path d="" fill="#6896CC" transform="translate(0,0)"/>
<path d="" fill="#6596CD" transform="translate(0,0)"/>
<path d="" fill="#707CA2" transform="translate(0,0)"/>
<path d="" fill="#364268" transform="translate(0,0)"/>
<path d="" fill="#0C2453" transform="translate(0,0)"/>
<path d="" fill="#37466E" transform="translate(0,0)"/>
<path d="" fill="#919EBA" transform="translate(0,0)"/>
<path d="" fill="#7CC5EA" transform="translate(0,0)"/>
<path d="" fill="#7AC6E6" transform="translate(0,0)"/>
<path d="" fill="#63BFE9" transform="translate(0,0)"/>
<path d="" fill="#7CC8EA" transform="translate(0,0)"/>
<path d="" fill="#49AEE3" transform="translate(0,0)"/>
<path d="" fill="#556892" transform="translate(0,0)"/>
<path d="" fill="#465883" transform="translate(0,0)"/>
<path d="" fill="#7283A2" transform="translate(0,0)"/>
<path d="" fill="#8493AF" transform="translate(0,0)"/>
<path d="" fill="#1D3161" transform="translate(0,0)"/>
<path d="" fill="#34BCE9" transform="translate(0,0)"/>
<path d="" fill="#43B3EE" transform="translate(0,0)"/>
<path d="" fill="#2DABDF" transform="translate(0,0)"/>
<path d="" fill="#6E7A98" transform="translate(0,0)"/>
<path d="" fill="#7CDEF6" transform="translate(0,0)"/>
<path d="" fill="#90A7CF" transform="translate(0,0)"/>
<path d="" fill="#7F9ECB" transform="translate(0,0)"/>
<path d="" fill="#6E9AD6" transform="translate(0,0)"/>
<path d="" fill="#6EEDF8" transform="translate(0,0)"/>
<path d="" fill="#7E9CC5" transform="translate(0,0)"/>
<path d="" fill="#61E9F7" transform="translate(0,0)"/>
<path d="" fill="#6BE0F4" transform="translate(0,0)"/>
<path d="" fill="#7AB0DB" transform="translate(0,0)"/>
<path d="" fill="#87BBDB" transform="translate(0,0)"/>
<path d="" fill="#5ECBF7" transform="translate(0,0)"/>
<path d="" fill="#48C5E7" transform="translate(0,0)"/>
<path d="" fill="#66EFFA" transform="translate(0,0)"/>
<path d="" fill="#86BFE8" transform="translate(0,0)"/>
<path d="" fill="#72F2F7" transform="translate(0,0)"/>
<path d="" fill="#42EFFA" transform="translate(0,0)"/>
<path d="" fill="#35E8F4" transform="translate(0,0)"/>
<path d="" fill="#46D8F1" transform="translate(0,0)"/>
<path d="" fill="#6FDBF2" transform="translate(0,0)"/>
<path d="" fill="#59D4F4" transform="translate(0,0)"/>
<path d="" fill="#71CAEF" transform="translate(0,0)"/>
</svg>
