<?xml version="1.0" encoding="utf-8"?>
<!-- Generator: Adobe Illustrator 22.0.0, SVG Export Plug-In . SVG Version: 6.00 Build 0)  -->
<svg version="1.1" id="Capa_1" xmlns="http://www.w3.org/2000/svg" xmlns:xlink="http://www.w3.org/1999/xlink" x="0px" y="0px"
	 viewBox="0 0 73.8 73.8" style="enable-background:new 0 0 73.8 73.8;" xml:space="preserve">
<style type="text/css">
	.st0{fill:#4C3D91;}
	.st1{fill:#FFFFFF;}
</style>
<g>
	<path class="st0" d="M60.9,38.5c0.6-0.1,1.1-0.4,1.5-0.8c1.6-2.1,0.3-4.7-1.8-5c-0.3,0-0.6-0.3-0.6-0.6c0-0.1,0-0.2,0-0.2
		c0.3-0.3,0.6-0.7,1-1.3c3.2-4.3,4.7-20.1,1.5-21.3c-3.9-1.3-11.8,2.5-15.2,6.9c-0.2-0.1-0.4-0.4-0.4-0.7c0.1-1.2-0.5-2.2-1.4-2.7
		c-1.8-0.9-3.5,0-4.2,1.3c-0.2,0.3-0.5,0.5-0.8,0.4c-0.3,0-0.6-0.3-0.6-0.6c-0.2-1-0.8-1.8-1.7-2.2c-1.9-0.8-3.9,0.3-4.2,2.1
		c-0.1,0.3-0.3,0.6-0.6,0.6c-0.3,0.1-0.6-0.1-0.8-0.4C32,13.1,31,12.5,30,12.5c-1.6,0-3,1.3-3.1,2.9c0,0,0,0.1,0,0.1l0,0.1
		c0,0.3-0.2,0.6-0.4,0.7c0,0-0.1,0-0.1,0C23.1,12,15.1,8.1,11.1,9.4c-3.2,1.1-1.7,16.9,1.6,21.2c0.6,0.8,1.1,1.4,1.5,1.8
		c-0.1,0.3-0.4,0.6-0.7,0.6c-0.5,0-1,0.2-1.4,0.5c-2.1,2-0.9,4.8,1.2,5.3c0.3,0.1,0.6,0.4,0.6,0.7c0,0.3-0.2,0.7-0.5,0.8
		c-0.4,0.2-0.8,0.4-1.1,0.8c-1.6,2.3,0,4.9,2.2,4.9c0.3,0,0.6,0.2,0.7,0.5c0.1,0.3,0.1,0.6-0.2,0.8c-0.6,0.6-0.9,1.4-0.8,2.2
		c0.1,1.1,0.8,2.1,1.9,2.6c0.6,0.3,1.2,0.3,1.8,0.2c0.3-0.1,0.6,0,0.8,0.3c0.2,0.2,0.2,0.6,0.1,0.8c-0.3,0.6-0.4,1.3-0.2,2
		c0.3,1.1,1.1,1.9,2.2,2.2c1,0.2,1.7-0.1,2.2-0.3c0.2-0.1-1.3,3.6-2.4,6.1c-0.3,0.8,0.5,1.7,1.4,1.3c3.3-1.5,8.8-4.1,8.8-3.9
		c0.2,2.1,2.6,3.6,4.9,2.1c0.5-0.3,0.8-0.9,0.9-1.4c0.1-0.3,0.4-0.6,0.8-0.6c0.4,0,0.7,0.2,0.8,0.6c0.1,0.5,0.3,0.9,0.7,1.2
		c2.3,1.8,4.9,0.3,5.1-1.9c0-0.3,0.2-0.6,0.5-0.7c0.3-0.1,0.6,0,0.8,0.2c0.6,0.6,1.3,1,2.1,1c0,0,0,0,0,0c1,0,2-0.5,2.6-1.5
		c0.4-0.6,0.5-1.2,0.4-2c0-0.3,0.1-0.6,0.3-0.8c0.2-0.2,0.6-0.2,0.8,0c0.6,0.3,1.3,0.5,2,0.3c1.1-0.2,2-1.1,2.3-2.1
		c0.2-0.7,0.1-1.4-0.2-2.1c-0.1-0.3-0.1-0.6,0.1-0.8c0.2-0.2,0.5-0.3,0.8-0.3c0.7,0.1,1.3,0.1,1.9-0.2c0.9-0.4,1.5-1.2,1.7-2.2
		c0.2-1-0.1-1.9-0.8-2.6c-0.2-0.2-0.3-0.5-0.2-0.8c0.1-0.3,0.4-0.5,0.7-0.5c0.7,0,1.5-0.2,2-0.8c1.7-1.8,0.9-4.2-1-5
		c-0.3-0.1-0.5-0.4-0.5-0.8C60.3,38.8,60.6,38.5,60.9,38.5z"/>
	<path class="st1" d="M52.9,17.5c0.2,0.6,0.2,1.2,0,1.8c-0.1,0.3,0,0.6,0.2,0.8c0.2,0.2,0.5,0.3,0.8,0.2c0.4-0.2,0.8-0.2,1.2-0.2
		c0.9,0,1.7,0.4,2.3,1.2c0.4,0.5,0.7,1.2,0.6,1.9c0,0.6-0.2,1.1-0.5,1.6c-0.2,0.2-0.2,0.6,0,0.8c0.1,0.1,0.2,0.3,0.4,0.3
		c0.4-0.1,0.8-0.4,1.1-0.8c1.8-2.5,2.1-10.4,0.3-11c-1.8-0.6-4.9,0.6-7.1,2.4C52.6,16.7,52.8,17,52.9,17.5z"/>
	<path class="st1" d="M16.2,26c0.1-0.1,0.2-0.2,0.3-0.3c0.2-0.3,0.1-0.6,0-0.8c-0.5-0.7-0.6-1.5-0.5-2.3c0.2-1.1,1.1-2,2.2-2.3
		c0.6-0.2,1.2-0.1,1.8,0.1c0.3,0.1,0.6,0,0.8-0.2c0.2-0.2,0.3-0.5,0.2-0.8c-0.2-0.6-0.2-1.2,0-1.8c0.1-0.4,0.3-0.8,0.6-1.1
		c-2.2-1.8-5.5-3.1-7.3-2.5c-1.8,0.6-1.5,8.5,0.3,11C15,25.6,15.5,25.9,16.2,26z"/>
	<g>
		<circle class="st1" cx="24.9" cy="38.3" r="3.7"/>
		<path class="st1" d="M40.7,38.3c0,2.1-1.7,3.7-3.7,3.7c-2.1,0-3.7-1.7-3.7-3.7S40.7,36.2,40.7,38.3z"/>
		<circle class="st1" cx="49" cy="38.3" r="3.7"/>
	</g>
</g>
</svg>
