<svg version="1.2" xmlns="http://www.w3.org/2000/svg" viewBox="0 0 1377 648" width="1377" height="648">
	<title>light-1x</title>
	<style>
		.s0 { fill: #dcde5d } 
		.s1 { fill: #d3d559 } 
		.s2 { opacity: .84;fill: #8a8c3b } 
		.s3 { fill: #1f1f1f } 
		.s4 { fill: #d8da5b } 
		.s5 { opacity: .62;fill: #a4a645 } 
		.s6 { fill: #dbdd5c } 
		.s7 { fill: #dadc5c } 
		.s8 { opacity: .75;fill: #9a9c41 } 
		.s9 { opacity: .5;fill: #6e6f2e } 
		.s10 { fill: #dddf5d } 
		.s11 { opacity: .87;fill: #68692f } 
		.s12 { opacity: .75;fill: #696a2f } 
		.s13 { opacity: .37;fill: #585925 } 
		.s14 { opacity: .5;fill: #67682b } 
		.s15 { opacity: .91;fill: #6b6c30 } 
		.s16 { opacity: .37;fill: #6c6d2e } 
		.s17 { opacity: .76;fill: #767735 } 
		.s18 { fill: #878841 } 
		.s19 { fill: #fafafa } 
		.s20 { opacity: .91;fill: #68692f } 
		.s21 { opacity: .5;fill: #6d6e2e } 
		.s22 { opacity: .5;fill: #555624 } 
		.s23 { fill: #212120 } 
		.s24 { fill: #dbdd5d } 
		.s25 { opacity: 1;fill: #dddf5d } 
		.s26 { fill: #fbfbfb } 
		.s27 { fill: #8e8e8e } 
		.s28 { opacity: .75;fill: #777835 } 
		.s29 { opacity: .37;fill: #5c5d27 } 
		.s30 { opacity: .5;fill: #5d5e27 } 
		.s31 { opacity: .62;fill: #7e8035 } 
		.s32 { opacity: .62;fill: #868738 } 
		.s33 { fill: #4f4f4f } 
		.s34 { opacity: .89;fill: #86873a } 
		.s35 { opacity: .25;fill: #373817 } 
		.s36 { opacity: .13;fill: #3f401a } 
		.s37 { opacity: .37;fill: #6e6f2e } 
		.s38 { opacity: .37;fill: #565724 } 
		.s39 { opacity: .7;fill: #64652d } 
	</style>
	<g>
		<path fill-rule="evenodd" class="s0" d="m506.5 182.5q0.5 2.3 3 2 23.5 12.3 26.5 39 22.4 111.9 1 224-2.3 20.3-15.5 35.5-8.5 6.8-18 12-20.4 9.4-42 15.5 19.7 59.9 38.5 120 1.8 18.2-16.5 16.5-2.6-0.7-5-2-27.4-22.4-54-45.5-0.7-2.1-3-2-19-15-37-31-0.7-2.1-3-2-22-17-43-35.5-120.5 6.9-239-16-32.7-6.2-62-22-18.6-10.6-23.5-31.5-23.9-109.5-5-220 2.6-16.4 8-32 2.3-6.1 6.5-11 3.9-1.4 6-5 9.4-8.2 21-13.5 44.5-17.4 92-22.5-2.2-45 0.5-90 7-26 32.5-34.5 94.4-15.5 189-30 40.7-4.7 54.5 33.5 1.7 31.7 1.5 63.5 0 29.6-1 59 45.4 6.5 87 25.5z"/>
	</g>
	<g>
		<path fill-rule="evenodd" class="s1" d="m859.5 58.5q5.4-2.9 9-8 2.5-3.5 6-6 5.4-2.9 9-8 3-4.8 8-6.5 10 13 20 26-21.1 14.7-43.5 27.5-8.2-8.7-15.5-18.5 3.3-3.6 7-6.5z"/>
	</g>
	<g>
		<path fill-rule="evenodd" class="s2" d="m883.5 36.5q-3.6 5.1-9 8 3.6-5.1 9-8z"/>
	</g>
	<g>
		<path fill-rule="evenodd" class="s3" d="m177.5 245.5q0.1 0.8 1 1 1.5-20 1-40 0.6-64 1.5-128 2.3-5.3 7.5-7.5 89.7-14.7 179.5-28.5 9.8-1.3 13 8 1.7 108.5 3 217-10.6 45.2-57.5 46-40.5-3.8-51.5-43-4.2-48.3 42.5-61.5 16.3-1.6 32 2.5-0.1-28-1-56-67.5 0-135 0 0.1 74-1.5 148-9.1 36.6-46.5 43.5-47.4 3.4-62.5-41.5-4.4-49.4 43.5-62.5 15.8-1.8 31 2.5z"/>
	</g>
	<g>
		<path fill-rule="evenodd" class="s2" d="m868.5 50.5q-3.6 5.1-9 8 3.6-5.1 9-8z"/>
	</g>
	<g>
		<path fill-rule="evenodd" class="s4" d="m1210.5 126.5q2.1-0.7 2-3 36.2-40.2 90-30.5 69.5 19 74 91-4.3 70.8-72 91-64.6 11.5-101.5-42.5-26.4-47.2-1-95 3.6-6.1 8.5-11zm72.5 114q46.2-3.7 56-49 2.2-48-43.5-62.5-46-6.4-65.5 35.5-12.7 44.7 26.5 69 1.8 0.6 3 2 11.2 4.7 23.5 5z"/>
	</g>
	<g>
		<path fill-rule="evenodd" class="s5" d="m714.5 94.5q-40.5 0-81 0 0 89 0 178-0.5 0-1 0 0-89.5 0-179 41.3-0.5 82 1z"/>
	</g>
	<g>
		<path fill-rule="evenodd" class="s6" d="m714.5 94.5q11.6 0.9 22 6 0.5 2.3 3 2 40 24.6 36.5 72-5.2 33.2-32.5 52.5 9.4 21.6 18 43.5-18.4 3-38 2-7.5-17-15-34-19.5-1.5-39-1-1.5 17.2-1 35-17.5 0-35 0 0-89 0-178 40.5 0 81 0zm-45 36q0 35 0 70 20 0 40 0 19.6-3.7 27.5-22 9.2-37.2-27.5-48-20 0-40 0z"/>
	</g>
	<g>
		<path fill-rule="evenodd" class="s7" d="m938.5 158.5q0 57 0 114-18 0-36 0 0-17.5 0-35-35.5 0-71 0 0 17.5 0 35-18 0-36 0 0-54.5 0-109 3.4-53.5 55-68.5 64.2-9 86.5 51.5 1.5 5.9 1.5 12zm-106.5 3q-0.8 19.5-0.5 39 35.5 0 71 0 0.3-20-0.5-40-8.5-32.7-42.5-30-23.4 6.7-27.5 31z"/>
	</g>
	<g>
		<path fill-rule="evenodd" class="s8" d="m1033.5 94.5q-32.5 0-65 0 0 89 0 178 31.5 0 63 0-31.7 1.5-64 1 0-90 0-180 33.3-0.5 66 1z"/>
	</g>
	<g>
		<path fill-rule="evenodd" class="s6" d="m1033.5 94.5q64.5 10.8 77.5 75 6.1 60.1-44.5 92.5-16.3 9.3-35 10.5-31.5 0-63 0 0-89 0-178 32.5 0 65 0zm-29 36q0 53 0 106 23.7 2.9 45-7.5 36.6-27.1 20-69.5-1.4-1.2-2-3-14.6-24.1-43-26-10 0-20 0z"/>
	</g>
	<g>
		<path fill-rule="evenodd" class="s9" d="m1133.5 93.5q0 89.5 0 179 17.5 0 35 0 0-89.5 0-179 1.5 89.7 1 180-18.5 0-37 0-0.5-90.3 1-180z"/>
	</g>
	<g>
		<path fill-rule="evenodd" class="s10" d="m1133.5 93.5q17.5 0 35 0 0 89.5 0 179-17.5 0-35 0 0-89.5 0-179z"/>
	</g>
	<g>
		<path fill-rule="evenodd" class="s11" d="m736.5 100.5q1.8 0.6 3 2-2.5 0.3-3-2z"/>
	</g>
	<g>
		<path fill-rule="evenodd" class="s12" d="m1212.5 123.5q0.1 2.3-2 3-0.1-2.3 2-3z"/>
	</g>
	<g>
		<path fill-rule="evenodd" class="s13" d="m709.5 130.5q-20 0-40 0 0 35 0 70 20 0 40 0-20.2 1.5-41 1 0-36 0-72 20.8-0.5 41 1z"/>
	</g>
	<g>
		<path fill-rule="evenodd" class="s14" d="m1024.5 130.5q-10 0-20 0 0 53 0 106-1.5-53.2-1-107 10.8-0.5 21 1z"/>
	</g>
	<g>
		<path fill-rule="evenodd" class="s15" d="m1067.5 156.5q2.3 0.5 2 3-1.4-1.2-2-3z"/>
	</g>
	<g>
		<path fill-rule="evenodd" class="s16" d="m938.5 158.5q1.5 57.2 1 115-18.8 0.5-37-1 18 0 36 0 0-57 0-114z"/>
	</g>
	<g>
		<path fill-rule="evenodd" class="s15" d="m506.5 182.5q1.8 0.6 3 2-2.5 0.3-3-2z"/>
	</g>
	<g>
		<path fill-rule="evenodd" class="s17" d="m29.5 191.5q-2.1 3.6-6 5 2.1-3.6 6-5z"/>
	</g>
	<g>
		<path fill-rule="evenodd" class="s18" d="m179.5 206.5q0.5 20-1 40-0.9-0.2-1-1 1-19.5 2-39z"/>
	</g>
	<g>
		<path fill-rule="evenodd" class="s19" d="m342.5 233.5q18.3-3 17.5 15-4.4 10.3-15.5 8.5-11.6-4.4-8.5-16.5 2.5-4.3 6.5-7z"/>
	</g>
	<g>
		<path fill-rule="evenodd" class="s20" d="m1256.5 233.5q1.8 0.6 3 2-2.5 0.3-3-2z"/>
	</g>
	<g>
		<path fill-rule="evenodd" class="s19" d="m170.5 267.5q17.5-2.2 17.5 15-4.8 10.8-16.5 8.5-11.2-4.7-7.5-16.5 2.5-4.3 6.5-7z"/>
	</g>
	<g>
		<path fill-rule="evenodd" class="s21" d="m669.5 237.5q0 18 0 36-18.8 0.5-37-1 0.5 0 1 0 17.5 0 35 0-0.5-17.8 1-35z"/>
	</g>
	<g>
		<path fill-rule="evenodd" class="s21" d="m761.5 270.5q1.4 1.1 1 3-19.8 0.5-39-1 19.6 1 38-2z"/>
	</g>
	<g>
		<path fill-rule="evenodd" class="s22" d="m795.5 163.5q0 54.5 0 109 18 0 36 0-18.2 1.5-37 1-0.5-55.3 1-110z"/>
	</g>
	<g>
		<path fill-rule="evenodd" class="s3" d="m361.5 342.5q18.8-1 26.5 16 1 44 0 88-3.5 12.5-16.5 14.5-117.5 1-235 0-20.3-12.3-9.5-33.5 4.4-5.4 10.5-8.5 112.3-37.8 224-76.5z"/>
	</g>
	<g>
		<path fill-rule="evenodd" class="s23" d="m415.5 357.5q10.9-1.7 15.5 8 1 36.5 0 73-5 12.2-17.5 7.5-3.5-2.5-4.5-6.5-1-37.5 0-75 2.5-4.3 6.5-7z"/>
	</g>
	<g>
		<path fill-rule="evenodd" class="s3" d="m450.5 357.5q9.8-1.5 14.5 7 1 38 0 76-5.8 9.9-16.5 5.5-2.8-2.3-4.5-5.5-1-38.5 0-77 3.1-3.3 6.5-6z"/>
	</g>
	<g>
		<path fill-rule="evenodd" class="s24" d="m1148.5 363.5q0.5 2.3 3 2 24.1 14.1 27 42 0 70.5 0 141-18.5 0-37 0 0.5-69.3-1-138-8-19.9-28-11.5-6.1 4.4-8 11.5-1.5 68.7-1 138-18.5 0-37 0 0.5-67.3-1-134-2.6-20.3-23-17.5-8.6 3.1-12.5 11.5-2.2 70.4-1.5 141-19 0-38 0-0.3-72.5 0.5-145 3.2-15.9 13.5-28 3.9-1.4 6-5 9.6-9.3 23-12.5 28.8-6.1 51.5 12.5 29.3-23.1 63.5-8z"/>
	</g>
	<g>
		<path fill-rule="evenodd" class="s0" d="m671.5 435.5q37.2 1.5 75 1 0-38 0-76 19 0 38 0 0 94 0 188-19 0-38 0 0-37.5 0-75-37.8-0.5-75 1 0 37.5 0 75-19 0-38 0 0-94.5 0-189 19 0 38 0 0 37.5 0 75z"/>
	</g>
	<g>
		<path fill-rule="evenodd" class="s25" d="m866.5 398.5q-1.5 18.7-1 38 31 0 62 0 0 18.5 0 37-31 0-62 0 0 18.5 0 37 45.2 1.5 91 1 0 18.5 0 37-64.5 0-129 0 0-94 0-188 65 0 130 0 0 19 0 38-45.5 0-91 0z"/>
	</g>
	<g>
		<path fill-rule="evenodd" class="s6" d="m1221.5 360.5q43.5-0.3 87 0.5 46.8 9.8 61.5 55.5 11 59.3-41.5 88.5-7.3 3.1-15 5-26.9 2.1-54 1.5-1.5 18.2-1 37-18.5 0-37 0 0-94 0-188zm111.5 69q-6.8-26.3-33.5-30.5-20-0.8-40-0.5 0 37.5 0 75 20 0.3 40-0.5 11-1.2 20-7.5 2-3 5-5 11-13.6 8.5-31z"/>
	</g>
	<g>
		<path fill-rule="evenodd" class="s15" d="m1148.5 363.5q1.8 0.6 3 2-2.5 0.3-3-2z"/>
	</g>
	<g>
		<path fill-rule="evenodd" class="s26" d="m364.5 366.5q1.5 35.7 1 72-76.2 1.5-153 1-29.5-1-59-2 105.6-35.2 211-71z"/>
	</g>
	<g>
		<path fill-rule="evenodd" class="s27" d="m364.5 366.5q0.1-0.8 1-1 2 36.7 0 73 0.5-36.3-1-72z"/>
	</g>
	<g>
		<path fill-rule="evenodd" class="s28" d="m1010.5 371.5q-2.1 3.6-6 5 2.1-3.6 6-5z"/>
	</g>
	<g>
		<path fill-rule="evenodd" class="s29" d="m1178.5 407.5q1.5 70.7 1 142-19.5 0-39 0 0-69.5 0-139 1.5 68.7 1 138 18.5 0 37 0 0-70.5 0-141z"/>
	</g>
	<g>
		<path fill-rule="evenodd" class="s30" d="m1104.5 410.5q0 69.5 0 139-19.5 0-39 0 0-67.5 0-135 1.5 66.7 1 134 18.5 0 37 0-0.5-69.3 1-138z"/>
	</g>
	<g>
		<path fill-rule="evenodd" class="s31" d="m746.5 360.5q0 38 0 76-37.8 0.5-75-1 37 0 74 0-0.5-37.8 1-75z"/>
	</g>
	<g>
		<path fill-rule="evenodd" class="s32" d="m866.5 398.5q0 18.5 0 37 30.8-0.5 61 1-31 0-62 0-0.5-19.3 1-38z"/>
	</g>
	<g>
		<path fill-rule="evenodd" class="s33" d="m153.5 437.5q29.5 1 59 2-30 0.5-60-1 0.2-0.9 1-1z"/>
	</g>
	<g>
		<path fill-rule="evenodd" class="s34" d="m1324.5 460.5q-1 4-5 5 2-3 5-5z"/>
	</g>
	<g>
		<path fill-rule="evenodd" class="s35" d="m927.5 473.5q-30.2 1.5-61 1 0 18 0 36-0.5 0-1 0 0-18.5 0-37 31 0 62 0z"/>
	</g>
	<g>
		<path fill-rule="evenodd" class="s36" d="m671.5 474.5q37.2-1.5 75-1 0 37.5 0 75 19 0 38 0-19.2 1.5-39 1 0-37.5 0-75-37 0-74 0z"/>
	</g>
	<g>
		<path fill-rule="evenodd" class="s37" d="m865.5 510.5q0.5 0 1 0 45.5 0 91 0 0 19.5 0 39-65.3 0.5-130-1 64.5 0 129 0 0-18.5 0-37-45.8 0.5-91-1z"/>
	</g>
	<g>
		<path fill-rule="evenodd" class="s38" d="m1221.5 360.5q0 94 0 188 18.5 0 37 0-0.5-18.8 1-37 0 19 0 38-19.5 0-39 0-0.5-94.8 1-189z"/>
	</g>
	<g>
		<path fill-rule="evenodd" class="s39" d="m381.5 564.5q2.3-0.1 3 2-2.3 0.1-3-2z"/>
	</g>
	<g>
		<path fill-rule="evenodd" class="s39" d="m421.5 597.5q2.3-0.1 3 2-2.3 0.1-3-2z"/>
	</g>
</svg>