<?xml version="1.0" standalone="no"?>
<!DOCTYPE svg PUBLIC "-//W3C//DTD SVG 20010904//EN"
 "http://www.w3.org/TR/2001/REC-SVG-20010904/DTD/svg10.dtd">
<svg version="1.0" xmlns="http://www.w3.org/2000/svg"
 width="390.000000pt" height="390.000000pt" viewBox="0 0 390.000000 390.000000"
 preserveAspectRatio="xMidYMid meet">
<metadata>
Created by potrace 1.16, written by Peter Selinger 2001-2019
</metadata>
<g transform="translate(0.000000,390.000000) scale(0.100000,-0.100000)"
fill="#000000" stroke="none">
<path d="M240 3450 l0 -210 210 0 210 0 0 210 0 210 -210 0 -210 0 0 -210z
m360 0 l0 -150 -150 0 -150 0 0 150 0 150 150 0 150 0 0 -150z"/>
<path d="M360 3450 l0 -90 90 0 90 0 0 90 0 90 -90 0 -90 0 0 -90z"/>
<path d="M780 3630 c0 -27 -3 -30 -30 -30 -27 0 -30 -3 -30 -30 0 -27 3 -30
30 -30 27 0 30 3 30 30 l0 30 90 0 90 0 0 30 0 30 -90 0 -90 0 0 -30z"/>
<path d="M1080 3600 l0 -60 -60 0 -60 0 0 -30 c0 -27 -3 -30 -30 -30 -27 0
-30 -3 -30 -30 0 -27 -3 -30 -30 -30 -27 0 -30 3 -30 30 0 27 -3 30 -30 30
l-30 0 0 -60 0 -60 -30 0 -30 0 0 -90 0 -90 -120 0 -120 0 0 -60 0 -60 -60 0
-60 0 0 30 c0 27 -3 30 -30 30 -27 0 -30 -3 -30 -30 0 -27 -3 -30 -30 -30
l-30 0 0 -60 0 -60 30 0 30 0 0 60 0 60 30 0 c27 0 30 -3 30 -30 0 -27 3 -30
30 -30 27 0 30 -3 30 -30 0 -27 -3 -30 -30 -30 -27 0 -30 -3 -30 -30 0 -27 3
-30 30 -30 27 0 30 3 30 30 0 27 3 30 30 30 27 0 30 3 30 30 0 27 3 30 30 30
27 0 30 3 30 30 0 27 3 30 30 30 27 0 30 -3 30 -30 0 -27 3 -30 30 -30 27 0
30 3 30 30 0 27 -3 30 -30 30 -27 0 -30 3 -30 30 l0 30 60 0 60 0 0 30 0 30
90 0 90 0 0 60 0 60 -30 0 c-27 0 -30 -3 -30 -30 0 -27 -3 -30 -30 -30 l-30 0
0 60 0 60 60 0 60 0 0 30 c0 27 3 30 30 30 27 0 30 -3 30 -30 0 -27 3 -30 30
-30 27 0 30 -3 30 -30 0 -27 -3 -30 -30 -30 -27 0 -30 -3 -30 -30 0 -27 3 -30
30 -30 27 0 30 3 30 30 0 27 3 30 30 30 27 0 30 -3 30 -30 0 -27 3 -30 30 -30
l30 0 0 -60 0 -60 -30 0 c-27 0 -30 3 -30 30 l0 30 -60 0 -60 0 0 -30 0 -30
-90 0 -90 0 0 -30 c0 -27 -3 -30 -30 -30 l-30 0 0 -90 0 -90 -30 0 c-27 0 -30
3 -30 30 0 27 -3 30 -30 30 -27 0 -30 -3 -30 -30 l0 -30 -60 0 -60 0 0 -30 0
-30 -90 0 -90 0 0 30 c0 27 -3 30 -30 30 l-30 0 0 -60 0 -60 60 0 60 0 0 -30
c0 -27 -3 -30 -30 -30 -27 0 -30 -3 -30 -30 0 -27 3 -30 30 -30 27 0 30 -3 30
-30 l0 -30 -60 0 -60 0 0 -30 c0 -27 3 -30 30 -30 27 0 30 -3 30 -30 0 -27 -3
-30 -30 -30 -27 0 -30 -3 -30 -30 0 -27 3 -30 30 -30 27 0 30 -3 30 -30 0 -27
3 -30 30 -30 27 0 30 -3 30 -30 0 -27 -3 -30 -30 -30 -27 0 -30 -3 -30 -30 0
-27 -3 -30 -30 -30 l-30 0 0 -150 0 -150 60 0 60 0 0 -30 0 -30 -60 0 -60 0 0
-120 0 -120 30 0 c27 0 30 -3 30 -30 0 -27 -3 -30 -30 -30 -27 0 -30 -3 -30
-30 l0 -30 90 0 90 0 0 -60 0 -60 -30 0 c-27 0 -30 3 -30 30 l0 30 -60 0 -60
0 0 -30 c0 -27 3 -30 30 -30 27 0 30 -3 30 -30 0 -27 -3 -30 -30 -30 -27 0
-30 -3 -30 -30 l0 -30 60 0 60 0 0 -30 c0 -27 3 -30 30 -30 l30 0 0 -60 0 -60
-30 0 c-27 0 -30 -3 -30 -30 0 -27 -3 -30 -30 -30 -27 0 -30 3 -30 30 0 27 -3
30 -30 30 l-30 0 0 -60 0 -60 60 0 60 0 0 30 c0 27 3 30 30 30 l30 0 0 -60 0
-60 -30 0 c-27 0 -30 -3 -30 -30 0 -27 -3 -30 -30 -30 -27 0 -30 3 -30 30 0
27 -3 30 -30 30 l-30 0 0 -60 0 -60 150 0 150 0 0 30 0 30 60 0 60 0 0 -30 c0
-27 -3 -30 -30 -30 -27 0 -30 -3 -30 -30 0 -27 3 -30 30 -30 27 0 30 3 30 30
0 27 3 30 30 30 l30 0 0 -150 0 -150 30 0 30 0 0 120 0 120 30 0 30 0 0 -60 0
-60 60 0 60 0 0 -60 0 -60 -30 0 c-27 0 -30 3 -30 30 0 27 -3 30 -30 30 -27 0
-30 -3 -30 -30 0 -27 3 -30 30 -30 27 0 30 -3 30 -30 l0 -30 -60 0 -60 0 0
-30 0 -30 60 0 60 0 0 -30 c0 -27 3 -30 30 -30 27 0 30 -3 30 -30 0 -27 3 -30
30 -30 l30 0 0 60 0 60 -30 0 c-27 0 -30 3 -30 30 l0 30 60 0 60 0 0 -90 0
-90 60 0 60 0 0 60 0 60 -30 0 c-27 0 -30 3 -30 30 0 27 3 30 30 30 27 0 30 3
30 30 0 27 3 30 30 30 27 0 30 -3 30 -30 0 -27 3 -30 30 -30 27 0 30 3 30 30
0 27 3 30 30 30 27 0 30 -3 30 -30 0 -27 3 -30 30 -30 27 0 30 -3 30 -30 0
-27 -3 -30 -30 -30 -27 0 -30 -3 -30 -30 l0 -30 60 0 60 0 0 -30 0 -30 60 0
60 0 0 30 0 30 60 0 60 0 0 -30 c0 -27 3 -30 30 -30 27 0 30 3 30 30 0 27 3
30 30 30 27 0 30 -3 30 -30 0 -27 3 -30 30 -30 27 0 30 3 30 30 0 27 -3 30
-30 30 -27 0 -30 3 -30 30 0 27 3 30 30 30 27 0 30 3 30 30 0 27 3 30 30 30
27 0 30 3 30 30 l0 30 60 0 60 0 0 90 0 90 30 0 c27 0 30 -3 30 -30 0 -27 3
-30 30 -30 27 0 30 3 30 30 0 27 3 30 30 30 l30 0 0 60 0 60 30 0 30 0 0 -90
0 -90 30 0 30 0 0 -90 0 -90 30 0 30 0 0 90 0 90 30 0 c27 0 30 -3 30 -30 0
-27 3 -30 30 -30 27 0 30 -3 30 -30 0 -27 -3 -30 -30 -30 -27 0 -30 -3 -30
-30 l0 -30 90 0 90 0 0 -30 c0 -27 -3 -30 -30 -30 -27 0 -30 -3 -30 -30 0 -27
3 -30 30 -30 27 0 30 -3 30 -30 l0 -30 60 0 60 0 0 30 c0 27 3 30 30 30 27 0
30 -3 30 -30 l0 -30 60 0 60 0 0 30 c0 27 3 30 30 30 27 0 30 3 30 30 0 27 -3
30 -30 30 l-30 0 0 90 0 90 30 0 c27 0 30 -3 30 -30 l0 -30 150 0 150 0 0 -60
0 -60 -30 0 c-27 0 -30 3 -30 30 l0 30 -60 0 -60 0 0 -60 0 -60 30 0 c27 0 30
3 30 30 0 27 3 30 30 30 l30 0 0 -60 0 -60 30 0 30 0 0 60 0 60 60 0 60 0 0
-60 0 -60 30 0 30 0 0 90 0 90 60 0 60 0 0 30 0 30 -60 0 -60 0 0 -30 c0 -27
-3 -30 -30 -30 l-30 0 0 120 0 120 60 0 60 0 0 30 0 30 -90 0 -90 0 0 30 0 30
120 0 120 0 0 30 c0 27 -3 30 -30 30 -27 0 -30 3 -30 30 0 27 -3 30 -30 30
-27 0 -30 3 -30 30 l0 30 60 0 60 0 0 30 0 30 -60 0 -60 0 0 -30 c0 -27 -3
-30 -30 -30 -27 0 -30 3 -30 30 0 27 -3 30 -30 30 -27 0 -30 3 -30 30 0 27 3
30 30 30 27 0 30 3 30 30 0 27 3 30 30 30 27 0 30 -3 30 -30 0 -27 3 -30 30
-30 l30 0 0 60 0 60 -60 0 -60 0 0 60 0 60 30 0 c27 0 30 -3 30 -30 0 -27 3
-30 30 -30 27 0 30 3 30 30 0 27 -3 30 -30 30 -27 0 -30 3 -30 30 0 27 -3 30
-30 30 l-30 0 0 60 0 60 -60 0 -60 0 0 -30 c0 -27 -3 -30 -30 -30 -27 0 -30
-3 -30 -30 0 -27 -3 -30 -30 -30 -27 0 -30 3 -30 30 l0 30 -60 0 -60 0 0 -30
c0 -27 -3 -30 -30 -30 l-30 0 0 60 0 60 30 0 c27 0 30 3 30 30 0 27 3 30 30
30 27 0 30 -3 30 -30 l0 -30 60 0 60 0 0 30 c0 27 3 30 30 30 27 0 30 3 30 30
l0 30 150 0 150 0 0 30 c0 27 -3 30 -30 30 l-30 0 0 60 0 60 -30 0 c-27 0 -30
3 -30 30 l0 30 60 0 60 0 0 60 0 60 -30 0 c-27 0 -30 3 -30 30 0 27 3 30 30
30 l30 0 0 90 0 90 -90 0 -90 0 0 60 0 60 30 0 c27 0 30 3 30 30 0 27 -3 30
-30 30 -27 0 -30 3 -30 30 l0 30 90 0 90 0 0 30 c0 27 -3 30 -30 30 l-30 0 0
60 0 60 30 0 30 0 0 60 0 60 -30 0 -30 0 0 60 0 60 -30 0 c-27 0 -30 -3 -30
-30 0 -27 -3 -30 -30 -30 -27 0 -30 -3 -30 -30 l0 -30 60 0 60 0 0 -30 0 -30
-90 0 -90 0 0 60 0 60 -30 0 -30 0 0 -60 0 -60 30 0 c27 0 30 -3 30 -30 l0
-30 60 0 60 0 0 -30 0 -30 -90 0 -90 0 0 30 0 30 -60 0 -60 0 0 60 0 60 30 0
30 0 0 60 0 60 30 0 c27 0 30 3 30 30 0 27 -3 30 -30 30 l-30 0 0 60 0 60 30
0 c27 0 30 -3 30 -30 0 -27 3 -30 30 -30 27 0 30 -3 30 -30 0 -27 3 -30 30
-30 27 0 30 3 30 30 0 27 -3 30 -30 30 -27 0 -30 3 -30 30 l0 30 90 0 90 0 0
60 0 60 -30 0 c-27 0 -30 -3 -30 -30 l0 -30 -60 0 -60 0 0 -30 c0 -27 -3 -30
-30 -30 l-30 0 0 60 0 60 -60 0 -60 0 0 -90 0 -90 -60 0 -60 0 0 30 c0 27 -3
30 -30 30 l-30 0 0 60 0 60 60 0 60 0 0 60 0 60 -30 0 c-27 0 -30 -3 -30 -30
0 -27 -3 -30 -30 -30 l-30 0 0 60 0 60 30 0 30 0 0 150 0 150 -60 0 -60 0 0
-30 c0 -27 3 -30 30 -30 27 0 30 -3 30 -30 l0 -30 -60 0 -60 0 0 60 0 60 -30
0 c-27 0 -30 -3 -30 -30 0 -27 -3 -30 -30 -30 -27 0 -30 3 -30 30 l0 30 -60 0
-60 0 0 -60 0 -60 -60 0 -60 0 0 30 c0 27 3 30 30 30 27 0 30 3 30 30 l0 30
-120 0 -120 0 0 -30 c0 -27 -3 -30 -30 -30 -27 0 -30 3 -30 30 0 27 -3 30 -30
30 -27 0 -30 -3 -30 -30 l0 -30 -60 0 -60 0 0 30 0 30 -90 0 -90 0 0 -30 c0
-27 3 -30 30 -30 27 0 30 -3 30 -30 0 -27 -3 -30 -30 -30 -27 0 -30 -3 -30
-30 0 -27 -3 -30 -30 -30 -27 0 -30 -3 -30 -30 l0 -30 -60 0 -60 0 0 30 c0 27
3 30 30 30 l30 0 0 60 0 60 30 0 c27 0 30 3 30 30 l0 30 -90 0 -90 0 0 -30 c0
-27 -3 -30 -30 -30 -27 0 -30 3 -30 30 l0 30 -60 0 -60 0 0 -30 0 -30 60 0 60
0 0 -30 c0 -27 3 -30 30 -30 27 0 30 -3 30 -30 0 -27 -3 -30 -30 -30 l-30 0 0
-60 0 -60 -30 0 c-27 0 -30 -3 -30 -30 0 -27 -3 -30 -30 -30 -27 0 -30 3 -30
30 0 27 -3 30 -30 30 -27 0 -30 -3 -30 -30 0 -27 -3 -30 -30 -30 l-30 0 0 -60
0 -60 -30 0 -30 0 0 90 0 90 30 0 c27 0 30 3 30 30 l0 30 -60 0 -60 0 0 -30
c0 -27 -3 -30 -30 -30 -27 0 -30 3 -30 30 l0 30 -90 0 -90 0 0 30 c0 27 3 30
30 30 27 0 30 3 30 30 0 27 3 30 30 30 27 0 30 -3 30 -30 0 -27 3 -30 30 -30
l30 0 0 60 0 60 -60 0 -60 0 0 30 c0 27 -3 30 -30 30 l-30 0 0 -60z m1080 -60
l0 -60 30 0 c27 0 30 -3 30 -30 0 -27 3 -30 30 -30 27 0 30 3 30 30 0 27 3 30
30 30 27 0 30 -3 30 -30 l0 -30 60 0 60 0 0 30 c0 27 -3 30 -30 30 l-30 0 0
60 0 60 60 0 60 0 0 -30 c0 -27 -3 -30 -30 -30 -27 0 -30 -3 -30 -30 l0 -30
90 0 90 0 0 -30 c0 -27 -3 -30 -30 -30 -27 0 -30 -3 -30 -30 l0 -30 120 0 120
0 0 30 c0 27 -3 30 -30 30 -27 0 -30 3 -30 30 0 27 -3 30 -30 30 -27 0 -30 3
-30 30 0 27 3 30 30 30 27 0 30 3 30 30 0 27 3 30 30 30 27 0 30 -3 30 -30 0
-27 -3 -30 -30 -30 -27 0 -30 -3 -30 -30 0 -27 3 -30 30 -30 27 0 30 -3 30
-30 0 -27 3 -30 30 -30 27 0 30 3 30 30 0 27 3 30 30 30 27 0 30 -3 30 -30 0
-27 3 -30 30 -30 27 0 30 3 30 30 0 27 3 30 30 30 l30 0 0 -60 0 -60 -30 0
-30 0 0 -60 0 -60 30 0 c27 0 30 -3 30 -30 0 -27 -3 -30 -30 -30 -27 0 -30 -3
-30 -30 0 -27 -3 -30 -30 -30 -27 0 -30 3 -30 30 0 27 -3 30 -30 30 -27 0 -30
3 -30 30 0 27 -3 30 -30 30 -27 0 -30 -3 -30 -30 0 -27 -3 -30 -30 -30 -27 0
-30 -3 -30 -30 l0 -30 -60 0 -60 0 0 -30 0 -30 60 0 60 0 0 -30 c0 -27 3 -30
30 -30 l30 0 0 60 0 60 30 0 c27 0 30 -3 30 -30 0 -27 3 -30 30 -30 l30 0 0
-60 0 -60 -30 0 c-27 0 -30 -3 -30 -30 0 -27 3 -30 30 -30 l30 0 0 -90 0 -90
-30 0 c-27 0 -30 3 -30 30 0 27 -3 30 -30 30 -27 0 -30 3 -30 30 0 27 3 30 30
30 27 0 30 3 30 30 0 27 -3 30 -30 30 -27 0 -30 3 -30 30 0 27 -3 30 -30 30
l-30 0 0 -90 0 -90 -30 0 c-27 0 -30 -3 -30 -30 0 -27 3 -30 30 -30 27 0 30
-3 30 -30 0 -27 3 -30 30 -30 27 0 30 -3 30 -30 l0 -30 60 0 60 0 0 -30 c0
-27 3 -30 30 -30 l30 0 0 240 0 240 60 0 60 0 0 -30 0 -30 90 0 90 0 0 -30 0
-30 -90 0 -90 0 0 -30 c0 -27 -3 -30 -30 -30 l-30 0 0 -60 0 -60 30 0 c27 0
30 3 30 30 0 27 3 30 30 30 27 0 30 3 30 30 0 27 3 30 30 30 27 0 30 -3 30
-30 0 -27 -3 -30 -30 -30 l-30 0 0 -60 0 -60 30 0 30 0 0 -60 0 -60 30 0 c27
0 30 -3 30 -30 0 -27 3 -30 30 -30 27 0 30 3 30 30 0 27 3 30 30 30 27 0 30
-3 30 -30 0 -27 -3 -30 -30 -30 -27 0 -30 -3 -30 -30 l0 -30 60 0 60 0 0 -30
0 -30 -90 0 -90 0 0 -30 0 -30 60 0 60 0 0 -30 c0 -27 3 -30 30 -30 27 0 30
-3 30 -30 0 -27 3 -30 30 -30 27 0 30 -3 30 -30 0 -27 -3 -30 -30 -30 -27 0
-30 -3 -30 -30 0 -27 3 -30 30 -30 l30 0 0 -60 0 -60 -60 0 -60 0 0 90 0 90
-30 0 c-27 0 -30 3 -30 30 0 27 -3 30 -30 30 l-30 0 0 60 0 60 -30 0 c-27 0
-30 -3 -30 -30 0 -27 -3 -30 -30 -30 -27 0 -30 -3 -30 -30 0 -27 3 -30 30 -30
27 0 30 -3 30 -30 0 -27 -3 -30 -30 -30 -27 0 -30 3 -30 30 0 27 -3 30 -30 30
l-30 0 0 60 0 60 -60 0 -60 0 0 -30 c0 -27 -3 -30 -30 -30 -27 0 -30 3 -30 30
l0 30 -90 0 -90 0 0 -30 0 -30 60 0 60 0 0 -30 c0 -27 3 -30 30 -30 l30 0 0
-60 0 -60 -30 0 -30 0 0 -60 0 -60 30 0 c27 0 30 3 30 30 l0 30 60 0 60 0 0
30 c0 27 -3 30 -30 30 l-30 0 0 60 0 60 30 0 30 0 0 -60 0 -60 30 0 c27 0 30
-3 30 -30 0 -27 -3 -30 -30 -30 -27 0 -30 -3 -30 -30 0 -27 3 -30 30 -30 27 0
30 -3 30 -30 l0 -30 -60 0 -60 0 0 -30 0 -30 -60 0 -60 0 0 -60 0 -60 -30 0
c-27 0 -30 3 -30 30 0 27 -3 30 -30 30 l-30 0 0 -60 0 -60 -30 0 c-27 0 -30 3
-30 30 l0 30 -120 0 -120 0 0 -30 0 -30 -90 0 -90 0 0 -30 0 -30 60 0 60 0 0
-30 0 -30 60 0 60 0 0 -30 0 -30 -60 0 -60 0 0 -60 0 -60 -30 0 c-27 0 -30 3
-30 30 0 27 -3 30 -30 30 l-30 0 0 -90 0 -90 60 0 60 0 0 30 c0 27 3 30 30 30
27 0 30 -3 30 -30 0 -27 3 -30 30 -30 27 0 30 3 30 30 0 27 3 30 30 30 l30 0
0 -90 0 -90 30 0 30 0 0 120 0 120 -30 0 -30 0 0 60 0 60 30 0 c27 0 30 3 30
30 0 27 -3 30 -30 30 l-30 0 0 60 0 60 30 0 c27 0 30 -3 30 -30 l0 -30 90 0
90 0 0 30 c0 27 3 30 30 30 l30 0 0 -90 0 -90 60 0 60 0 0 -30 c0 -27 -3 -30
-30 -30 l-30 0 0 -90 0 -90 30 0 c27 0 30 3 30 30 0 27 3 30 30 30 27 0 30 3
30 30 l0 30 120 0 120 0 0 30 c0 27 3 30 30 30 27 0 30 3 30 30 0 27 3 30 30
30 27 0 30 -3 30 -30 0 -27 3 -30 30 -30 27 0 30 -3 30 -30 0 -27 -3 -30 -30
-30 -27 0 -30 -3 -30 -30 0 -27 -3 -30 -30 -30 -27 0 -30 -3 -30 -30 l0 -30
60 0 60 0 0 -30 0 -30 -60 0 -60 0 0 30 c0 27 -3 30 -30 30 l-30 0 0 -60 0
-60 -30 0 -30 0 0 -60 0 -60 30 0 30 0 0 -60 0 -60 60 0 60 0 0 -30 0 -30 -60
0 -60 0 0 30 c0 27 -3 30 -30 30 -27 0 -30 -3 -30 -30 l0 -30 -90 0 -90 0 0
30 0 30 -60 0 -60 0 0 -30 c0 -27 -3 -30 -30 -30 -27 0 -30 -3 -30 -30 0 -27
3 -30 30 -30 l30 0 0 -90 0 -90 -60 0 -60 0 0 30 c0 27 -3 30 -30 30 l-30 0 0
-60 0 -60 30 0 c27 0 30 -3 30 -30 0 -27 3 -30 30 -30 27 0 30 3 30 30 0 27 3
30 30 30 l30 0 0 -60 0 -60 30 0 c27 0 30 -3 30 -30 0 -27 -3 -30 -30 -30 -27
0 -30 3 -30 30 l0 30 -60 0 -60 0 0 -30 c0 -27 -3 -30 -30 -30 l-30 0 0 60 0
60 -30 0 c-27 0 -30 3 -30 30 0 27 -3 30 -30 30 -27 0 -30 3 -30 30 0 27 -3
30 -30 30 -27 0 -30 3 -30 30 0 27 -3 30 -30 30 -27 0 -30 3 -30 30 0 27 3 30
30 30 27 0 30 3 30 30 0 27 3 30 30 30 l30 0 0 60 0 60 -30 0 c-27 0 -30 -3
-30 -30 0 -27 -3 -30 -30 -30 -27 0 -30 -3 -30 -30 0 -27 -3 -30 -30 -30 l-30
0 0 -60 0 -60 -30 0 -30 0 0 90 0 90 30 0 c27 0 30 3 30 30 l0 30 -60 0 -60 0
0 60 0 60 -60 0 -60 0 0 -30 c0 -27 3 -30 30 -30 27 0 30 -3 30 -30 0 -27 -3
-30 -30 -30 l-30 0 0 -90 0 -90 -30 0 c-27 0 -30 3 -30 30 0 27 -3 30 -30 30
-27 0 -30 3 -30 30 0 27 3 30 30 30 27 0 30 3 30 30 0 27 -3 30 -30 30 -27 0
-30 3 -30 30 0 27 3 30 30 30 l30 0 0 60 0 60 90 0 90 0 0 30 0 30 -60 0 -60
0 0 60 0 60 -30 0 c-27 0 -30 -3 -30 -30 0 -27 -3 -30 -30 -30 -27 0 -30 -3
-30 -30 0 -27 -3 -30 -30 -30 -27 0 -30 -3 -30 -30 0 -27 3 -30 30 -30 27 0
30 -3 30 -30 0 -27 -3 -30 -30 -30 l-30 0 0 -60 0 -60 -30 0 c-27 0 -30 -3
-30 -30 0 -27 -3 -30 -30 -30 -27 0 -30 3 -30 30 0 27 -3 30 -30 30 -27 0 -30
-3 -30 -30 0 -27 -3 -30 -30 -30 l-30 0 0 -150 0 -150 60 0 60 0 0 -30 0 -30
-60 0 -60 0 0 30 0 30 -60 0 -60 0 0 -30 c0 -27 3 -30 30 -30 27 0 30 -3 30
-30 0 -27 3 -30 30 -30 27 0 30 -3 30 -30 0 -27 -3 -30 -30 -30 -27 0 -30 3
-30 30 0 27 -3 30 -30 30 -27 0 -30 3 -30 30 l0 30 -60 0 -60 0 0 -30 c0 -27
3 -30 30 -30 27 0 30 -3 30 -30 0 -27 -3 -30 -30 -30 -27 0 -30 3 -30 30 0 27
-3 30 -30 30 l-30 0 0 60 0 60 -30 0 -30 0 0 60 0 60 30 0 30 0 0 90 0 90 -30
0 c-27 0 -30 3 -30 30 0 27 -3 30 -30 30 -27 0 -30 -3 -30 -30 0 -27 -3 -30
-30 -30 l-30 0 0 -60 0 -60 -30 0 -30 0 0 -60 0 -60 30 0 c27 0 30 3 30 30 0
27 3 30 30 30 27 0 30 -3 30 -30 0 -27 -3 -30 -30 -30 -27 0 -30 -3 -30 -30 0
-27 -3 -30 -30 -30 -27 0 -30 3 -30 30 0 27 -3 30 -30 30 -27 0 -30 -3 -30
-30 0 -27 -3 -30 -30 -30 -27 0 -30 -3 -30 -30 0 -27 -3 -30 -30 -30 -27 0
-30 3 -30 30 0 27 -3 30 -30 30 l-30 0 0 60 0 60 -30 0 c-27 0 -30 3 -30 30 0
27 -3 30 -30 30 -27 0 -30 3 -30 30 0 27 3 30 30 30 27 0 30 3 30 30 0 27 3
30 30 30 27 0 30 -3 30 -30 0 -27 3 -30 30 -30 l30 0 0 90 0 90 -30 0 c-27 0
-30 -3 -30 -30 l0 -30 -90 0 -90 0 0 -30 0 -30 -60 0 -60 0 0 30 c0 27 -3 30
-30 30 -27 0 -30 3 -30 30 0 27 -3 30 -30 30 -27 0 -30 3 -30 30 0 27 -3 30
-30 30 -27 0 -30 3 -30 30 0 27 3 30 30 30 27 0 30 3 30 30 l0 30 60 0 60 0 0
-30 0 -30 -60 0 -60 0 0 -30 0 -30 60 0 60 0 0 -30 0 -30 150 0 150 0 0 60 0
60 -30 0 c-27 0 -30 -3 -30 -30 l0 -30 -90 0 -90 0 0 90 0 90 30 0 c27 0 30 3
30 30 l0 30 60 0 60 0 0 60 0 60 30 0 c27 0 30 3 30 30 l0 30 -60 0 -60 0 0
30 0 30 -60 0 -60 0 0 -30 c0 -27 3 -30 30 -30 27 0 30 -3 30 -30 0 -27 3 -30
30 -30 27 0 30 -3 30 -30 l0 -30 -60 0 -60 0 0 30 c0 27 -3 30 -30 30 l-30 0
0 -90 0 -90 -120 0 -120 0 0 30 c0 27 3 30 30 30 27 0 30 3 30 30 0 27 3 30
30 30 27 0 30 3 30 30 l0 30 -90 0 -90 0 0 30 0 30 60 0 60 0 0 30 0 30 60 0
60 0 0 -30 c0 -27 -3 -30 -30 -30 -27 0 -30 -3 -30 -30 l0 -30 60 0 60 0 0
120 0 120 -30 0 c-27 0 -30 -3 -30 -30 l0 -30 -120 0 -120 0 0 30 c0 27 -3 30
-30 30 -27 0 -30 3 -30 30 0 27 -3 30 -30 30 -27 0 -30 3 -30 30 0 27 3 30 30
30 27 0 30 3 30 30 0 27 -3 30 -30 30 -27 0 -30 3 -30 30 0 27 3 30 30 30 27
0 30 3 30 30 0 27 3 30 30 30 l30 0 0 90 0 90 -30 0 -30 0 0 60 0 60 -30 0
c-27 0 -30 3 -30 30 0 27 3 30 30 30 27 0 30 3 30 30 l0 30 60 0 60 0 0 30 c0
27 -3 30 -30 30 -27 0 -30 3 -30 30 l0 30 -60 0 -60 0 0 30 c0 27 3 30 30 30
27 0 30 3 30 30 0 27 3 30 30 30 27 0 30 -3 30 -30 0 -27 3 -30 30 -30 27 0
30 3 30 30 0 27 3 30 30 30 27 0 30 -3 30 -30 0 -27 3 -30 30 -30 27 0 30 3
30 30 l0 30 60 0 60 0 0 30 0 30 -90 0 -90 0 0 60 0 60 -30 0 -30 0 0 -60 0
-60 -30 0 -30 0 0 60 0 60 30 0 c27 0 30 3 30 30 l0 30 150 0 150 0 0 90 0 90
60 0 60 0 0 60 0 60 30 0 c27 0 30 3 30 30 0 27 3 30 30 30 27 0 30 -3 30 -30
0 -27 -3 -30 -30 -30 -27 0 -30 -3 -30 -30 l0 -30 60 0 60 0 0 -90 0 -90 30 0
30 0 0 90 0 90 30 0 30 0 0 -60 0 -60 30 0 30 0 0 150 0 150 -30 0 c-27 0 -30
3 -30 30 0 27 -3 30 -30 30 l-30 0 0 60 0 60 60 0 60 0 0 -30 c0 -27 3 -30 30
-30 l30 0 0 -60 0 -60 30 0 c27 0 30 -3 30 -30 0 -27 3 -30 30 -30 27 0 30 3
30 30 0 27 3 30 30 30 27 0 30 -3 30 -30 0 -27 3 -30 30 -30 l30 0 0 60 0 60
-30 0 c-27 0 -30 3 -30 30 0 27 3 30 30 30 27 0 30 -3 30 -30 0 -27 3 -30 30
-30 27 0 30 3 30 30 0 27 3 30 30 30 l30 0 0 -60 0 -60 30 0 c27 0 30 -3 30
-30 l0 -30 150 0 150 0 0 -60 0 -60 90 0 90 0 0 30 0 30 -60 0 -60 0 0 60 0
60 30 0 c27 0 30 3 30 30 0 27 -3 30 -30 30 -27 0 -30 3 -30 30 0 27 3 30 30
30 27 0 30 -3 30 -30 0 -27 3 -30 30 -30 27 0 30 3 30 30 0 27 3 30 30 30 27
0 30 -3 30 -30 0 -27 3 -30 30 -30 l30 0 0 90 0 90 -30 0 c-27 0 -30 -3 -30
-30 l0 -30 -90 0 -90 0 0 30 c0 27 3 30 30 30 27 0 30 3 30 30 0 27 -3 30 -30
30 l-30 0 0 60 0 60 30 0 30 0 0 -60z m-120 -90 c0 -27 -3 -30 -30 -30 -27 0
-30 3 -30 30 0 27 3 30 30 30 27 0 30 -3 30 -30z m-960 -60 c0 -27 -3 -30 -30
-30 -27 0 -30 3 -30 30 0 27 3 30 30 30 27 0 30 -3 30 -30z m720 -90 l0 -60
-30 0 -30 0 0 60 0 60 30 0 30 0 0 -60z m240 -30 l0 -90 -90 0 -90 0 0 90 0
90 90 0 90 0 0 -90z m-840 -180 c0 -27 -3 -30 -30 -30 -27 0 -30 3 -30 30 0
27 3 30 30 30 27 0 30 -3 30 -30z m-540 -240 c0 -27 -3 -30 -30 -30 -27 0 -30
3 -30 30 0 27 3 30 30 30 27 0 30 -3 30 -30z m2700 -900 l0 -90 -90 0 -90 0 0
90 0 90 90 0 90 0 0 -90z m-240 -180 c0 -27 3 -30 30 -30 27 0 30 3 30 30 0
27 3 30 30 30 l30 0 0 -60 0 -60 -30 0 c-27 0 -30 -3 -30 -30 0 -27 3 -30 30
-30 27 0 30 -3 30 -30 0 -27 -3 -30 -30 -30 -27 0 -30 3 -30 30 0 27 -3 30
-30 30 -27 0 -30 -3 -30 -30 0 -27 -3 -30 -30 -30 -27 0 -30 3 -30 30 l0 30
-60 0 -60 0 0 60 0 60 60 0 60 0 0 30 c0 27 3 30 30 30 27 0 30 -3 30 -30z
m420 -30 l0 -60 -60 0 -60 0 0 30 c0 27 -3 30 -30 30 l-30 0 0 -60 0 -60 -30
0 -30 0 0 60 0 60 30 0 c27 0 30 3 30 30 l0 30 90 0 90 0 0 -60z m-1020 -390
c0 -27 -3 -30 -30 -30 -27 0 -30 3 -30 30 0 27 3 30 30 30 27 0 30 -3 30 -30z
m960 -420 l0 -30 -60 0 -60 0 0 30 0 30 60 0 60 0 0 -30z m-2940 -60 l0 -30
-60 0 -60 0 0 30 0 30 60 0 60 0 0 -30z m1500 -240 l0 -90 -90 0 -90 0 0 90 0
90 90 0 90 0 0 -90z m1020 60 c0 -27 3 -30 30 -30 l30 0 0 -60 0 -60 -30 0
c-27 0 -30 3 -30 30 0 27 -3 30 -30 30 l-30 0 0 60 0 60 30 0 c27 0 30 -3 30
-30z m300 -60 l0 -90 -90 0 -90 0 0 90 0 90 90 0 90 0 0 -90z"/>
<path d="M2880 3330 l0 -90 30 0 30 0 0 90 0 90 -30 0 -30 0 0 -90z"/>
<path d="M2400 3300 l0 -60 -30 0 c-27 0 -30 -3 -30 -30 0 -27 -3 -30 -30 -30
-27 0 -30 3 -30 30 0 27 -3 30 -30 30 l-30 0 0 -90 0 -90 30 0 30 0 0 -90 0
-90 -30 0 c-27 0 -30 -3 -30 -30 0 -27 3 -30 30 -30 27 0 30 3 30 30 0 27 3
30 30 30 27 0 30 -3 30 -30 l0 -30 90 0 90 0 0 -30 c0 -27 -3 -30 -30 -30 -27
0 -30 -3 -30 -30 0 -27 3 -30 30 -30 27 0 30 -3 30 -30 l0 -30 -120 0 -120 0
0 60 0 60 -60 0 -60 0 0 -30 0 -30 -60 0 -60 0 0 30 c0 27 3 30 30 30 l30 0 0
60 0 60 -30 0 -30 0 0 60 0 60 -60 0 -60 0 0 30 0 30 -90 0 -90 0 0 30 c0 27
-3 30 -30 30 -27 0 -30 -3 -30 -30 l0 -30 -60 0 -60 0 0 -30 0 -30 -60 0 -60
0 0 -30 c0 -27 -3 -30 -30 -30 -27 0 -30 3 -30 30 0 27 -3 30 -30 30 l-30 0 0
-90 0 -90 -90 0 -90 0 0 -60 0 -60 -30 0 -30 0 0 60 0 60 -60 0 -60 0 0 30 c0
27 3 30 30 30 27 0 30 3 30 30 l0 30 -60 0 -60 0 0 -60 0 -60 30 0 c27 0 30
-3 30 -30 0 -27 3 -30 30 -30 27 0 30 -3 30 -30 l0 -30 -60 0 -60 0 0 30 c0
27 -3 30 -30 30 -27 0 -30 -3 -30 -30 0 -27 -3 -30 -30 -30 -27 0 -30 -3 -30
-30 0 -27 -3 -30 -30 -30 -27 0 -30 3 -30 30 l0 30 -60 0 -60 0 0 -30 0 -30
60 0 60 0 0 -30 c0 -27 3 -30 30 -30 27 0 30 3 30 30 0 27 3 30 30 30 27 0 30
-3 30 -30 0 -27 3 -30 30 -30 l30 0 0 -60 0 -60 60 0 60 0 0 -30 0 -30 -90 0
-90 0 0 30 c0 27 -3 30 -30 30 -27 0 -30 3 -30 30 0 27 -3 30 -30 30 -27 0
-30 -3 -30 -30 l0 -30 -60 0 -60 0 0 -30 0 -30 -60 0 -60 0 0 -30 c0 -27 3
-30 30 -30 l30 0 0 -60 0 -60 30 0 c27 0 30 -3 30 -30 l0 -30 -90 0 -90 0 0
-30 c0 -27 3 -30 30 -30 l30 0 0 -120 0 -120 -30 0 -30 0 0 -90 0 -90 -30 0
c-27 0 -30 -3 -30 -30 0 -27 3 -30 30 -30 27 0 30 -3 30 -30 0 -27 3 -30 30
-30 l30 0 0 60 0 60 30 0 c27 0 30 -3 30 -30 0 -27 3 -30 30 -30 27 0 30 -3
30 -30 0 -27 3 -30 30 -30 27 0 30 3 30 30 0 27 -3 30 -30 30 -27 0 -30 3 -30
30 l0 30 90 0 90 0 0 30 c0 27 3 30 30 30 27 0 30 3 30 30 0 27 -3 30 -30 30
-27 0 -30 3 -30 30 l0 30 60 0 60 0 0 -90 0 -90 -30 0 -30 0 0 -60 0 -60 90 0
90 0 0 -30 0 -30 -60 0 -60 0 0 -30 0 -30 90 0 90 0 0 -60 0 -60 -30 0 c-27 0
-30 -3 -30 -30 l0 -30 60 0 60 0 0 -30 0 -30 -90 0 -90 0 0 -60 0 -60 -60 0
-60 0 0 -30 0 -30 60 0 60 0 0 30 c0 27 3 30 30 30 27 0 30 3 30 30 l0 30 60
0 60 0 0 -60 0 -60 -30 0 c-27 0 -30 -3 -30 -30 0 -27 3 -30 30 -30 27 0 30 3
30 30 l0 30 60 0 60 0 0 -30 c0 -27 -3 -30 -30 -30 -27 0 -30 -3 -30 -30 0
-27 -3 -30 -30 -30 l-30 0 0 -120 0 -120 -60 0 -60 0 0 -30 0 -30 60 0 60 0 0
30 0 30 60 0 60 0 0 30 c0 27 -3 30 -30 30 -27 0 -30 3 -30 30 0 27 3 30 30
30 l30 0 0 90 0 90 30 0 c27 0 30 3 30 30 0 27 3 30 30 30 27 0 30 3 30 30 l0
30 -60 0 -60 0 0 30 c0 27 3 30 30 30 27 0 30 3 30 30 l0 30 60 0 60 0 0 -90
0 -90 30 0 c27 0 30 -3 30 -30 0 -27 3 -30 30 -30 27 0 30 3 30 30 0 27 3 30
30 30 27 0 30 -3 30 -30 0 -27 3 -30 30 -30 27 0 30 -3 30 -30 l0 -30 -120 0
-120 0 0 -30 c0 -27 3 -30 30 -30 27 0 30 -3 30 -30 0 -27 3 -30 30 -30 l30 0
0 -90 0 -90 -30 0 c-27 0 -30 -3 -30 -30 0 -27 3 -30 30 -30 27 0 30 -3 30
-30 l0 -30 60 0 60 0 0 30 c0 27 3 30 30 30 27 0 30 3 30 30 0 27 -3 30 -30
30 -27 0 -30 3 -30 30 0 27 -3 30 -30 30 l-30 0 0 60 0 60 -30 0 c-27 0 -30 3
-30 30 l0 30 60 0 60 0 0 -30 c0 -27 3 -30 30 -30 27 0 30 3 30 30 0 27 -3 30
-30 30 -27 0 -30 3 -30 30 l0 30 60 0 60 0 0 30 c0 27 3 30 30 30 27 0 30 -3
30 -30 l0 -30 60 0 60 0 0 30 c0 27 3 30 30 30 27 0 30 3 30 30 0 27 -3 30
-30 30 -27 0 -30 3 -30 30 0 27 3 30 30 30 27 0 30 3 30 30 0 27 -3 30 -30 30
-27 0 -30 3 -30 30 l0 30 60 0 60 0 0 30 0 30 -60 0 -60 0 0 -30 c0 -27 -3
-30 -30 -30 -27 0 -30 3 -30 30 0 27 -3 30 -30 30 l-30 0 0 60 0 60 120 0 120
0 0 -30 c0 -27 3 -30 30 -30 27 0 30 -3 30 -30 0 -27 3 -30 30 -30 l30 0 0 60
0 60 30 0 30 0 0 90 0 90 -30 0 -30 0 0 90 0 90 30 0 c27 0 30 -3 30 -30 0
-27 3 -30 30 -30 27 0 30 3 30 30 0 27 3 30 30 30 27 0 30 3 30 30 l0 30 90 0
90 0 0 -30 c0 -27 3 -30 30 -30 27 0 30 3 30 30 l0 30 90 0 90 0 0 30 c0 27 3
30 30 30 27 0 30 3 30 30 0 27 -3 30 -30 30 -27 0 -30 3 -30 30 0 27 -3 30
-30 30 l-30 0 0 90 0 90 -30 0 -30 0 0 60 0 60 30 0 c27 0 30 3 30 30 0 27 3
30 30 30 27 0 30 3 30 30 0 27 3 30 30 30 27 0 30 3 30 30 0 27 3 30 30 30 27
0 30 3 30 30 l0 30 -90 0 -90 0 0 30 c0 27 -3 30 -30 30 -27 0 -30 -3 -30 -30
0 -27 3 -30 30 -30 27 0 30 -3 30 -30 0 -27 3 -30 30 -30 27 0 30 -3 30 -30 0
-27 -3 -30 -30 -30 -27 0 -30 -3 -30 -30 0 -27 -3 -30 -30 -30 -27 0 -30 3
-30 30 l0 30 -60 0 -60 0 0 30 c0 27 -3 30 -30 30 -27 0 -30 3 -30 30 l0 30
60 0 60 0 0 120 0 120 30 0 30 0 0 60 0 60 -30 0 -30 0 0 60 0 60 -60 0 -60 0
0 30 c0 27 3 30 30 30 27 0 30 3 30 30 0 27 3 30 30 30 27 0 30 3 30 30 l0 30
-60 0 -60 0 0 -30 c0 -27 -3 -30 -30 -30 l-30 0 0 90 0 90 30 0 c27 0 30 -3
30 -30 0 -27 3 -30 30 -30 l30 0 0 60 0 60 -90 0 -90 0 0 -60z m0 -210 c0 -27
3 -30 30 -30 27 0 30 -3 30 -30 0 -27 3 -30 30 -30 27 0 30 -3 30 -30 0 -27 3
-30 30 -30 27 0 30 -3 30 -30 0 -27 3 -30 30 -30 27 0 30 -3 30 -30 0 -27 -3
-30 -30 -30 -27 0 -30 3 -30 30 0 27 -3 30 -30 30 -27 0 -30 3 -30 30 0 27 -3
30 -30 30 -27 0 -30 3 -30 30 0 27 -3 30 -30 30 -27 0 -30 -3 -30 -30 0 -27
-3 -30 -30 -30 l-30 0 0 60 0 60 -30 0 c-27 0 -30 3 -30 30 l0 30 60 0 60 0 0
-30z m-600 -120 l0 -30 -60 0 -60 0 0 -60 0 -60 -30 0 -30 0 0 -60 0 -60 30 0
c27 0 30 -3 30 -30 l0 -30 -60 0 -60 0 0 -30 0 -30 60 0 60 0 0 -30 c0 -27 3
-30 30 -30 27 0 30 -3 30 -30 0 -27 -3 -30 -30 -30 -27 0 -30 3 -30 30 l0 30
-60 0 -60 0 0 30 0 30 -120 0 -120 0 0 -30 0 -30 60 0 60 0 0 -30 c0 -27 3
-30 30 -30 27 0 30 -3 30 -30 l0 -30 60 0 60 0 0 -30 c0 -27 3 -30 30 -30 27
0 30 -3 30 -30 0 -27 3 -30 30 -30 27 0 30 3 30 30 0 27 3 30 30 30 27 0 30
-3 30 -30 0 -27 -3 -30 -30 -30 l-30 0 0 -60 0 -60 30 0 c27 0 30 3 30 30 0
27 3 30 30 30 27 0 30 3 30 30 0 27 3 30 30 30 27 0 30 3 30 30 0 27 -3 30
-30 30 -27 0 -30 3 -30 30 0 27 -3 30 -30 30 l-30 0 0 60 0 60 30 0 30 0 0 90
0 90 -30 0 c-27 0 -30 -3 -30 -30 0 -27 -3 -30 -30 -30 -27 0 -30 3 -30 30 0
27 3 30 30 30 l30 0 0 90 0 90 30 0 c27 0 30 3 30 30 l0 30 60 0 60 0 0 -30
c0 -27 3 -30 30 -30 27 0 30 -3 30 -30 0 -27 -3 -30 -30 -30 -27 0 -30 -3 -30
-30 l0 -30 -60 0 -60 0 0 -30 c0 -27 3 -30 30 -30 l30 0 0 -60 0 -60 30 0 30
0 0 60 0 60 30 0 30 0 0 -60 0 -60 60 0 60 0 0 -30 c0 -27 3 -30 30 -30 27 0
30 -3 30 -30 0 -27 3 -30 30 -30 27 0 30 3 30 30 0 27 3 30 30 30 27 0 30 3
30 30 l0 30 90 0 90 0 0 -30 0 -30 -90 0 -90 0 0 -30 0 -30 90 0 90 0 0 -60 0
-60 -90 0 -90 0 0 -60 0 -60 30 0 c27 0 30 3 30 30 0 27 3 30 30 30 l30 0 0
-120 0 -120 60 0 60 0 0 60 0 60 30 0 c27 0 30 -3 30 -30 0 -27 3 -30 30 -30
l30 0 0 -60 0 -60 30 0 c27 0 30 -3 30 -30 0 -27 -3 -30 -30 -30 -27 0 -30 -3
-30 -30 0 -27 -3 -30 -30 -30 -27 0 -30 -3 -30 -30 0 -27 -3 -30 -30 -30 l-30
0 0 60 0 60 30 0 30 0 0 60 0 60 -30 0 c-27 0 -30 -3 -30 -30 l0 -30 -60 0
-60 0 0 -30 c0 -27 3 -30 30 -30 27 0 30 -3 30 -30 l0 -30 -60 0 -60 0 0 -30
0 -30 -120 0 -120 0 0 -30 c0 -27 -3 -30 -30 -30 -27 0 -30 -3 -30 -30 l0 -30
-120 0 -120 0 0 30 c0 27 -3 30 -30 30 -27 0 -30 -3 -30 -30 0 -27 -3 -30 -30
-30 -27 0 -30 3 -30 30 0 27 -3 30 -30 30 -27 0 -30 3 -30 30 0 27 -3 30 -30
30 l-30 0 0 -90 0 -90 -30 0 c-27 0 -30 3 -30 30 0 27 -3 30 -30 30 -27 0 -30
3 -30 30 l0 30 -60 0 -60 0 0 90 0 90 30 0 c27 0 30 3 30 30 l0 30 60 0 60 0
0 30 c0 27 3 30 30 30 27 0 30 3 30 30 0 27 3 30 30 30 l30 0 0 90 0 90 -30 0
-30 0 0 -60 0 -60 -60 0 -60 0 0 30 c0 27 3 30 30 30 l30 0 0 60 0 60 -30 0
c-27 0 -30 -3 -30 -30 0 -27 -3 -30 -30 -30 -27 0 -30 3 -30 30 0 27 3 30 30
30 27 0 30 3 30 30 l0 30 -60 0 -60 0 0 -30 0 -30 -60 0 -60 0 0 30 0 30 60 0
60 0 0 30 c0 27 -3 30 -30 30 -27 0 -30 3 -30 30 0 27 -3 30 -30 30 -27 0 -30
-3 -30 -30 0 -27 -3 -30 -30 -30 l-30 0 0 -60 0 -60 -60 0 -60 0 0 -30 0 -30
120 0 120 0 0 -90 0 -90 -30 0 -30 0 0 -90 0 -90 30 0 c27 0 30 -3 30 -30 0
-27 -3 -30 -30 -30 -27 0 -30 -3 -30 -30 0 -27 3 -30 30 -30 l30 0 0 -60 0
-60 -60 0 -60 0 0 -30 c0 -27 3 -30 30 -30 27 0 30 -3 30 -30 0 -27 -3 -30
-30 -30 -27 0 -30 3 -30 30 l0 30 -60 0 -60 0 0 30 c0 27 -3 30 -30 30 -27 0
-30 -3 -30 -30 0 -27 -3 -30 -30 -30 -27 0 -30 3 -30 30 0 27 3 30 30 30 27 0
30 3 30 30 0 27 -3 30 -30 30 l-30 0 0 90 0 90 -90 0 -90 0 0 30 0 30 90 0 90
0 0 60 0 60 -30 0 c-27 0 -30 -3 -30 -30 l0 -30 -60 0 -60 0 0 30 0 30 60 0
60 0 0 30 c0 27 3 30 30 30 27 0 30 3 30 30 0 27 -3 30 -30 30 -27 0 -30 3
-30 30 0 27 -3 30 -30 30 -27 0 -30 3 -30 30 0 27 -3 30 -30 30 -27 0 -30 -3
-30 -30 0 -27 -3 -30 -30 -30 -27 0 -30 -3 -30 -30 l0 -30 -60 0 -60 0 0 30 0
30 60 0 60 0 0 30 0 30 -60 0 -60 0 0 30 0 30 60 0 60 0 0 30 c0 27 3 30 30
30 27 0 30 -3 30 -30 0 -27 3 -30 30 -30 27 0 30 -3 30 -30 0 -27 3 -30 30
-30 27 0 30 -3 30 -30 l0 -30 60 0 60 0 0 30 c0 27 3 30 30 30 l30 0 0 90 0
90 -60 0 -60 0 0 30 0 30 60 0 60 0 0 30 0 30 60 0 60 0 0 -30 c0 -27 3 -30
30 -30 27 0 30 3 30 30 0 27 3 30 30 30 27 0 30 3 30 30 0 27 3 30 30 30 27 0
30 3 30 30 0 27 -3 30 -30 30 -27 0 -30 3 -30 30 0 27 3 30 30 30 27 0 30 3
30 30 l0 30 60 0 60 0 0 30 c0 27 3 30 30 30 27 0 30 -3 30 -30 0 -27 3 -30
30 -30 l30 0 0 60 0 60 90 0 90 0 0 -30z m-540 -240 c0 -27 -3 -30 -30 -30
-27 0 -30 3 -30 30 0 27 3 30 30 30 27 0 30 -3 30 -30z m-360 -60 c0 -27 -3
-30 -30 -30 -27 0 -30 3 -30 30 0 27 3 30 30 30 27 0 30 -3 30 -30z m1380 -60
c0 -27 -3 -30 -30 -30 -27 0 -30 3 -30 30 0 27 3 30 30 30 27 0 30 -3 30 -30z
m300 -360 c0 -27 -3 -30 -30 -30 -27 0 -30 3 -30 30 0 27 3 30 30 30 27 0 30
-3 30 -30z m-1740 -60 c0 -27 -3 -30 -30 -30 -27 0 -30 3 -30 30 0 27 3 30 30
30 27 0 30 -3 30 -30z m600 -60 l0 -90 -30 0 c-27 0 -30 -3 -30 -30 0 -27 -3
-30 -30 -30 -27 0 -30 3 -30 30 0 27 3 30 30 30 l30 0 0 90 0 90 30 0 30 0 0
-90z m-780 0 c0 -27 -3 -30 -30 -30 -27 0 -30 3 -30 30 0 27 3 30 30 30 27 0
30 -3 30 -30z m60 -180 l0 -90 -90 0 -90 0 0 90 0 90 90 0 90 0 0 -90z m-60
-180 c0 -27 -3 -30 -30 -30 -27 0 -30 -3 -30 -30 0 -27 -3 -30 -30 -30 -27 0
-30 3 -30 30 0 27 -3 30 -30 30 -27 0 -30 3 -30 30 l0 30 90 0 90 0 0 -30z
m780 -180 c0 -27 -3 -30 -30 -30 -27 0 -30 -3 -30 -30 0 -27 3 -30 30 -30 27
0 30 -3 30 -30 l0 -30 60 0 60 0 0 30 c0 27 -3 30 -30 30 -27 0 -30 3 -30 30
l0 30 120 0 120 0 0 -60 0 -60 30 0 30 0 0 90 0 90 60 0 60 0 0 -90 0 -90 -60
0 -60 0 0 -60 0 -60 -30 0 c-27 0 -30 -3 -30 -30 0 -27 -3 -30 -30 -30 -27 0
-30 -3 -30 -30 l0 -30 60 0 60 0 0 30 c0 27 3 30 30 30 27 0 30 -3 30 -30 0
-27 3 -30 30 -30 l30 0 0 -60 0 -60 -30 0 c-27 0 -30 -3 -30 -30 l0 -30 60 0
60 0 0 -30 0 -30 -60 0 -60 0 0 30 c0 27 -3 30 -30 30 -27 0 -30 -3 -30 -30
l0 -30 -60 0 -60 0 0 30 c0 27 3 30 30 30 27 0 30 3 30 30 l0 30 -60 0 -60 0
0 30 c0 27 -3 30 -30 30 -27 0 -30 3 -30 30 0 27 -3 30 -30 30 -27 0 -30 3
-30 30 0 27 -3 30 -30 30 -27 0 -30 3 -30 30 0 27 -3 30 -30 30 -27 0 -30 3
-30 30 0 27 3 30 30 30 27 0 30 3 30 30 0 27 -3 30 -30 30 -27 0 -30 3 -30 30
0 27 -3 30 -30 30 -27 0 -30 3 -30 30 0 27 3 30 30 30 27 0 30 3 30 30 0 27 3
30 30 30 27 0 30 -3 30 -30z m660 -60 l0 -90 30 0 c27 0 30 -3 30 -30 0 -27
-3 -30 -30 -30 -27 0 -30 3 -30 30 0 27 -3 30 -30 30 -27 0 -30 3 -30 30 0 27
-3 30 -30 30 l-30 0 0 60 0 60 60 0 60 0 0 -90z m-960 0 c0 -27 -3 -30 -30
-30 -27 0 -30 3 -30 30 0 27 3 30 30 30 27 0 30 -3 30 -30z m1080 0 c0 -27 -3
-30 -30 -30 -27 0 -30 3 -30 30 0 27 3 30 30 30 27 0 30 -3 30 -30z m-960 -60
c0 -27 3 -30 30 -30 27 0 30 -3 30 -30 0 -27 -3 -30 -30 -30 -27 0 -30 3 -30
30 0 27 -3 30 -30 30 -27 0 -30 3 -30 30 0 27 3 30 30 30 27 0 30 -3 30 -30z
m-60 -150 l0 -60 30 0 c27 0 30 3 30 30 0 27 3 30 30 30 l30 0 0 -60 0 -60
-30 0 c-27 0 -30 -3 -30 -30 l0 -30 -60 0 -60 0 0 30 c0 27 3 30 30 30 27 0
30 3 30 30 0 27 -3 30 -30 30 l-30 0 0 60 0 60 30 0 30 0 0 -60z m480 -750 l0
-30 -60 0 -60 0 0 30 0 30 60 0 60 0 0 -30z"/>
<path d="M1500 2850 c0 -27 -3 -30 -30 -30 -27 0 -30 -3 -30 -30 0 -27 3 -30
30 -30 27 0 30 -3 30 -30 0 -27 3 -30 30 -30 l30 0 0 90 0 90 -30 0 c-27 0
-30 -3 -30 -30z"/>
<path d="M1860 2850 c0 -27 3 -30 30 -30 27 0 30 3 30 30 0 27 -3 30 -30 30
-27 0 -30 -3 -30 -30z"/>
<path d="M1860 2460 l0 -60 30 0 c27 0 30 -3 30 -30 0 -27 3 -30 30 -30 27 0
30 -3 30 -30 0 -27 3 -30 30 -30 27 0 30 -3 30 -30 l0 -30 90 0 90 0 0 30 0
30 -60 0 -60 0 0 30 0 30 90 0 90 0 0 30 c0 27 3 30 30 30 27 0 30 3 30 30 0
27 -3 30 -30 30 -27 0 -30 -3 -30 -30 l0 -30 -90 0 -90 0 0 60 0 60 -30 0 -30
0 0 -90 0 -90 -30 0 c-27 0 -30 3 -30 30 0 27 -3 30 -30 30 l-30 0 0 60 0 60
-30 0 -30 0 0 -60z"/>
<path d="M1080 2190 c0 -27 -3 -30 -30 -30 l-30 0 0 -90 0 -90 -30 0 c-27 0
-30 -3 -30 -30 l0 -30 60 0 60 0 0 -30 c0 -27 -3 -30 -30 -30 l-30 0 0 -60 0
-60 30 0 c27 0 30 -3 30 -30 l0 -30 60 0 60 0 0 30 c0 27 3 30 30 30 27 0 30
3 30 30 0 27 -3 30 -30 30 -27 0 -30 3 -30 30 0 27 3 30 30 30 27 0 30 3 30
30 0 27 -3 30 -30 30 l-30 0 0 60 0 60 -30 0 c-27 0 -30 -3 -30 -30 0 -27 -3
-30 -30 -30 l-30 0 0 90 0 90 30 0 c27 0 30 -3 30 -30 0 -27 3 -30 30 -30 27
0 30 3 30 30 0 27 3 30 30 30 27 0 30 3 30 30 0 27 -3 30 -30 30 -27 0 -30 -3
-30 -30 0 -27 -3 -30 -30 -30 -27 0 -30 3 -30 30 0 27 -3 30 -30 30 -27 0 -30
-3 -30 -30z m120 -300 c0 -27 -3 -30 -30 -30 -27 0 -30 3 -30 30 0 27 3 30 30
30 27 0 30 -3 30 -30z m0 -120 l0 -30 -60 0 -60 0 0 30 0 30 60 0 60 0 0 -30z"/>
<path d="M1860 2190 c0 -27 -3 -30 -30 -30 l-30 0 0 -90 0 -90 -30 0 c-27 0
-30 3 -30 30 0 27 -3 30 -30 30 -27 0 -30 -3 -30 -30 l0 -30 -60 0 -60 0 0
-60 0 -60 60 0 60 0 0 60 0 60 30 0 c27 0 30 -3 30 -30 0 -27 3 -30 30 -30 27
0 30 -3 30 -30 0 -27 -3 -30 -30 -30 l-30 0 0 -60 0 -60 30 0 c27 0 30 3 30
30 l0 30 60 0 60 0 0 -30 c0 -27 3 -30 30 -30 27 0 30 3 30 30 0 27 3 30 30
30 27 0 30 -3 30 -30 0 -27 3 -30 30 -30 l30 0 0 120 0 120 30 0 30 0 0 90 0
90 -30 0 c-27 0 -30 -3 -30 -30 0 -27 -3 -30 -30 -30 -27 0 -30 3 -30 30 0 27
-3 30 -30 30 -27 0 -30 -3 -30 -30 0 -27 -3 -30 -30 -30 l-30 0 0 60 0 60 -30
0 c-27 0 -30 -3 -30 -30z m180 -240 l0 -90 -90 0 -90 0 0 90 0 90 90 0 90 0 0
-90z"/>
<path d="M1920 1950 c0 -27 3 -30 30 -30 27 0 30 3 30 30 0 27 -3 30 -30 30
-27 0 -30 -3 -30 -30z"/>
<path d="M2220 2040 l0 -120 -30 0 c-27 0 -30 -3 -30 -30 l0 -30 60 0 60 0 0
30 c0 27 3 30 30 30 27 0 30 -3 30 -30 0 -27 3 -30 30 -30 27 0 30 3 30 30 0
27 -3 30 -30 30 -27 0 -30 3 -30 30 l0 30 60 0 60 0 0 30 0 30 -60 0 -60 0 0
30 c0 27 3 30 30 30 27 0 30 3 30 30 l0 30 -90 0 -90 0 0 -120z m120 -30 c0
-27 -3 -30 -30 -30 -27 0 -30 3 -30 30 0 27 3 30 30 30 27 0 30 -3 30 -30z"/>
<path d="M1440 1860 l0 -60 30 0 30 0 0 60 0 60 -30 0 -30 0 0 -60z"/>
<path d="M600 1950 c0 -27 3 -30 30 -30 27 0 30 3 30 30 0 27 -3 30 -30 30
-27 0 -30 -3 -30 -30z"/>
<path d="M1560 1410 l0 -30 -60 0 -60 0 0 -30 c0 -27 3 -30 30 -30 27 0 30 -3
30 -30 l0 -30 90 0 90 0 0 30 c0 27 3 30 30 30 l30 0 0 60 0 60 -30 0 c-27 0
-30 -3 -30 -30 0 -27 -3 -30 -30 -30 -27 0 -30 3 -30 30 0 27 -3 30 -30 30
-27 0 -30 -3 -30 -30z"/>
<path d="M1800 1170 c0 -27 -3 -30 -30 -30 -27 0 -30 -3 -30 -30 l0 -30 60 0
60 0 0 60 0 60 -30 0 c-27 0 -30 -3 -30 -30z"/>
<path d="M1200 3270 c0 -27 3 -30 30 -30 27 0 30 3 30 30 0 27 -3 30 -30 30
-27 0 -30 -3 -30 -30z"/>
<path d="M2640 3270 c0 -27 3 -30 30 -30 27 0 30 -3 30 -30 0 -27 3 -30 30
-30 27 0 30 3 30 30 0 27 3 30 30 30 27 0 30 3 30 30 0 27 -3 30 -30 30 -27 0
-30 -3 -30 -30 0 -27 -3 -30 -30 -30 -27 0 -30 3 -30 30 0 27 -3 30 -30 30
-27 0 -30 -3 -30 -30z"/>
<path d="M1320 3090 c0 -27 3 -30 30 -30 27 0 30 3 30 30 0 27 -3 30 -30 30
-27 0 -30 -3 -30 -30z"/>
<path d="M1440 3090 c0 -27 3 -30 30 -30 27 0 30 3 30 30 0 27 -3 30 -30 30
-27 0 -30 -3 -30 -30z"/>
<path d="M2700 2970 c0 -27 3 -30 30 -30 27 0 30 3 30 30 0 27 -3 30 -30 30
-27 0 -30 -3 -30 -30z"/>
<path d="M3060 2580 l0 -60 -30 0 c-27 0 -30 -3 -30 -30 0 -27 3 -30 30 -30
l30 0 0 -60 0 -60 30 0 c27 0 30 -3 30 -30 0 -27 3 -30 30 -30 l30 0 0 60 0
60 60 0 60 0 0 30 0 30 -60 0 -60 0 0 90 0 90 -60 0 -60 0 0 -60z m60 -90 c0
-27 3 -30 30 -30 27 0 30 -3 30 -30 0 -27 -3 -30 -30 -30 -27 0 -30 3 -30 30
0 27 -3 30 -30 30 -27 0 -30 3 -30 30 0 27 3 30 30 30 27 0 30 -3 30 -30z"/>
<path d="M2940 2340 l0 -60 30 0 30 0 0 60 0 60 -30 0 -30 0 0 -60z"/>
<path d="M2820 2130 c0 -27 3 -30 30 -30 27 0 30 3 30 30 0 27 -3 30 -30 30
-27 0 -30 -3 -30 -30z"/>
<path d="M2700 1470 c0 -27 -3 -30 -30 -30 l-30 0 0 -60 0 -60 30 0 c27 0 30
-3 30 -30 0 -27 3 -30 30 -30 27 0 30 3 30 30 0 27 3 30 30 30 27 0 30 3 30
30 0 27 3 30 30 30 27 0 30 3 30 30 0 27 -3 30 -30 30 -27 0 -30 3 -30 30 l0
30 -60 0 -60 0 0 -30z m60 -60 c0 -27 -3 -30 -30 -30 -27 0 -30 3 -30 30 0 27
3 30 30 30 27 0 30 -3 30 -30z"/>
<path d="M600 1230 c0 -27 3 -30 30 -30 27 0 30 3 30 30 0 27 -3 30 -30 30
-27 0 -30 -3 -30 -30z"/>
<path d="M3060 1230 c0 -27 3 -30 30 -30 27 0 30 -3 30 -30 l0 -30 -60 0 -60
0 0 -60 0 -60 30 0 c27 0 30 3 30 30 0 27 3 30 30 30 27 0 30 3 30 30 0 27 3
30 30 30 27 0 30 -3 30 -30 0 -27 3 -30 30 -30 l30 0 0 60 0 60 30 0 c27 0 30
3 30 30 l0 30 -120 0 -120 0 0 -30z"/>
<path d="M2400 1170 c0 -27 3 -30 30 -30 27 0 30 3 30 30 0 27 -3 30 -30 30
-27 0 -30 -3 -30 -30z"/>
<path d="M2700 1140 l0 -60 60 0 60 0 0 -30 c0 -27 -3 -30 -30 -30 -27 0 -30
-3 -30 -30 0 -27 3 -30 30 -30 l30 0 0 -60 0 -60 -30 0 c-27 0 -30 3 -30 30 0
27 -3 30 -30 30 -27 0 -30 3 -30 30 0 27 -3 30 -30 30 -27 0 -30 3 -30 30 0
27 -3 30 -30 30 -27 0 -30 3 -30 30 0 27 -3 30 -30 30 -27 0 -30 -3 -30 -30 0
-27 -3 -30 -30 -30 l-30 0 0 -90 0 -90 60 0 60 0 0 30 0 30 60 0 60 0 0 -60 0
-60 60 0 60 0 0 30 0 30 60 0 60 0 0 30 c0 27 3 30 30 30 27 0 30 3 30 30 0
27 -3 30 -30 30 -27 0 -30 3 -30 30 0 27 -3 30 -30 30 -27 0 -30 3 -30 30 0
27 3 30 30 30 27 0 30 3 30 30 0 27 -3 30 -30 30 -27 0 -30 3 -30 30 l0 30
-90 0 -90 0 0 -60z m-120 -150 c0 -27 -3 -30 -30 -30 -27 0 -30 3 -30 30 0 27
3 30 30 30 27 0 30 -3 30 -30z m300 0 c0 -27 3 -30 30 -30 27 0 30 -3 30 -30
0 -27 -3 -30 -30 -30 -27 0 -30 3 -30 30 0 27 -3 30 -30 30 -27 0 -30 3 -30
30 0 27 3 30 30 30 27 0 30 -3 30 -30z"/>
<path d="M2340 990 c0 -27 3 -30 30 -30 27 0 30 3 30 30 0 27 -3 30 -30 30
-27 0 -30 -3 -30 -30z"/>
<path d="M3120 930 c0 -27 3 -30 30 -30 27 0 30 -3 30 -30 0 -27 3 -30 30 -30
l30 0 0 60 0 60 -60 0 -60 0 0 -30z"/>
<path d="M1320 870 c0 -27 3 -30 30 -30 27 0 30 3 30 30 0 27 -3 30 -30 30
-27 0 -30 -3 -30 -30z"/>
<path d="M2640 690 c0 -27 3 -30 30 -30 27 0 30 -3 30 -30 0 -27 3 -30 30 -30
27 0 30 3 30 30 0 27 -3 30 -30 30 -27 0 -30 3 -30 30 0 27 -3 30 -30 30 -27
0 -30 -3 -30 -30z"/>
<path d="M1920 3270 c0 -27 3 -30 30 -30 27 0 30 3 30 30 0 27 -3 30 -30 30
-27 0 -30 -3 -30 -30z"/>
<path d="M3240 1950 c0 -27 3 -30 30 -30 27 0 30 3 30 30 0 27 -3 30 -30 30
-27 0 -30 -3 -30 -30z"/>
<path d="M3060 1650 c0 -27 3 -30 30 -30 27 0 30 3 30 30 0 27 -3 30 -30 30
-27 0 -30 -3 -30 -30z"/>
<path d="M1920 630 c0 -27 3 -30 30 -30 27 0 30 3 30 30 0 27 -3 30 -30 30
-27 0 -30 -3 -30 -30z"/>
<path d="M3240 630 c0 -27 3 -30 30 -30 27 0 30 3 30 30 0 27 -3 30 -30 30
-27 0 -30 -3 -30 -30z"/>
<path d="M1320 3630 c0 -27 3 -30 30 -30 27 0 30 -3 30 -30 0 -27 3 -30 30
-30 27 0 30 -3 30 -30 0 -27 3 -30 30 -30 27 0 30 -3 30 -30 0 -27 3 -30 30
-30 27 0 30 3 30 30 0 27 3 30 30 30 27 0 30 3 30 30 0 27 -3 30 -30 30 -27 0
-30 -3 -30 -30 0 -27 -3 -30 -30 -30 -27 0 -30 3 -30 30 0 27 -3 30 -30 30
-27 0 -30 3 -30 30 0 27 3 30 30 30 27 0 30 3 30 30 0 27 -3 30 -30 30 -27 0
-30 -3 -30 -30 0 -27 -3 -30 -30 -30 -27 0 -30 3 -30 30 0 27 -3 30 -30 30
-27 0 -30 -3 -30 -30z"/>
<path d="M3240 3450 l0 -210 210 0 210 0 0 210 0 210 -210 0 -210 0 0 -210z
m360 0 l0 -150 -150 0 -150 0 0 150 0 150 150 0 150 0 0 -150z"/>
<path d="M3360 3450 l0 -90 90 0 90 0 0 90 0 90 -90 0 -90 0 0 -90z"/>
<path d="M3540 2970 l0 -30 60 0 60 0 0 30 0 30 -60 0 -60 0 0 -30z"/>
<path d="M3600 1530 c0 -27 -3 -30 -30 -30 -27 0 -30 -3 -30 -30 l0 -30 60 0
60 0 0 60 0 60 -30 0 c-27 0 -30 -3 -30 -30z"/>
<path d="M240 450 l0 -210 210 0 210 0 0 210 0 210 -210 0 -210 0 0 -210z
m360 0 l0 -150 -150 0 -150 0 0 150 0 150 150 0 150 0 0 -150z"/>
<path d="M360 450 l0 -90 90 0 90 0 0 90 0 90 -90 0 -90 0 0 -90z"/>
<path d="M3540 570 l0 -30 60 0 60 0 0 30 0 30 -60 0 -60 0 0 -30z"/>
<path d="M2280 510 l0 -30 -60 0 -60 0 0 -30 0 -30 -60 0 -60 0 0 -60 0 -60
-30 0 c-27 0 -30 -3 -30 -30 0 -27 3 -30 30 -30 27 0 30 3 30 30 0 27 3 30 30
30 27 0 30 -3 30 -30 l0 -30 60 0 60 0 0 30 c0 27 3 30 30 30 27 0 30 3 30 30
0 27 3 30 30 30 l30 0 0 90 0 90 -30 0 c-27 0 -30 -3 -30 -30z m-60 -120 c0
-27 -3 -30 -30 -30 -27 0 -30 -3 -30 -30 0 -27 -3 -30 -30 -30 -27 0 -30 3
-30 30 0 27 3 30 30 30 27 0 30 3 30 30 0 27 3 30 30 30 27 0 30 -3 30 -30z"/>
<path d="M1260 300 l0 -60 30 0 30 0 0 60 0 60 -30 0 -30 0 0 -60z"/>
<path d="M2400 330 c0 -27 -3 -30 -30 -30 -27 0 -30 -3 -30 -30 0 -27 3 -30
30 -30 27 0 30 3 30 30 l0 30 90 0 90 0 0 30 0 30 -90 0 -90 0 0 -30z"/>
<path d="M3600 270 c0 -27 3 -30 30 -30 27 0 30 3 30 30 0 27 -3 30 -30 30
-27 0 -30 -3 -30 -30z"/>
</g>
</svg>
