<?xml version="1.0" encoding="UTF-8"?>
<!DOCTYPE svg PUBLIC "-//W3C//DTD SVG 1.1//EN" "http://www.w3.org/Graphics/SVG/1.1/DTD/svg11.dtd">
<svg xmlns="http://www.w3.org/2000/svg" version="1.1" width="1883px" height="1882px" style="shape-rendering:geometricPrecision; text-rendering:geometricPrecision; image-rendering:optimizeQuality; fill-rule:evenodd; clip-rule:evenodd" xmlns:xlink="http://www.w3.org/1999/xlink">
<g><path style="opacity:0.999" fill="#1f1f1d" d="M 898.5,-0.5 C 904.5,-0.5 910.5,-0.5 916.5,-0.5C 933.5,0.833333 950.5,0.833333 967.5,-0.5C 973.5,-0.5 979.5,-0.5 985.5,-0.5C 982.359,0.321287 979.025,0.821287 975.5,1C 988.825,0.692956 1002.16,0.692956 1015.5,1C 1026.45,2.64705 1037.45,4.48038 1048.5,6.5C 1051.13,5.56007 1053.8,5.3934 1056.5,6C 1054.4,6.55563 1054.24,7.05563 1056,7.5C 1068.38,7.1458 1080.55,8.81246 1092.5,12.5C 1104.19,11.4699 1115.35,13.4699 1126,18.5C 1128.34,18.5105 1130.67,18.5105 1133,18.5C 1133.95,18.9054 1134.61,19.572 1135,20.5C 1141.31,20.4477 1147.48,21.7811 1153.5,24.5C 1154.29,24.0688 1155.13,23.7355 1156,23.5C 1157.01,23.8919 1157.51,24.5585 1157.5,25.5C 1164.82,24.8254 1171.65,26.4921 1178,30.5C 1179.05,29.4829 1180.22,29.3162 1181.5,30C 1180.3,30.6543 1180.3,31.1543 1181.5,31.5C 1182.29,31.0688 1183.13,30.7355 1184,30.5C 1186.42,31.4738 1188.92,32.1405 1191.5,32.5C 1193.9,34.1999 1196.57,35.5332 1199.5,36.5C 1200.29,36.0688 1201.13,35.7355 1202,35.5C 1207.29,36.9265 1212.29,38.9265 1217,41.5C 1217.41,41.0426 1217.91,40.7093 1218.5,40.5C 1223.04,42.1782 1227.7,43.3449 1232.5,44C 1234.82,46.8069 1237.48,47.9735 1240.5,47.5C 1246.19,48.7088 1251.36,51.0421 1256,54.5C 1261.32,53.8901 1265.99,55.5567 1270,59.5C 1270.41,59.0426 1270.91,58.7093 1271.5,58.5C 1282.16,62.15 1292.66,66.8167 1303,72.5C 1303.41,72.0426 1303.91,71.7093 1304.5,71.5C 1308.91,73.4532 1313.08,75.7866 1317,78.5C 1317.41,78.0426 1317.91,77.7093 1318.5,77.5C 1320.62,78.9459 1322.95,79.6126 1325.5,79.5C 1325.61,82.5341 1326.94,83.5341 1329.5,82.5C 1335.76,86.4336 1342.43,89.4336 1349.5,91.5C 1350.29,92.2421 1350.95,93.0754 1351.5,94C 1356.71,95.2738 1361.38,97.6071 1365.5,101C 1368.17,101.667 1370.83,102.333 1373.5,103C 1374.16,104.905 1375.32,106.405 1377,107.5C 1378.77,106.724 1380.6,106.89 1382.5,108C 1381.83,108.333 1381.17,108.667 1380.5,109C 1384.5,111.422 1388.83,113.088 1393.5,114C 1393.17,114.333 1392.83,114.667 1392.5,115C 1426.34,133.105 1459.01,153.771 1490.5,177C 1495.21,180.566 1500.55,184.233 1506.5,188C 1509.5,192.118 1513.5,194.785 1518.5,196C 1517.83,196.333 1517.17,196.667 1516.5,197C 1524.26,202.681 1532.26,209.014 1540.5,216C 1541.83,216.333 1543.17,216.667 1544.5,217C 1543.83,217.333 1543.17,217.667 1542.5,218C 1544.72,220.223 1547.39,221.556 1550.5,222C 1549.83,222.333 1549.17,222.667 1548.5,223C 1550.84,225.202 1553.51,226.702 1556.5,227.5C 1557.47,230.044 1559.13,232.211 1561.5,234C 1566.78,237.339 1571.11,241.005 1574.5,245C 1579.18,250.532 1584.51,255.032 1590.5,258.5C 1590.29,259.086 1589.96,259.586 1589.5,260C 1593.83,261.573 1596.99,264.407 1599,268.5C 1605.05,275.052 1611.55,281.052 1618.5,286.5C 1619.43,287.689 1619.76,289.022 1619.5,290.5C 1624.67,291.164 1627.84,294.164 1629,299.5C 1632,301.833 1635,304.167 1638,306.5C 1640.37,310.688 1643.03,314.688 1646,318.5C 1648.83,320 1651,322.167 1652.5,325C 1653.45,325.483 1654.45,325.649 1655.5,325.5C 1655.35,326.552 1655.52,327.552 1656,328.5C 1659.89,331.973 1663.56,335.64 1667,339.5C 1668.18,344.014 1670.85,347.347 1675,349.5C 1678.11,353.656 1680.94,357.989 1683.5,362.5C 1686.24,363.889 1688.4,365.889 1690,368.5C 1690.55,372.283 1692.55,374.95 1696,376.5C 1696.73,381.564 1699.39,385.23 1704,387.5C 1704.86,390.368 1706.53,392.702 1709,394.5C 1710.13,396.345 1710.63,398.345 1710.5,400.5C 1711.82,400.33 1712.99,400.663 1714,401.5C 1717.17,408.015 1721.17,414.015 1726,419.5C 1727.13,421.345 1727.63,423.345 1727.5,425.5C 1728.82,425.33 1729.99,425.663 1731,426.5C 1732,428.833 1733,431.167 1734,433.5C 1738.96,441.451 1744.29,449.117 1750,456.5C 1750.5,458.473 1750.66,460.473 1750.5,462.5C 1752.39,462.297 1753.89,462.963 1755,464.5C 1756.76,467.608 1757.59,470.941 1757.5,474.5C 1758.82,474.33 1759.99,474.663 1761,475.5C 1762.03,480.567 1764.37,484.9 1768,488.5C 1768.68,489.784 1768.52,490.951 1767.5,492C 1770.47,493.765 1772.64,496.265 1774,499.5C 1774.68,500.784 1774.52,501.951 1773.5,503C 1775.09,504.046 1776.59,505.213 1778,506.5C 1781.73,516.032 1786.39,525.032 1792,533.5C 1792.33,535.5 1792.67,537.5 1793,539.5C 1800.31,551.274 1805.81,563.774 1809.5,577C 1808.66,578.011 1808.33,579.178 1808.5,580.5C 1809.98,580.238 1811.31,580.571 1812.5,581.5C 1814.58,585.23 1815.74,589.23 1816,593.5C 1820.02,597.665 1821.52,602.498 1820.5,608C 1821.45,608.483 1822.45,608.649 1823.5,608.5C 1824.56,611.984 1825.56,615.484 1826.5,619C 1826.17,619.333 1825.83,619.667 1825.5,620C 1827.59,620.953 1827.93,622.286 1826.5,624C 1828.36,625.558 1829.86,627.391 1831,629.5C 1832.45,634.399 1833.28,639.399 1833.5,644.5C 1835.12,644.36 1836.29,645.027 1837,646.5C 1837.2,654.096 1839.2,661.096 1843,667.5C 1843.5,670.5 1844,673.5 1844.5,676.5C 1845.77,678.742 1846.94,681.075 1848,683.5C 1848.67,692.359 1850.17,701.026 1852.5,709.5C 1853.5,709.5 1854.5,709.5 1855.5,709.5C 1855.76,717.26 1856.76,724.927 1858.5,732.5C 1860.77,734.624 1862.11,737.29 1862.5,740.5C 1861.29,743.82 1861.29,747.153 1862.5,750.5C 1863.77,752.742 1864.94,755.075 1866,757.5C 1867.1,763.18 1868.27,768.847 1869.5,774.5C 1869.51,778.505 1869.51,782.505 1869.5,786.5C 1873.3,794.515 1874.3,802.848 1872.5,811.5C 1872.85,812.696 1873.35,812.696 1874,811.5C 1874.63,813.713 1874.46,815.88 1873.5,818C 1879.21,837.672 1881.21,857.672 1879.5,878C 1880.77,889.284 1881.77,900.451 1882.5,911.5C 1882.5,930.833 1882.5,950.167 1882.5,969.5C 1881.85,979.717 1880.85,990.05 1879.5,1000.5C 1879.98,1003.31 1880.32,1006.15 1880.5,1009C 1880.4,1011.3 1879.73,1013.3 1878.5,1015C 1879.96,1031.62 1878.3,1047.95 1873.5,1064C 1875.03,1066.33 1874.7,1068.33 1872.5,1070C 1873.13,1072.07 1873.47,1074.24 1873.5,1076.5C 1871.58,1083.7 1870.41,1091.04 1870,1098.5C 1869.73,1100.33 1868.89,1101.83 1867.5,1103C 1868.37,1112.12 1866.87,1120.95 1863,1129.5C 1862.33,1135.5 1861.67,1141.5 1861,1147.5C 1860.69,1150.64 1859.52,1153.3 1857.5,1155.5C 1856.32,1160.77 1855.66,1166.11 1855.5,1171.5C 1854.5,1171.5 1853.5,1171.5 1852.5,1171.5C 1850.59,1179.7 1849.09,1188.04 1848,1196.5C 1847.8,1198.29 1846.97,1199.62 1845.5,1200.5C 1844.68,1203.78 1844.18,1207.12 1844,1210.5C 1839.92,1217.5 1837.59,1225.17 1837,1233.5C 1835.67,1235.5 1834.33,1237.5 1833,1239.5C 1832.22,1244.88 1831.22,1250.21 1830,1255.5C 1826.63,1260.29 1824.46,1265.62 1823.5,1271.5C 1822.62,1272.25 1821.62,1272.75 1820.5,1273C 1821.91,1279.23 1820.08,1284.4 1815,1288.5C 1814.9,1292.36 1814.06,1296.03 1812.5,1299.5C 1811.68,1300.39 1810.68,1300.72 1809.5,1300.5C 1809.54,1303.91 1809.04,1307.24 1808,1310.5C 1801.7,1324.44 1795.36,1338.44 1789,1352.5C 1787.99,1353.34 1786.82,1353.67 1785.5,1353.5C 1785.67,1358.15 1784.17,1362.15 1781,1365.5C 1780.39,1370.78 1778.05,1375.11 1774,1378.5C 1773.68,1382.49 1772.01,1385.83 1769,1388.5C 1768.64,1390.61 1767.97,1392.61 1767,1394.5C 1765.99,1395.34 1764.82,1395.67 1763.5,1395.5C 1763.48,1397.93 1762.98,1400.26 1762,1402.5C 1758.01,1409.8 1754.01,1417.13 1750,1424.5C 1747.22,1429.75 1743.55,1434.41 1739,1438.5C 1737.42,1444.33 1734.75,1449.67 1731,1454.5C 1729.99,1455.34 1728.82,1455.67 1727.5,1455.5C 1727.56,1460.04 1725.56,1463.38 1721.5,1465.5C 1720.7,1467.08 1720.2,1468.74 1720,1470.5C 1718.99,1471.34 1717.82,1471.67 1716.5,1471.5C 1716.45,1475.8 1714.62,1479.14 1711,1481.5C 1710.64,1483.61 1709.97,1485.61 1709,1487.5C 1705.72,1490.54 1702.56,1493.54 1699.5,1496.5C 1696.41,1501.88 1693.25,1507.21 1690,1512.5C 1687.2,1515.32 1684.36,1517.99 1681.5,1520.5C 1675.67,1530.32 1668.5,1538.98 1660,1546.5C 1659.52,1547.45 1659.35,1548.45 1659.5,1549.5C 1658.5,1549.5 1657.5,1549.5 1656.5,1549.5C 1655.27,1552.57 1653.77,1555.57 1652,1558.5C 1647.12,1562.59 1642.45,1566.93 1638,1571.5C 1637.03,1575.99 1634.37,1578.99 1630,1580.5C 1628.29,1583.42 1626.46,1586.25 1624.5,1589C 1622.98,1590.01 1621.31,1590.51 1619.5,1590.5C 1619.76,1591.98 1619.43,1593.31 1618.5,1594.5C 1611.38,1601.74 1604.05,1608.74 1596.5,1615.5C 1594.69,1619.41 1591.69,1621.91 1587.5,1623C 1580.44,1630.39 1573.44,1637.72 1566.5,1645C 1565.17,1645.33 1563.83,1645.67 1562.5,1646C 1554.25,1654.75 1545.25,1662.59 1535.5,1669.5C 1534.38,1670.91 1533.38,1672.41 1532.5,1674C 1525.98,1676.2 1520.98,1680.2 1517.5,1686C 1514.76,1686.8 1512.09,1687.8 1509.5,1689C 1508.17,1689.67 1508.17,1690.33 1509.5,1691C 1505.47,1691.53 1502.8,1693.7 1501.5,1697.5C 1498.72,1698.39 1496.05,1699.56 1493.5,1701C 1493.83,1701.33 1494.17,1701.67 1494.5,1702C 1484.22,1708.03 1474.56,1714.86 1465.5,1722.5C 1462.54,1724.09 1459.54,1725.59 1456.5,1727C 1454.59,1728.2 1453.26,1729.87 1452.5,1732C 1450.21,1732.82 1447.88,1733.49 1445.5,1734C 1444.33,1735.75 1442.66,1736.75 1440.5,1737C 1440.83,1737.33 1441.17,1737.67 1441.5,1738C 1440.21,1738.49 1438.87,1738.66 1437.5,1738.5C 1437.5,1739.5 1437.5,1740.5 1437.5,1741.5C 1428.16,1746.17 1418.83,1750.83 1409.5,1755.5C 1408.53,1755.99 1407.53,1756.49 1406.5,1757C 1407.34,1758.67 1406.84,1758.83 1405,1757.5C 1403.51,1758.25 1403.35,1759.09 1404.5,1760C 1400.98,1761.23 1397.98,1763.23 1395.5,1766C 1392.42,1766.77 1389.42,1767.77 1386.5,1769C 1380.17,1771.92 1374.17,1775.42 1368.5,1779.5C 1354.84,1785.84 1341.84,1792.17 1329.5,1798.5C 1328.04,1797.39 1327.04,1797.89 1326.5,1800C 1322.83,1801.5 1319.17,1803 1315.5,1804.5C 1314.91,1804.29 1314.41,1803.96 1314,1803.5C 1312.35,1804.65 1310.85,1805.98 1309.5,1807.5C 1300.5,1810.67 1291.5,1813.84 1282.5,1817C 1277.47,1820.39 1272.14,1823.06 1266.5,1825C 1263.37,1825.39 1260.37,1826.23 1257.5,1827.5C 1256.2,1826.28 1255.2,1826.62 1254.5,1828.5C 1253.91,1828.29 1253.41,1827.96 1253,1827.5C 1248.76,1831.34 1243.93,1833 1238.5,1832.5C 1238.17,1833.17 1237.83,1833.83 1237.5,1834.5C 1236.83,1834.17 1236.17,1833.83 1235.5,1833.5C 1233.36,1834.81 1231.36,1836.31 1229.5,1838C 1226.96,1838.34 1224.46,1838.84 1222,1839.5C 1221.23,1839.36 1220.56,1839.02 1220,1838.5C 1212.09,1842.82 1204.09,1845.16 1196,1845.5C 1190.44,1849.66 1184.27,1851.33 1177.5,1850.5C 1169.98,1854.71 1161.98,1856.71 1153.5,1856.5C 1150.04,1857.73 1146.71,1859.23 1143.5,1861C 1140.24,1861.78 1137.07,1861.62 1134,1860.5C 1131.97,1861.64 1129.97,1862.64 1128,1863.5C 1127.13,1863.26 1126.29,1862.93 1125.5,1862.5C 1114.44,1866.39 1103.44,1868.39 1092.5,1868.5C 1080.77,1872.57 1068.77,1874.23 1056.5,1873.5C 1053.79,1875.65 1050.79,1875.98 1047.5,1874.5C 1023.43,1879.5 999.1,1881.33 974.5,1880C 977.365,1880.18 980.031,1880.68 982.5,1881.5C 975.833,1881.5 969.167,1881.5 962.5,1881.5C 948.5,1880.17 934.5,1880.17 920.5,1881.5C 913.833,1881.5 907.167,1881.5 900.5,1881.5C 905.985,1880.67 911.652,1880.17 917.5,1880C 901.159,1880.33 884.825,1880.17 868.5,1879.5C 857.311,1878.95 846.311,1877.28 835.5,1874.5C 832.311,1876.09 829.478,1875.76 827,1873.5C 815.047,1874.41 803.38,1872.74 792,1868.5C 780.164,1869.6 768.83,1867.6 758,1862.5C 757,1862.83 756,1863.17 755,1863.5C 754.333,1862.83 753.667,1862.17 753,1861.5C 752,1861.83 751,1862.17 750,1862.5C 748.989,1862.11 748.489,1861.44 748.5,1860.5C 747.232,1861.43 745.899,1861.59 744.5,1861C 745.696,1860.35 745.696,1859.85 744.5,1859.5C 742.554,1861.09 741.054,1860.75 740,1858.5C 736.476,1859.29 733.143,1858.62 730,1856.5C 726.541,1857.18 723.041,1857.02 719.5,1856C 709.731,1852.7 699.731,1850.03 689.5,1848C 688.708,1845.66 687.375,1845.16 685.5,1846.5C 684.808,1845.97 684.308,1845.31 684,1844.5C 677.833,1845.66 672.333,1844.16 667.5,1840C 659.425,1839.43 652.092,1836.93 645.5,1832.5C 643.902,1833.48 642.235,1833.65 640.5,1833C 637.029,1831.43 633.695,1829.6 630.5,1827.5C 629.833,1827.83 629.167,1828.17 628.5,1828.5C 622.322,1826.49 616.489,1823.83 611,1820.5C 610.586,1820.96 610.086,1821.29 609.5,1821.5C 603.595,1818.22 597.261,1816.05 590.5,1815C 588.089,1813.04 585.589,1811.21 583,1809.5C 582.586,1809.96 582.086,1810.29 581.5,1810.5C 572.421,1806.34 563.087,1802.17 553.5,1798C 549.581,1796.46 546.081,1794.29 543,1791.5C 542.586,1791.96 542.086,1792.29 541.5,1792.5C 537.25,1790.79 533.417,1788.46 530,1785.5C 528.16,1786.83 527.66,1786.67 528.5,1785C 524.363,1784.35 520.863,1782.52 518,1779.5C 516.16,1780.83 515.66,1780.67 516.5,1779C 512.782,1778.61 509.782,1776.95 507.5,1774C 505.833,1773.67 504.167,1773.33 502.5,1773C 502.833,1772.67 503.167,1772.33 503.5,1772C 499.218,1769.74 494.718,1767.91 490,1766.5C 487.558,1763.39 484.391,1761.55 480.5,1761C 480.833,1760.67 481.167,1760.33 481.5,1760C 471.79,1755.32 461.79,1749.82 451.5,1743.5C 443.271,1738.46 435.271,1733.13 427.5,1727.5C 424.793,1726.42 422.126,1725.42 419.5,1724.5C 419.191,1721.65 417.525,1720.15 414.5,1720C 414.833,1719.67 415.167,1719.33 415.5,1719C 405.63,1713.24 395.963,1707.24 386.5,1701C 385.4,1697.57 383.067,1695.57 379.5,1695C 373.689,1688.66 366.356,1683.32 357.5,1679C 353.44,1673.95 348.44,1669.95 342.5,1667C 341.624,1665.41 340.624,1663.91 339.5,1662.5C 336.067,1660.44 332.734,1658.27 329.5,1656C 327.586,1654.59 326.253,1652.75 325.5,1650.5C 321.431,1648.29 318.097,1645.12 315.5,1641C 314.552,1640.52 313.552,1640.35 312.5,1640.5C 310.624,1636.14 307.291,1633.3 302.5,1632C 297.843,1626.01 292.843,1620.34 287.5,1615C 284.483,1614.5 282.149,1613 280.5,1610.5C 280.709,1609.91 281.043,1609.41 281.5,1609C 278.483,1608.5 276.149,1607 274.5,1604.5C 274.709,1603.91 275.043,1603.41 275.5,1603C 272.483,1602.5 270.149,1601 268.5,1598.5C 268.709,1597.91 269.043,1597.41 269.5,1597C 262.892,1590.39 256.392,1583.89 250,1577.5C 246.965,1574.13 243.632,1571.13 240,1568.5C 238.1,1565.08 235.933,1561.75 233.5,1558.5C 224.746,1550.92 216.913,1542.58 210,1533.5C 209.585,1531.71 208.585,1530.38 207,1529.5C 206.51,1528.21 206.343,1526.87 206.5,1525.5C 205.5,1525.5 204.5,1525.5 203.5,1525.5C 203.028,1522.18 201.195,1519.85 198,1518.5C 197.862,1514.43 195.862,1511.77 192,1510.5C 188.937,1506.43 186.27,1502.1 184,1497.5C 182.846,1496.26 181.512,1495.26 180,1494.5C 179.862,1490.43 177.862,1487.77 174,1486.5C 173.594,1483.08 171.928,1480.42 169,1478.5C 168.435,1474.68 166.435,1472.02 163,1470.5C 162.506,1468.87 162.34,1467.2 162.5,1465.5C 160.61,1465.7 159.11,1465.04 158,1463.5C 155.127,1458.49 152.46,1453.49 150,1448.5C 146.497,1442.84 142.497,1437.51 138,1432.5C 136.073,1429.05 134.739,1425.39 134,1421.5C 129.335,1418.01 126.835,1413.34 126.5,1407.5C 125.178,1407.67 124.011,1407.34 123,1406.5C 120.455,1400.42 117.121,1394.75 113,1389.5C 111.084,1386.1 110.084,1382.43 110,1378.5C 105.761,1375.68 103.928,1371.68 104.5,1366.5C 103.178,1366.67 102.011,1366.34 101,1365.5C 99.0339,1360.55 96.7005,1355.88 94,1351.5C 92.7241,1348.63 92.5574,1345.8 93.5,1343C 90.5774,1342.79 88.7441,1341.29 88,1338.5C 87.7638,1336.24 87.2638,1334.07 86.5,1332C 86.8333,1331.67 87.1667,1331.33 87.5,1331C 83.7129,1328.96 81.2129,1325.8 80,1321.5C 77.4932,1316.57 75.8265,1311.24 75,1305.5C 74.1628,1303.16 72.8294,1301.16 71,1299.5C 68.3414,1292.5 65.3414,1285.5 62,1278.5C 59.2205,1271.71 57.2205,1264.71 56,1257.5C 52.253,1252.89 50.5864,1247.56 51,1241.5C 49.5869,1238.34 47.9203,1235.34 46,1232.5C 45.6667,1229.83 45.3333,1227.17 45,1224.5C 43.4138,1222.33 42.0804,1220 41,1217.5C 40.6259,1211.42 39.7926,1205.42 38.5,1199.5C 37.5,1199.5 36.5,1199.5 35.5,1199.5C 34.6069,1193.86 33.7736,1188.2 33,1182.5C 31.6422,1179.62 30.1422,1176.79 28.5,1174C 27.73,1170.32 27.73,1166.49 28.5,1162.5C 25.6198,1158.72 23.7865,1154.38 23,1149.5C 21.9477,1142.87 21.4477,1136.21 21.5,1129.5C 20.5,1129.5 19.5,1129.5 18.5,1129.5C 18.9506,1123.88 17.9506,1118.54 15.5,1113.5C 15.7093,1112.91 16.0426,1112.41 16.5,1112C 15.7944,1107.41 14.6277,1102.91 13,1098.5C 12.6617,1091.44 11.8284,1084.44 10.5,1077.5C 10.5698,1076.23 10.9032,1075.06 11.5,1074C 9.30165,1072.33 8.96832,1070.33 10.5,1068C 4.90806,1049.45 2.90806,1030.61 4.5,1011.5C 2.92138,1004.43 1.92138,997.268 1.5,990C 1.00649,972.999 0.339827,956.166 -0.5,939.5C -0.5,934.5 -0.5,929.5 -0.5,924.5C 0.221579,924.082 0.721579,923.416 1,922.5C 1.21391,904.743 2.38057,887.076 4.5,869.5C 3.42517,866.562 3.2585,863.562 4,860.5C 4.88934,861.888 5.38934,861.722 5.5,860C 4.90973,857.804 4.24306,855.638 3.5,853.5C 4.75113,841.825 6.25113,830.158 8,818.5C 8.83333,816.833 9.66667,815.167 10.5,813.5C 9.47978,811.568 9.31312,809.568 10,807.5C 10.6543,808.696 11.1543,808.696 11.5,807.5C 10.954,806.228 10.6207,804.894 10.5,803.5C 13.9655,786.324 16.6321,768.99 18.5,751.5C 19.5,751.5 20.5,751.5 21.5,751.5C 21.4133,744.46 21.9133,737.46 23,730.5C 24.4259,726.1 26.2592,721.933 28.5,718C 27.8922,716.769 27.5589,715.436 27.5,714C 28.2593,709.934 29.7593,705.767 32,701.5C 32.7512,694.736 33.9179,688.07 35.5,681.5C 36.5,681.5 37.5,681.5 38.5,681.5C 39.0845,674.743 40.2511,668.076 42,661.5C 42.7724,660.151 43.9391,659.318 45.5,659C 44.701,655.223 44.8676,651.39 46,647.5C 46.7096,646.027 47.8762,645.36 49.5,645.5C 50.6598,639.522 51.8265,633.522 53,627.5C 55.7885,624.021 57.1218,620.021 57,615.5C 57.7777,612.816 59.1111,610.483 61,608.5C 62.1635,601.852 64.6635,595.852 68.5,590.5C 69.2875,587.152 70.1208,583.818 71,580.5C 74.6412,576.549 76.6412,571.883 77,566.5C 80.4977,562.502 82.6644,557.835 83.5,552.5C 84.6888,551.571 86.0222,551.238 87.5,551.5C 87.2633,547.727 87.7633,544.06 89,540.5C 89.7096,539.027 90.8762,538.36 92.5,538.5C 92.1813,533.746 93.6813,529.746 97,526.5C 97.8688,521.868 99.8688,517.868 103,514.5C 107.512,505.321 111.845,495.988 116,486.5C 117.041,484.415 118.541,482.748 120.5,481.5C 121.271,479.138 122.105,476.804 123,474.5C 124.011,473.663 125.178,473.33 126.5,473.5C 126.541,468.654 128.374,464.654 132,461.5C 132.438,458.624 133.438,455.957 135,453.5C 143.195,441.762 150.862,429.762 158,417.5C 159.264,415.393 161.097,414.393 163.5,414.5C 164.88,408.299 168.047,402.966 173,398.5C 173.526,394.476 175.693,391.809 179.5,390.5C 181.901,386.606 184.068,382.606 186,378.5C 189.098,376.072 191.431,373.072 193,369.5C 196.607,368.093 198.607,365.426 199,361.5C 200.085,360.707 201.252,360.04 202.5,359.5C 204.768,354.744 207.602,350.411 211,346.5C 214.249,343.568 217.415,340.568 220.5,337.5C 220.787,334.329 222.454,332.329 225.5,331.5C 226.427,329.887 227.261,328.221 228,326.5C 231.77,322.68 235.77,319.014 240,315.5C 240.692,311.138 243.192,308.304 247.5,307C 250.507,304.834 252.507,302.001 253.5,298.5C 258.946,295.556 262.78,291.223 265,285.5C 266.356,284.62 267.856,284.286 269.5,284.5C 269.343,283.127 269.51,281.793 270,280.5C 274.527,275.973 279.027,271.473 283.5,267C 284.833,266.667 286.167,266.333 287.5,266C 286.273,264.413 286.606,263.079 288.5,262C 294.718,259.452 299.385,255.119 302.5,249C 308.103,247.062 312.103,243.396 314.5,238C 318.989,237.033 321.989,234.366 323.5,230C 326.877,229.276 329.21,227.276 330.5,224C 333.686,223.742 335.686,222.075 336.5,219C 339.734,216.73 343.067,214.563 346.5,212.5C 347.216,209.316 349.216,207.816 352.5,208C 355.166,205.855 357.166,203.355 358.5,200.5C 361.401,198.548 365.068,196.715 369.5,195C 371.394,193.899 372.061,192.566 371.5,191C 372.833,190.667 374.167,190.333 375.5,190C 379.643,185.767 383.977,181.767 388.5,178C 391.376,177.562 394.043,176.562 396.5,175C 395.833,174.667 395.167,174.333 394.5,174C 395.784,173.316 396.951,173.483 398,174.5C 399.487,173.747 399.654,172.914 398.5,172C 402.376,171.79 404.71,169.79 405.5,166C 409.363,164.813 413.03,163.147 416.5,161C 416.167,160.667 415.833,160.333 415.5,160C 418.177,159.751 420.51,158.751 422.5,157C 421.833,156.667 421.167,156.333 420.5,156C 427.912,152.171 435.245,148.171 442.5,144C 441.833,143.667 441.167,143.333 440.5,143C 441.784,142.316 442.951,142.483 444,143.5C 448.755,138.87 454.255,135.37 460.5,133C 459.833,132.667 459.167,132.333 458.5,132C 459.784,131.316 460.951,131.483 462,132.5C 463.875,129.813 466.375,127.979 469.5,127C 469.167,126.667 468.833,126.333 468.5,126C 472.115,125.268 475.448,123.935 478.5,122C 478.167,121.667 477.833,121.333 477.5,121C 483.896,118.259 490.23,115.426 496.5,112.5C 497.833,111.167 499.167,109.833 500.5,108.5C 505.472,107.345 510.138,105.511 514.5,103C 513.833,102.667 513.167,102.333 512.5,102C 514.397,100.89 516.23,100.724 518,101.5C 520.194,98.8194 523.027,97.3194 526.5,97C 525.833,96.6667 525.167,96.3333 524.5,96C 526.397,94.8903 528.23,94.7236 530,95.5C 536.488,91.5941 542.988,87.7608 549.5,84C 550.784,83.3162 551.951,83.4829 553,84.5C 562.17,79.0133 571.67,74.3466 581.5,70.5C 582.086,70.7093 582.586,71.0426 583,71.5C 587.52,67.7204 592.52,65.7204 598,65.5C 602.625,61.5855 607.791,59.5855 613.5,59.5C 614.386,58.675 614.719,57.675 614.5,56.5C 618.288,56.0679 621.955,55.0679 625.5,53.5C 626.803,54.7178 627.803,54.3845 628.5,52.5C 629.086,52.7093 629.586,53.0426 630,53.5C 634.027,50.9308 638.361,48.9308 643,47.5C 643.772,47.6448 644.439,47.9781 645,48.5C 648.841,46.3322 652.674,44.1656 656.5,42C 658.899,41.289 661.232,41.4557 663.5,42.5C 671.214,38.0776 679.048,35.7443 687,35.5C 691.968,32.5342 697.301,30.5342 703,29.5C 703.873,29.7355 704.707,30.0688 705.5,30.5C 708.206,28.1461 711.206,27.4794 714.5,28.5C 714.736,27.7528 715.07,26.9195 715.5,26C 719.548,24.9576 723.548,24.6243 727.5,25C 726.833,24.6667 726.167,24.3333 725.5,24C 727.035,23.5038 728.535,23.6705 730,24.5C 738.326,19.3344 747.326,17.3344 757,18.5C 768.293,14.6649 779.46,12.6649 790.5,12.5C 795.441,10.8242 800.441,9.32423 805.5,8C 813.546,7.59904 821.546,6.76571 829.5,5.5C 831.5,5.83333 833.5,6.16667 835.5,6.5C 842.586,4.23363 849.919,2.9003 857.5,2.5C 871.489,0.944264 885.489,0.61093 899.5,1.5C 901.167,1.33333 902.833,1.16667 904.5,1C 902.292,0.809116 900.292,0.309116 898.5,-0.5 Z"/></g>
<g><path style="opacity:1" fill="#fd8832" d="M 842.5,156.5 C 846.605,156.234 850.605,156.734 854.5,158C 855.137,160.243 855.47,162.576 855.5,165C 838.895,255.74 832.062,347.24 835,439.5C 836.405,482.736 842.071,525.403 852,567.5C 858.935,594.362 869.935,619.362 885,642.5C 915.312,682.219 955.479,698.719 1005.5,692C 1053.39,688.746 1086.89,665.246 1106,621.5C 1117.84,586.787 1122.17,551.12 1119,514.5C 1115.58,476.169 1105.92,439.502 1090,404.5C 1075.16,371.311 1057.66,339.811 1037.5,310C 1037.33,306.845 1038.83,305.345 1042,305.5C 1044.73,305.615 1047.23,306.448 1049.5,308C 1095.47,337.613 1137.63,372.113 1176,411.5C 1201.02,437.871 1221.35,467.538 1237,500.5C 1252.36,535.38 1257.02,571.713 1251,609.5C 1242.98,668.219 1224.65,723.552 1196,775.5C 1171.57,816.679 1147.91,858.346 1125,900.5C 1091.26,966.466 1102.43,1023.63 1158.5,1072C 1169.47,1081.49 1181.47,1089.49 1194.5,1096C 1224.15,1107.96 1253.48,1107.3 1282.5,1094C 1323.95,1072.21 1352.11,1039.05 1367,994.5C 1377.55,964.732 1381.55,934.065 1379,902.5C 1378.02,891.621 1376.02,880.954 1373,870.5C 1370.87,859.981 1375.03,856.481 1385.5,860C 1433.57,913.779 1473.4,973.279 1505,1038.5C 1524.8,1080.69 1535.63,1125.03 1537.5,1171.5C 1537.53,1224.66 1527.03,1275.66 1506,1324.5C 1460.75,1423.8 1395.25,1507.3 1309.5,1575C 1271.36,1604.41 1229.36,1627.08 1183.5,1643C 1169.62,1646.64 1155.62,1649.64 1141.5,1652C 1113.74,1655.15 1086.74,1652.15 1060.5,1643C 1046.7,1637.18 1034.53,1629.02 1024,1618.5C 1014.81,1604.53 1011.47,1589.2 1014,1572.5C 1017.68,1552.47 1024.34,1533.47 1034,1515.5C 1049.74,1484.34 1065.74,1453.34 1082,1422.5C 1101.57,1383.78 1115.57,1343.11 1124,1300.5C 1133.29,1244.77 1124.62,1192.1 1098,1142.5C 1085.23,1120.4 1070.9,1099.4 1055,1079.5C 1044.9,1068.16 1033.57,1058.49 1021,1050.5C 1019.29,1050.44 1017.96,1051.11 1017,1052.5C 1016.34,1063.24 1017.01,1073.91 1019,1084.5C 1026.62,1121.16 1031.62,1158.16 1034,1195.5C 1035.99,1232.92 1032.99,1269.92 1025,1306.5C 1018.61,1330.79 1006.44,1351.62 988.5,1369C 955.348,1394.29 918.015,1403.96 876.5,1398C 836.257,1386.47 805.09,1362.97 783,1327.5C 771.056,1303.93 756.389,1282.26 739,1262.5C 716.723,1238.91 689.889,1222.75 658.5,1214C 651.464,1212.24 644.464,1212.24 637.5,1214C 636.667,1214.83 635.833,1215.67 635,1216.5C 634.333,1219.83 634.333,1223.17 635,1226.5C 637,1229.17 639,1231.83 641,1234.5C 669.169,1260.81 688.169,1292.81 698,1330.5C 700.581,1341.73 702.581,1353.06 704,1364.5C 705.301,1401.24 707.634,1437.9 711,1474.5C 721.296,1552.06 760.129,1610.23 827.5,1649C 844.795,1658.56 862.295,1667.73 880,1676.5C 881.191,1684.97 877.524,1688.31 869,1686.5C 787.385,1675.81 708.885,1653.97 633.5,1621C 559.493,1588.98 496.993,1541.82 446,1479.5C 414.861,1438.83 392.861,1393.5 380,1343.5C 369.365,1285.96 371.699,1228.96 387,1172.5C 394.673,1147.15 403.34,1122.15 413,1097.5C 432.61,1050.67 452.61,1004 473,957.5C 482.679,933.105 488.013,907.771 489,881.5C 489.683,861.164 490.017,840.83 490,820.5C 480.05,787.571 461.217,761.071 433.5,741C 425.706,730.766 427.372,722.433 438.5,716C 463.236,715.798 486.236,722.131 507.5,735C 552.812,761.644 589.645,797.144 618,841.5C 638.381,880.451 645.381,921.784 639,965.5C 637.924,986.923 635.924,1008.26 633,1029.5C 630.671,1051.51 633.338,1072.85 641,1093.5C 649.899,1111.38 663.732,1123.88 682.5,1131C 723.47,1147.6 763.804,1146.27 803.5,1127C 824.729,1113.77 840.229,1095.6 850,1072.5C 863.66,1039.83 868.66,1005.83 865,970.5C 860.479,930.082 850.479,891.082 835,853.5C 829.667,841.5 824.333,829.5 819,817.5C 798.656,782.146 780.99,745.479 766,707.5C 739.965,634.916 726.465,560.083 725.5,483C 727.565,363.794 764.398,256.961 836,162.5C 838.063,160.266 840.229,158.266 842.5,156.5 Z"/></g>
<g><path style="opacity:0.049" fill="#000000" d="M 1409.5,1755.5 C 1410.24,1755.37 1410.91,1755.54 1411.5,1756C 1410.56,1756.69 1409.9,1756.53 1409.5,1755.5 Z"/></g>
</svg>
