<?xml version="1.0" encoding="utf-8"?>
<!DOCTYPE svg PUBLIC "-//W3C//DTD SVG 1.0//EN" "http://www.w3.org/TR/2001/REC-SVG-20010904/DTD/svg10.dtd">
<svg version="1.0" xmlns="http://www.w3.org/2000/svg" width="2196px" height="2196px" viewBox="0 0 2196 2196" preserveAspectRatio="xMidYMid meet">
 <g fill="#1f1f1f">
  <path d="M1048 2194 c-92.6 -4.7 -180 -19.6 -264.8 -45 -403.2 -120.9 -703.3 -464.1 -768.6 -879 -35.2 -223.8 -1.3 -451.2 97.3 -652.5 16 -32.7 27.5 -54 44.9 -82.8 98.9 -165.1 238.7 -300.7 407.2 -395.2 20 -11.2 69.9 -36.1 91 -45.4 108 -47.6 224.7 -77.9 341.5 -88.5 61.5 -5.7 131.7 -6 192 -1 226.4 18.7 438.2 105.6 613 251.5 46.6 38.9 95.3 87.4 134.9 134.3 95.2 112.7 166.7 243.3 210.2 384 41 132.5 56.4 274.8 44.8 414.6 -18.5 224.3 -105.5 437.1 -249.5 610 -30.6 36.7 -75.4 83.4 -108.4 113 -114.6 102.6 -242.3 177.5 -385 225.7 -90.5 30.6 -181.5 48.4 -282.5 55.3 -20.4 1.4 -97 2.1 -118 1z m-575.9 -410.8 c3.5 -1.7 43.6 -35.5 111.9 -94.2 264.7 -227.2 231.5 -201.6 261.7 -202.4 49.2 -1.2 104.3 -4.8 156.3 -10.1 133.3 -13.7 230.6 -37.7 275.5 -68.1 11.1 -7.5 12 -8.3 10.9 -9.3 -0.5 -0.5 -4.6 -4.1 -9.2 -8 -7.7 -6.6 -8.7 -7.1 -13 -7.1 -18.5 0 -89 -3.7 -125.2 -6.5 -186.2 -14.5 -321.7 -43.1 -402.9 -85.1 -59.1 -30.5 -95 -68.1 -115.6 -120.9 -18 -46 -31.7 -128.3 -40.2 -241.5 -1.4 -18.9 -1.8 -35.8 -1.8 -86.3 0 -34.5 -0.3 -62.7 -0.6 -62.7 -0.3 0 -10.1 1.6 -21.7 3.5 -87 14.4 -149.5 34.1 -182.7 57.7 -11.3 8 -23.1 20.6 -27.7 29.4 -9.1 17.4 -17.5 53.6 -24.2 104.4 -11.1 83.3 -13.3 156.7 -7 231 6.7 80.3 18.3 143.8 30.5 168.3 11.1 22.2 37 40.4 80 56.5 22.9 8.6 47.3 15.2 95.7 25.7 1.7 0.4 2.2 1.2 2.2 3.8 0 1.8 -20.5 69.2 -45.5 149.7 -36.6 117.8 -45.5 147.2 -45 150 1 6 5.4 13.8 10.1 17.9 8.5 7.5 18.4 9 27.5 4.3z m1252.4 -180.9 c3.7 -1.2 6.7 -3.3 11.6 -8.2 5.8 -5.8 7 -7.6 8.8 -13.5 1.2 -3.7 2.1 -7.5 2.1 -8.3 0 -0.8 -23.4 -76.7 -52 -168.8 -32.5 -104.5 -52 -168.9 -52 -171.4 0 -3.4 0.4 -4.1 2.3 -4.6 1.2 -0.3 9.6 -2.1 18.7 -4.1 83.5 -18.1 137.8 -40.4 165.9 -68.2 13.6 -13.5 19.3 -23.8 26 -47.2 13.4 -46.6 25.1 -136.2 29.2 -223 5 -105.4 -14.7 -277.9 -37.1 -325.8 -10.9 -23.3 -33.3 -41.8 -70.4 -58.5 -87.4 -39.1 -262.8 -66.4 -465.1 -72.2 -44 -1.3 -136.3 3.5 -211.5 11.1 -137.5 13.7 -241.6 36.6 -300 65.9 -33.7 16.9 -52.4 34.1 -61.9 57 -13.7 32.8 -26.4 110.5 -33.7 206 -2.1 28.5 -3 97.6 -1.5 125.8 4.7 89.2 17.5 180 31.3 221.7 6.2 18.9 11.7 27.8 25 40.6 36.5 35 117.4 61.9 244.3 81.3 82.9 12.6 211.1 23.1 283 23.1 16.3 0 16.3 0 213 168.8 108.2 92.8 198.3 169.6 200.3 170.6 9.1 4.8 13.6 5.1 23.7 1.9z"/>
  <path d="M990.5 935.5 c-16.1 -4.5 -32.6 -17.9 -39.7 -32.5 -5.7 -11.5 -7.1 -19 -6.5 -35 0.5 -14.7 1.8 -19.7 7.9 -31.3 7.2 -13.5 24.3 -26.5 39.9 -30.2 8.4 -1.9 27.4 -1.9 35.9 0.1 21.8 5.1 40.7 23.5 46.6 45.4 2.3 8.7 2.4 29.1 0.1 37.6 -6 22.6 -23.2 40.1 -45.2 45.9 -7.5 1.9 -31.8 1.9 -39 0z"/>
  <path d="M1275.2 935.6 c-20 -5 -36.8 -21 -44.4 -42.3 -2.9 -8.4 -3.7 -28.3 -1.4 -38.7 4.9 -22 20.2 -38.8 42.3 -46.8 8.2 -2.9 30 -3.7 39.8 -1.4 20.4 4.8 38.1 20.3 45.3 39.8 4.8 12.7 5.2 32.9 1.1 46.6 -5.6 18.5 -21 34.6 -39.6 41.4 -4.8 1.8 -8.5 2.2 -21.8 2.4 -10.9 0.2 -17.7 -0.1 -21.3 -1z"/>
  <path d="M1551.5 935.5 c-21.8 -6.2 -39.9 -24.9 -44.9 -46.5 -1.8 -7.4 -2.1 -25.1 -0.6 -32.9 2.4 -13 10.4 -26.9 20.2 -35.5 6.7 -5.9 18.7 -12.1 26.9 -14.1 8.4 -1.9 27.4 -1.9 35.9 0.1 21.8 5.1 40.8 23.6 46.6 45.4 2.3 8.8 2.3 29.1 0 37.9 -5.2 19.8 -19.9 36.2 -39.4 43.8 -6.1 2.4 -8.1 2.7 -23.2 2.9 -11.9 0.2 -17.9 -0.1 -21.5 -1.1z"/>
 </g>
 <g fill="#dae740">
  <path d="M454.1 1788.5 c-13.4 -3.8 -21.8 -14.1 -22.8 -27.9 -0.4 -5.8 2.1 -14.1 44.7 -151.1 24.8 -79.7 45.3 -145.8 45.6 -146.7 0.4 -1.2 -0.2 -1.9 -1.8 -2.2 -62.9 -13.8 -91.2 -22.3 -120.3 -36 -34.7 -16.5 -52.1 -33.5 -60.9 -59.8 -12.2 -36.5 -23.5 -115.8 -27.7 -194.3 -5.5 -103 12.2 -260.3 33.9 -301.9 4.6 -8.8 16.4 -21.4 27.7 -29.4 33.3 -23.7 97.4 -43.9 183.3 -57.7 11.9 -2 23.1 -3.7 24.7 -4 3 -0.5 3 -0.5 3 62.8 0 51.1 0.3 67.7 1.8 86.7 8.6 113.5 22.2 195.5 40.2 241.5 20.6 52.8 56.5 90.4 115.6 120.9 81.2 42 216.7 70.6 402.9 85.1 36.2 2.8 106.7 6.5 125.2 6.5 4.4 0 5.2 0.4 15.2 9.1 5.8 5 10.6 9.5 10.6 10 0 1.4 -15.1 12.3 -24 17.3 -38.3 21.5 -100.3 38.9 -186 52 -68.7 10.6 -158.7 18.3 -236.3 20.2 -30.2 0.8 2.8 -24.7 -261.7 202.4 -73.1 62.8 -108.2 92.3 -112 94.2 -7 3.5 -13.9 4.2 -20.9 2.3z"/>
  <path d="M1705.5 1606.7 c-2.2 -0.8 -5.6 -2.2 -7.7 -3.3 -2 -1 -92.1 -77.8 -200.3 -170.6 -196.7 -168.8 -196.7 -168.8 -213 -168.8 -71.9 0 -200.1 -10.5 -283 -23.1 -126.9 -19.4 -207.8 -46.3 -244.3 -81.3 -13.3 -12.8 -18.8 -21.7 -25 -40.6 -13.8 -41.7 -26.6 -132.5 -31.3 -221.6 -1.5 -28.8 -0.7 -103.5 1.5 -131.9 7.4 -95.9 20 -173.2 33.7 -206 13.3 -32 48.1 -56 111.4 -76.8 90.4 -29.8 243.5 -51 410 -56.8 90.1 -3.1 237.5 7.6 345.5 25.1 104.9 17.1 178.3 40.4 216.9 69 15 11.1 24.5 22.1 31.1 36.2 22.8 48.6 42.2 222.6 37.1 331.8 -4.1 86.8 -15.8 176.4 -29.2 223 -6.7 23.4 -12.4 33.7 -26 47.2 -28.7 28.4 -84.9 51.1 -172.2 69.7 -7.6 1.6 -14.1 3.2 -14.4 3.5 -0.4 0.3 22.8 76.2 51.5 168.5 36 115.7 52.2 169.4 52.2 172.4 0 2.5 -0.9 7.6 -2.1 11.3 -1.8 5.9 -3 7.7 -8.8 13.4 -4.7 4.8 -8 7.1 -11.6 8.4 -6.8 2.3 -17 2.9 -22 1.3z m-679 -674.2 c17.6 -4.6 32.6 -17 40.6 -33.5 4.4 -9.1 6.2 -17.2 6.2 -28 -0.1 -18.2 -5.7 -31.5 -18.7 -44.5 -12.8 -12.7 -26.7 -18.5 -44.6 -18.5 -27.6 0 -50.6 16.8 -60.1 43.7 -2.9 8.3 -3.6 24.6 -1.5 33.8 5.2 22.1 23.4 41 45.1 47 7 1.9 25.7 1.9 33 0z m288.8 -1.3 c28.1 -10.2 45.6 -38.7 41.7 -67.9 -2.1 -15.7 -8.2 -27.5 -20 -38.7 -12.6 -11.9 -27.6 -17.2 -46 -16.3 -17 0.9 -29.9 6.5 -41.7 18.4 -12.9 13 -19.1 29.6 -18 48.2 1 16.4 6.8 29.3 18.7 41.2 8.2 8.2 18.1 13.9 28.2 16.5 8.2 2.1 29.7 1.2 37.1 -1.4z m277.9 -0.5 c14.8 -5.7 26.7 -16.2 33.7 -29.6 5.5 -10.5 7.2 -17.6 7.3 -29.6 0.1 -18.7 -5.4 -31.8 -18.6 -45 -12.8 -12.7 -26.7 -18.5 -44.6 -18.5 -11 0 -19.4 2.1 -28.9 7 -31 16.2 -42.9 53.2 -27.3 85 5.1 10.5 16.9 22.3 27.2 27.4 11.9 5.8 15.7 6.6 31 6.2 11.7 -0.2 14.4 -0.6 20.2 -2.9z"/>
 </g>
</svg>