<?xml version="1.0" encoding="UTF-8"?>
<!DOCTYPE svg PUBLIC "-//W3C//DTD SVG 1.1//EN" "http://www.w3.org/Graphics/SVG/1.1/DTD/svg11.dtd">
<svg xmlns="http://www.w3.org/2000/svg" version="1.1" width="2196px" height="2196px" style="shape-rendering:geometricPrecision; text-rendering:geometricPrecision; image-rendering:optimizeQuality; fill-rule:evenodd; clip-rule:evenodd" xmlns:xlink="http://www.w3.org/1999/xlink">
<g><path style="opacity:0.999" fill="#1f1f1f" d="M 1067.5,-0.5 C 1087.83,-0.5 1108.17,-0.5 1128.5,-0.5C 1414.84,11.2674 1660.84,115.767 1866.5,313C 2055.45,501.443 2163.62,729.276 2191,996.5C 2192.76,1018.97 2194.26,1041.31 2195.5,1063.5C 2195.5,1086.17 2195.5,1108.83 2195.5,1131.5C 2183.69,1406.33 2085.52,1644.66 1901,1846.5C 1717.19,2040.16 1492.03,2153.99 1225.5,2188C 1191.43,2191.7 1157.43,2194.2 1123.5,2195.5C 1106.17,2195.5 1088.83,2195.5 1071.5,2195.5C 791.121,2185.08 548.455,2085.25 343.5,1896C 141.747,1701.29 28.2475,1463.46 3,1182.5C 1.56585,1161.02 0.399187,1139.69 -0.5,1118.5C -0.5,1104.5 -0.5,1090.5 -0.5,1076.5C 8.39988,795.128 107.567,551.461 297,345.5C 506.97,127.8 763.803,12.4668 1067.5,-0.5 Z"/></g>
<g><path style="opacity:1" fill="#d9e63b" d="M 1008.5,161.5 C 1054.17,161.333 1099.83,161.5 1145.5,162C 1165.68,165.847 1178.51,177.681 1184,197.5C 1201.83,276.489 1219.5,355.489 1237,434.5C 1239.04,443.708 1241.71,452.708 1245,461.5C 1249,467.831 1254.5,472.331 1261.5,475C 1302.83,492 1344.17,509 1385.5,526C 1394.51,527.66 1402.84,525.993 1410.5,521C 1486,473.083 1561.66,425.417 1637.5,378C 1654.06,372.179 1669.4,374.512 1683.5,385C 1714.67,416.167 1745.83,447.333 1777,478.5C 1788.91,494.119 1790.58,510.786 1782,528.5C 1734,604.5 1686,680.5 1638,756.5C 1635.71,762.997 1635.04,769.664 1636,776.5C 1653.61,819.995 1671.61,863.329 1690,906.5C 1694.09,913.262 1699.93,917.762 1707.5,920C 1792.75,939.702 1878.08,959.036 1963.5,978C 1982.57,982.742 1994.74,994.575 2000,1013.5C 2000.67,1059.83 2000.67,1106.17 2000,1152.5C 1997.96,1166.75 1990.79,1177.59 1978.5,1185C 1970.42,1188.44 1962.09,1191.1 1953.5,1193C 1811.77,1224.68 1670.11,1256.68 1528.5,1289C 1512.55,1291.38 1505.38,1284.55 1507,1268.5C 1558.31,1145.16 1558.31,1021.83 1507,898.5C 1447.51,768.34 1349.67,681.174 1213.5,637C 1068.49,596.173 933.825,617.84 809.5,702C 689.455,789.88 623.288,908.38 611,1057.5C 605.948,1207.83 658.448,1333.67 768.5,1435C 869.119,1521.01 985.786,1559.35 1118.5,1550C 1166.25,1545.64 1212.25,1534.3 1256.5,1516C 1266.15,1514.08 1272.99,1517.58 1277,1526.5C 1277.67,1529.5 1277.67,1532.5 1277,1535.5C 1246.01,1679.8 1215.01,1824.14 1184,1968.5C 1179.48,1990.18 1166.32,2003.01 1144.5,2007C 1099.83,2007.67 1055.17,2007.67 1010.5,2007C 988.68,2002.51 975.513,1989.35 971,1967.5C 952.683,1885.87 934.349,1804.2 916,1722.5C 913.77,1709.18 906.603,1699.68 894.5,1694C 853.5,1677 812.5,1660 771.5,1643C 763.143,1641.63 755.143,1642.63 747.5,1646C 671.335,1694.25 595.002,1742.25 518.5,1790C 502.029,1796.24 486.695,1794.24 472.5,1784C 441,1752.5 409.5,1721 378,1689.5C 366.59,1672.78 365.59,1655.45 375,1637.5C 421,1564.83 467,1492.17 513,1419.5C 519.537,1409.64 521.203,1398.97 518,1387.5C 501.138,1347.25 484.471,1306.91 468,1266.5C 463.615,1257.12 456.448,1250.95 446.5,1248C 359.442,1228.49 272.442,1208.82 185.5,1189C 168.374,1182.2 158.207,1169.7 155,1151.5C 154.333,1106.5 154.333,1061.5 155,1016.5C 158.52,997.606 169.354,985.106 187.5,979C 273.391,959.362 359.391,940.028 445.5,921C 455.814,917.683 463.314,911.183 468,901.5C 485,860.167 502,818.833 519,777.5C 520.836,767.813 519.17,758.813 514,750.5C 466.417,675.669 419.083,600.669 372,525.5C 366.095,509.614 367.762,494.614 377,480.5C 409.5,448 442,415.5 474.5,383C 491.231,372.028 508.231,371.695 525.5,382C 598.998,428.917 672.664,475.583 746.5,522C 756.647,527.58 766.98,527.914 777.5,523C 819.063,506.218 860.397,488.885 901.5,471C 907.795,466.234 911.962,460.068 914,452.5C 933.612,364.778 953.612,277.112 974,189.5C 981.08,174.565 992.58,165.231 1008.5,161.5 Z"/></g>
<g><path style="opacity:1" fill="#d9e63b" d="M 1100.5,790.5 C 1210.5,787.735 1294.33,832.735 1352,925.5C 1392.44,999.29 1398.78,1075.96 1371,1155.5C 1367.58,1164.75 1363.58,1173.75 1359,1182.5C 1354.23,1198.86 1356.89,1213.86 1367,1227.5C 1518.33,1377.5 1669.67,1527.5 1821,1677.5C 1845.31,1711.9 1845.65,1746.56 1822,1781.5C 1798.47,1804.7 1774.64,1827.53 1750.5,1850C 1722.11,1874.07 1690.78,1878.74 1656.5,1864C 1650.32,1861.08 1644.66,1857.41 1639.5,1853C 1497.5,1690.67 1355.5,1528.33 1213.5,1366C 1202.44,1358.18 1190.11,1355.18 1176.5,1357C 1150.72,1367.16 1124.05,1374.16 1096.5,1378C 1003.04,1385.97 924.875,1355.47 862,1286.5C 804.423,1216.86 784.757,1137.52 803,1048.5C 807.259,1030.12 818.759,1022.28 837.5,1025C 843.124,1026.96 847.957,1030.12 852,1034.5C 875.333,1073.17 898.667,1111.83 922,1150.5C 937.042,1170.11 956.876,1181.61 981.5,1185C 1022.49,1188.5 1063.49,1191.83 1104.5,1195C 1152.81,1197.94 1184.31,1176.44 1199,1130.5C 1200.57,1121.57 1201.41,1112.57 1201.5,1103.5C 1200.59,1059.49 1199.42,1015.49 1198,971.5C 1193.73,950.564 1183.56,933.064 1167.5,919C 1132.01,894.087 1096.34,869.42 1060.5,845C 1047.86,834.785 1045.02,822.285 1052,807.5C 1056.53,800.981 1062.7,796.815 1070.5,795C 1080.66,793.585 1090.66,792.085 1100.5,790.5 Z"/></g>
</svg>
