<?xml version="1.0" encoding="UTF-8"?>
<!DOCTYPE svg PUBLIC "-//W3C//DTD SVG 1.1//EN" "http://www.w3.org/Graphics/SVG/1.1/DTD/svg11.dtd">
<svg xmlns="http://www.w3.org/2000/svg" version="1.1" width="2196px" height="2196px" style="shape-rendering:geometricPrecision; text-rendering:geometricPrecision; image-rendering:optimizeQuality; fill-rule:evenodd; clip-rule:evenodd" xmlns:xlink="http://www.w3.org/1999/xlink">
<g><path style="opacity:0.999" fill="#1f1f1f" d="M 1066.5,-0.5 C 1087.17,-0.5 1107.83,-0.5 1128.5,-0.5C 1414.84,11.2674 1660.84,115.767 1866.5,313C 2055.45,501.443 2163.62,729.276 2191,996.5C 2192.76,1018.97 2194.26,1041.31 2195.5,1063.5C 2195.5,1086.17 2195.5,1108.83 2195.5,1131.5C 2183.69,1406.33 2085.52,1644.66 1901,1846.5C 1717.19,2040.16 1492.03,2153.99 1225.5,2188C 1191.43,2191.7 1157.43,2194.2 1123.5,2195.5C 1106.5,2195.5 1089.5,2195.5 1072.5,2195.5C 791.717,2185.38 548.717,2085.54 343.5,1896C 141.747,1701.29 28.2475,1463.46 3,1182.5C 1.56585,1161.02 0.399187,1139.69 -0.5,1118.5C -0.5,1104.5 -0.5,1090.5 -0.5,1076.5C 8.39988,795.128 107.567,551.461 297,345.5C 506.708,128.097 763.208,12.7638 1066.5,-0.5 Z"/></g>
<g><path style="opacity:1" fill="#d9e63b" d="M 1167.5,198.5 C 1167.33,323.834 1167.5,449.167 1168,574.5C 1168.72,573.956 1169.22,573.289 1169.5,572.5C 1221.32,500.863 1273.16,429.196 1325,357.5C 1355.23,329.663 1387.4,327.163 1421.5,350C 1447.23,373.082 1454.06,400.916 1442,433.5C 1439.33,438.167 1436.67,442.833 1434,447.5C 1373.17,531.667 1312.33,615.833 1251.5,700C 1335.11,688.789 1418.78,677.456 1502.5,666C 1543.53,662.748 1570.36,680.582 1583,719.5C 1588.83,761.362 1571.99,789.529 1532.5,804C 1411.26,821.155 1289.93,837.655 1168.5,853.5C 1168.5,935.167 1168.5,1016.83 1168.5,1098.5C 1288.83,1098.33 1409.17,1098.5 1529.5,1099C 1545.02,1101.35 1554.02,1110.19 1556.5,1125.5C 1548.24,1175.29 1539.41,1224.95 1530,1274.5C 1527.17,1281.33 1522.33,1286.17 1515.5,1289C 1238.5,1289.67 961.5,1289.67 684.5,1289C 678.277,1285.78 673.777,1280.94 671,1274.5C 661.396,1225.14 652.562,1175.64 644.5,1126C 646.52,1111.31 654.853,1102.31 669.5,1099C 788.5,1098.5 907.5,1098.33 1026.5,1098.5C 1027.5,1017 1027.83,935.335 1027.5,853.5C 1026.5,853.5 1025.5,853.5 1024.5,853.5C 903.75,837.62 783.083,821.12 662.5,804C 629.628,792.785 612.294,769.785 610.5,735C 613.582,697.912 633.249,674.912 669.5,666C 676.167,665.333 682.833,665.333 689.5,666C 774.55,677.521 859.55,688.854 944.5,700C 881.966,614.432 819.799,528.599 758,442.5C 739.301,405.996 745.468,374.496 776.5,348C 806.161,329.333 835.161,330.333 863.5,351C 869.926,357.368 875.759,364.202 881,371.5C 929.176,438.529 977.343,505.529 1025.5,572.5C 1025.78,573.289 1026.28,573.956 1027,574.5C 1027.5,449.5 1027.67,324.5 1027.5,199.5C 1031.45,164.125 1050.78,142.291 1085.5,134C 1125.7,130.576 1152.54,147.742 1166,185.5C 1167.19,189.751 1167.69,194.085 1167.5,198.5 Z"/></g>
<g><path style="opacity:1" fill="#7c822d" d="M 1167.5,198.5 C 1168.17,323.167 1168.83,447.833 1169.5,572.5C 1169.22,573.289 1168.72,573.956 1168,574.5C 1167.5,449.167 1167.33,323.834 1167.5,198.5 Z"/></g>
<g><path style="opacity:1" fill="#4e5126" d="M 1027.5,199.5 C 1027.67,324.5 1027.5,449.5 1027,574.5C 1026.28,573.956 1025.78,573.289 1025.5,572.5C 1026.17,448.167 1026.83,323.833 1027.5,199.5 Z"/></g>
<g><path style="opacity:1" fill="#4e5126" d="M 1024.5,853.5 C 1025.5,853.5 1026.5,853.5 1027.5,853.5C 1027.83,935.335 1027.5,1017 1026.5,1098.5C 1027.16,1016.62 1026.49,934.954 1024.5,853.5 Z"/></g>
<g><path style="opacity:1" fill="#7c822d" d="M 742.5,1338.5 C 991.666,1337.5 1241,1337.17 1490.5,1337.5C 1490.78,1339.41 1490.45,1341.08 1489.5,1342.5C 1489.5,1341.17 1489.5,1339.83 1489.5,1338.5C 1240.5,1338.5 991.5,1338.5 742.5,1338.5 Z"/></g>
<g><path style="opacity:1" fill="#d9e63b" d="M 742.5,1338.5 C 991.5,1338.5 1240.5,1338.5 1489.5,1338.5C 1489.5,1339.83 1489.5,1341.17 1489.5,1342.5C 1487.36,1364.81 1485.86,1387.15 1485,1409.5C 1486.9,1425.93 1493.74,1439.77 1505.5,1451C 1566.5,1487.33 1627.5,1523.67 1688.5,1560C 1701.88,1577.22 1701.71,1594.38 1688,1611.5C 1680.87,1618.48 1672.37,1622.98 1662.5,1625C 1596.46,1625.01 1530.46,1625.68 1464.5,1627C 1459.67,1629.17 1456.17,1632.67 1454,1637.5C 1452.1,1660.89 1449.77,1684.22 1447,1707.5C 1443.57,1715.93 1437.4,1721.1 1428.5,1723C 1322.83,1723.39 1217.16,1724.06 1111.5,1725C 1100.45,1730.24 1097.95,1738.07 1104,1748.5C 1107.37,1751.27 1111.2,1753.1 1115.5,1754C 1214.9,1773.28 1314.23,1792.95 1413.5,1813C 1427.16,1818.16 1433.33,1827.99 1432,1842.5C 1425.01,1878.1 1418.34,1913.77 1412,1949.5C 1405.7,1973.46 1390.2,1987.29 1365.5,1991C 1207.17,1991.67 1048.83,1991.67 890.5,1991C 866.141,1987.97 850.307,1974.8 843,1951.5C 809.498,1747.16 775.998,1542.82 742.5,1338.5 Z"/></g>
<g><path style="opacity:1" fill="#1f1f1f" d="M 1253.5,1382.5 C 1274.5,1382.33 1295.5,1382.5 1316.5,1383C 1336.45,1387.95 1348.62,1400.45 1353,1420.5C 1353.67,1439.83 1353.67,1459.17 1353,1478.5C 1349.74,1501.09 1336.91,1514.59 1314.5,1519C 1294.83,1519.67 1275.17,1519.67 1255.5,1519C 1234.42,1514.92 1221.59,1502.42 1217,1481.5C 1216.33,1460.5 1216.33,1439.5 1217,1418.5C 1221.86,1399 1234.03,1387 1253.5,1382.5 Z"/></g>
</svg>
