<?xml version="1.0" encoding="UTF-8"?>
<!DOCTYPE svg PUBLIC "-//W3C//DTD SVG 1.1//EN" "http://www.w3.org/Graphics/SVG/1.1/DTD/svg11.dtd">
<svg xmlns="http://www.w3.org/2000/svg" version="1.1" width="2196px" height="2196px" style="shape-rendering:geometricPrecision; text-rendering:geometricPrecision; image-rendering:optimizeQuality; fill-rule:evenodd; clip-rule:evenodd" xmlns:xlink="http://www.w3.org/1999/xlink">
<g><path style="opacity:0.999" fill="#1f1f1f" d="M 1067.5,-0.5 C 1087.83,-0.5 1108.17,-0.5 1128.5,-0.5C 1414.84,11.2674 1660.84,115.767 1866.5,313C 2055.45,501.443 2163.62,729.276 2191,996.5C 2192.76,1018.97 2194.26,1041.31 2195.5,1063.5C 2195.5,1086.17 2195.5,1108.83 2195.5,1131.5C 2183.69,1406.33 2085.52,1644.66 1901,1846.5C 1717.19,2040.16 1492.03,2153.99 1225.5,2188C 1191.43,2191.7 1157.43,2194.2 1123.5,2195.5C 1106.17,2195.5 1088.83,2195.5 1071.5,2195.5C 791.121,2185.08 548.455,2085.25 343.5,1896C 141.747,1701.29 28.2475,1463.46 3,1182.5C 1.56585,1161.02 0.399187,1139.69 -0.5,1118.5C -0.5,1104.5 -0.5,1090.5 -0.5,1076.5C 8.39988,795.128 107.567,551.461 297,345.5C 506.97,127.8 763.803,12.4668 1067.5,-0.5 Z"/></g>
<g><path style="opacity:1" fill="#d9e63b" d="M 1058.5,210.5 C 1193.79,207.063 1300.95,259.73 1380,368.5C 1392.55,387.6 1403.55,407.6 1413,428.5C 1420.28,446.018 1415.11,458.184 1397.5,465C 1337.5,465.333 1277.5,465.667 1217.5,466C 1187.92,475.299 1174.42,495.466 1177,526.5C 1181.51,548.68 1194.68,562.847 1216.5,569C 1285.47,570.313 1354.47,570.98 1423.5,571C 1433.68,573.176 1439.84,579.342 1442,589.5C 1442.67,617.167 1442.67,644.833 1442,672.5C 1439.95,682.222 1434.11,688.389 1424.5,691C 1356.83,691.333 1289.17,691.667 1221.5,692C 1198.43,696.4 1183.6,709.9 1177,732.5C 1173.38,765.096 1187.21,786.263 1218.5,796C 1286.17,796.333 1353.83,796.667 1421.5,797C 1431.72,798.884 1438.55,804.718 1442,814.5C 1442.67,842.167 1442.67,869.833 1442,897.5C 1439.95,907.222 1434.11,913.389 1424.5,916C 1195.5,916.667 966.5,916.667 737.5,916C 727.155,912.986 720.989,906.153 719,895.5C 718.333,869.167 718.333,842.833 719,816.5C 721.5,806 728,799.5 738.5,797C 806.5,796.667 874.5,796.333 942.5,796C 973.033,787.45 987.199,767.283 985,735.5C 979.655,713.49 966.155,699.323 944.5,693C 875.197,691.687 805.864,691.02 736.5,691C 727.166,687.665 721.333,681.165 719,671.5C 718.333,644.5 718.333,617.5 719,590.5C 721.296,580.869 727.129,574.369 736.5,571C 806.531,570.98 876.531,570.314 946.5,569C 974.27,558.985 987.103,539.151 985,509.5C 979.094,485.928 964.261,471.428 940.5,466C 880.463,465.981 820.463,465.314 760.5,464C 747.828,458.155 742.995,448.322 746,434.5C 787.622,338.546 857.122,271.379 954.5,233C 988.268,220.682 1022.93,213.182 1058.5,210.5 Z"/></g>
<g><path style="opacity:1" fill="#d9e63b" d="M 1149.5,1517.5 C 1148.5,1517.5 1147.5,1517.5 1146.5,1517.5C 1146.17,1596.34 1146.5,1675 1147.5,1753.5C 1237.83,1753.33 1328.17,1753.5 1418.5,1754C 1450.54,1759.71 1469.71,1778.54 1476,1810.5C 1478.62,1844.45 1464.45,1868.29 1433.5,1882C 1428.28,1883.76 1422.94,1885.09 1417.5,1886C 1192.83,1886.67 968.167,1886.67 743.5,1886C 714.774,1880.73 695.94,1864.23 687,1836.5C 680.626,1793.74 698.126,1766.24 739.5,1754C 831.166,1753.5 922.833,1753.33 1014.5,1753.5C 1014.5,1674.83 1014.5,1596.17 1014.5,1517.5C 862.675,1498.51 736.509,1431.85 636,1317.5C 540.083,1204.11 493.083,1072.78 495,923.5C 499.192,903.973 509.692,888.806 526.5,878C 541.142,869.854 556.809,867.187 573.5,870C 604.238,877.736 622.071,897.236 627,928.5C 628.73,1083.79 690.897,1208.29 813.5,1302C 935.912,1387.4 1069.25,1409.74 1213.5,1369C 1356.27,1321.9 1454.44,1228.07 1508,1087.5C 1526.63,1033.07 1535.96,977.071 1536,919.5C 1550.64,878.885 1579.14,863.052 1621.5,872C 1644.7,880.529 1659.53,896.696 1666,920.5C 1668.63,1076.81 1618.3,1213.15 1515,1329.5C 1416.22,1436.15 1294.38,1498.81 1149.5,1517.5 Z"/></g>
<g><path style="opacity:1" fill="#d9e63b" d="M 772.5,1025.5 C 978.5,1025.33 1184.5,1025.5 1390.5,1026C 1408.98,1032.14 1415.81,1044.64 1411,1063.5C 1360.73,1169.91 1278.56,1238.08 1164.5,1268C 1046.05,1293.22 940.051,1267.88 846.5,1192C 806.161,1157.13 774.661,1115.63 752,1067.5C 744.189,1046.12 751.022,1032.12 772.5,1025.5 Z"/></g>
<g><path style="opacity:1" fill="#7c822d" d="M 1149.5,1517.5 C 1147.51,1595.95 1146.84,1674.62 1147.5,1753.5C 1146.5,1675 1146.17,1596.34 1146.5,1517.5C 1147.5,1517.5 1148.5,1517.5 1149.5,1517.5 Z"/></g>
</svg>
