<?xml version="1.0" encoding="UTF-8"?>
<!DOCTYPE svg PUBLIC "-//W3C//DTD SVG 1.1//EN" "http://www.w3.org/Graphics/SVG/1.1/DTD/svg11.dtd">
<svg xmlns="http://www.w3.org/2000/svg" version="1.1" width="2196px" height="2196px" style="shape-rendering:geometricPrecision; text-rendering:geometricPrecision; image-rendering:optimizeQuality; fill-rule:evenodd; clip-rule:evenodd" xmlns:xlink="http://www.w3.org/1999/xlink">
<g><path style="opacity:0.999" fill="#1f1f1f" d="M 1066.5,-0.5 C 1087.17,-0.5 1107.83,-0.5 1128.5,-0.5C 1414.84,11.2674 1660.84,115.767 1866.5,313C 2055.45,501.443 2163.62,729.276 2191,996.5C 2192.76,1018.97 2194.26,1041.31 2195.5,1063.5C 2195.5,1086.17 2195.5,1108.83 2195.5,1131.5C 2183.69,1406.33 2085.52,1644.66 1901,1846.5C 1717.19,2040.16 1492.03,2153.99 1225.5,2188C 1191.43,2191.7 1157.43,2194.2 1123.5,2195.5C 1106.5,2195.5 1089.5,2195.5 1072.5,2195.5C 791.717,2185.38 548.717,2085.54 343.5,1896C 141.747,1701.29 28.2475,1463.46 3,1182.5C 1.56585,1161.02 0.399187,1139.69 -0.5,1118.5C -0.5,1104.5 -0.5,1090.5 -0.5,1076.5C 8.39988,795.128 107.567,551.461 297,345.5C 506.708,128.097 763.208,12.7638 1066.5,-0.5 Z"/></g>
<g><path style="opacity:1" fill="#d9e641" d="M 420.5,502.5 C 473.051,501.085 505.718,525.752 518.5,576.5C 547.745,587.288 576.411,599.455 604.5,613C 661.507,646.844 700.174,695.344 720.5,758.5C 773.165,757.72 825.832,757.553 878.5,758C 884.36,759.859 888.193,763.693 890,769.5C 895.295,837.153 899.962,904.82 904,972.5C 901.5,979 897,983.5 890.5,986C 819.5,986.667 748.5,986.667 677.5,986C 669.7,983.2 665.2,977.7 664,969.5C 657,916.167 650,862.833 643,809.5C 631.873,747.727 597.706,704.227 540.5,679C 525.009,673.392 509.675,667.392 494.5,661C 491.28,659.475 487.947,658.808 484.5,659C 451.509,681.258 417.843,682.258 383.5,662C 352.717,638.672 340.55,607.839 347,569.5C 358.127,532.374 382.627,510.041 420.5,502.5 Z"/></g>
<g><path style="opacity:1" fill="#d9e641" d="M 1620.5,750.5 C 1686.17,750.333 1751.83,750.5 1817.5,751C 1840.74,759.299 1851.57,775.799 1850,800.5C 1832.67,858.489 1815.34,916.489 1798,974.5C 1795.34,980.492 1790.84,984.325 1784.5,986C 1724.5,986.667 1664.5,986.667 1604.5,986C 1596.08,982.916 1591.42,976.916 1590.5,968C 1595.42,901.195 1599.92,834.361 1604,767.5C 1604.86,763.456 1606.52,759.789 1609,756.5C 1612.57,753.798 1616.41,751.798 1620.5,750.5 Z"/></g>
<g><path style="opacity:1" fill="#d9e641" d="M 1327.5,752.5 C 1381.83,752.333 1436.17,752.5 1490.5,753C 1495.91,754.743 1499.74,758.243 1502,763.5C 1498.51,833.197 1494.18,902.864 1489,972.5C 1487.17,979.667 1482.67,984.167 1475.5,986C 1420.17,986.667 1364.83,986.667 1309.5,986C 1303.33,983.833 1299.17,979.667 1297,973.5C 1296.33,904.5 1296.33,835.5 1297,766.5C 1299.08,760.753 1302.91,756.586 1308.5,754C 1315.01,753.828 1321.35,753.328 1327.5,752.5 Z"/></g>
<g><path style="opacity:1" fill="#d9e641" d="M 1100.5,754.5 C 1128.17,754.333 1155.84,754.5 1183.5,755C 1188.67,757.5 1192.5,761.333 1195,766.5C 1195.67,835.5 1195.67,904.5 1195,973.5C 1192.63,980.536 1187.8,984.703 1180.5,986C 1125.78,986.987 1071.11,986.654 1016.5,985C 1011.53,982.031 1008.03,977.864 1006,972.5C 1002.19,916.486 998.189,860.486 994,804.5C 992.965,792.177 992.632,779.844 993,767.5C 995.773,761.06 1000.61,757.226 1007.5,756C 1038.67,755.832 1069.67,755.332 1100.5,754.5 Z"/></g>
<g><path style="opacity:1" fill="#d9e641" d="M 693.5,1087.5 C 762.501,1087.33 831.501,1087.5 900.5,1088C 910.124,1091.41 914.624,1098.24 914,1108.5C 919.699,1186.51 925.032,1264.51 930,1342.5C 927.833,1350 923,1354.83 915.5,1357C 858.496,1357.79 801.496,1358.79 744.5,1360C 729.734,1363.46 717.901,1371.3 709,1383.5C 695.77,1403.24 689.27,1425.07 689.5,1449C 690.792,1480.85 695.958,1512.01 705,1542.5C 712.141,1558.97 723.974,1570.81 740.5,1578C 752.94,1583.24 765.94,1586.24 779.5,1587C 1016.84,1587.98 1254.18,1587.65 1491.5,1586C 1531.57,1581.2 1568.24,1567.54 1601.5,1545C 1622.01,1529.91 1642.35,1514.58 1662.5,1499C 1681.4,1487.96 1699.4,1489.3 1716.5,1503C 1731.59,1518.81 1734.43,1536.64 1725,1556.5C 1721.25,1562.26 1716.75,1567.42 1711.5,1572C 1687.19,1590.49 1662.52,1608.49 1637.5,1626C 1591.14,1654.23 1540.81,1670.23 1486.5,1674C 1248.5,1674.67 1010.5,1674.67 772.5,1674C 730.394,1671.77 693.394,1657.1 661.5,1630C 647.175,1617.34 636.341,1602.17 629,1584.5C 609.48,1534.02 600.813,1481.69 603,1427.5C 607.318,1381.15 625.818,1341.65 658.5,1309C 671.813,1296.51 687.147,1287.34 704.5,1281.5C 697.774,1226.47 690.607,1171.47 683,1116.5C 682.333,1110.5 682.333,1104.5 683,1098.5C 685.357,1093.65 688.857,1089.98 693.5,1087.5 Z"/></g>
<g><path style="opacity:1" fill="#d9e641" d="M 1027.5,1087.5 C 1079.17,1087.33 1130.83,1087.5 1182.5,1088C 1188.25,1090.08 1192.41,1093.91 1195,1099.5C 1195.67,1179.5 1195.67,1259.5 1195,1339.5C 1192.83,1345.67 1188.67,1349.83 1182.5,1352C 1136.17,1353.43 1089.84,1354.09 1043.5,1354C 1037.94,1351.44 1034.11,1347.27 1032,1341.5C 1025.91,1260.86 1020.57,1180.2 1016,1099.5C 1018.69,1094.31 1022.52,1090.31 1027.5,1087.5 Z"/></g>
<g><path style="opacity:1" fill="#d9e641" d="M 1309.5,1087.5 C 1361.83,1087.33 1414.17,1087.5 1466.5,1088C 1475.82,1091.34 1480.49,1098 1480.5,1108C 1474.8,1182.79 1469.64,1257.62 1465,1332.5C 1462.5,1340.33 1457.33,1345.5 1449.5,1348C 1402.5,1348.9 1355.5,1349.24 1308.5,1349C 1302.51,1346.34 1298.67,1341.84 1297,1335.5C 1296.33,1257.5 1296.33,1179.5 1297,1101.5C 1298.95,1094.72 1303.12,1090.05 1309.5,1087.5 Z"/></g>
<g><path style="opacity:1" fill="#d9e641" d="M 1592.5,1087.5 C 1643.5,1087.33 1694.5,1087.5 1745.5,1088C 1754.93,1091.1 1759.1,1097.6 1758,1107.5C 1738.06,1175.33 1717.72,1243 1697,1310.5C 1686.7,1329.47 1670.86,1340.63 1649.5,1344C 1626.16,1344.62 1602.83,1344.95 1579.5,1345C 1573.33,1342.83 1569.17,1338.67 1567,1332.5C 1571.27,1254.81 1576.27,1177.14 1582,1099.5C 1583.08,1097 1584.41,1094.67 1586,1092.5C 1588.35,1090.97 1590.52,1089.3 1592.5,1087.5 Z"/></g>
<g><path style="opacity:1" fill="#d9e641" d="M 833.5,1723.5 C 885.017,1722.54 919.517,1746.2 937,1794.5C 946.433,1839.45 932.599,1875.28 895.5,1902C 847.434,1927.41 804.934,1920.24 768,1880.5C 744.397,1847.5 741.063,1812.5 758,1775.5C 774.895,1746.14 800.062,1728.8 833.5,1723.5 Z"/></g>
<g><path style="opacity:1" fill="#d9e641" d="M 1464.5,1723.5 C 1516.02,1722.54 1550.52,1746.2 1568,1794.5C 1577.32,1839.43 1563.49,1875.27 1526.5,1902C 1479.05,1927.23 1436.88,1920.4 1400,1881.5C 1375.45,1848.43 1371.78,1813.09 1389,1775.5C 1405.89,1746.14 1431.06,1728.8 1464.5,1723.5 Z"/></g>
<g><path style="opacity:1" fill="#20201f" d="M 839.5,1797.5 C 858.614,1797.78 867.448,1807.45 866,1826.5C 861.264,1838.57 852.43,1844.07 839.5,1843C 825.988,1838.82 819.822,1829.65 821,1815.5C 823.789,1805.88 829.956,1799.88 839.5,1797.5 Z"/></g>
<g><path style="opacity:1" fill="#20201f" d="M 1470.5,1797.5 C 1484.59,1796.62 1493.43,1802.95 1497,1816.5C 1497.51,1834.66 1488.68,1843.49 1470.5,1843C 1453.81,1836.78 1448.64,1825.28 1455,1808.5C 1458.96,1803.02 1464.13,1799.36 1470.5,1797.5 Z"/></g>
</svg>
